SplineFontDB: 3.0
FontName: KAN-KaveriItalic
FullName: KAN Kaveri Italic
FamilyName: KAN Kaveri
Weight: Book
Copyright: Copyright (c) 2009-2015, NLCI (http://www.nlci.in/fonts/)
Version: 1.0 Wed May 17 15:42:18 1995
ItalicAngle: 12
UnderlinePosition: -593.92
UnderlineWidth: 40.96
Ascent: 1638
Descent: 410
InvalidEm: 0
LayerCount: 2
Layer: 0 1 "Back" 1
Layer: 1 1 "Fore" 0
XUID: [1021 297 2115494286 1251845]
FSType: 0
OS2Version: 0
OS2_WeightWidthSlopeOnly: 0
OS2_UseTypoMetrics: 1
CreationTime: 1250825687
ModificationTime: 1522367375
PfmFamily: 81
TTFWeight: 400
TTFWidth: 5
LineGap: 0
VLineGap: 0
Panose: 5 0 0 0 0 0 0 0 0 0
OS2TypoAscent: -147
OS2TypoAOffset: 1
OS2TypoDescent: -401
OS2TypoDOffset: 1
OS2TypoLinegap: 0
OS2WinAscent: -483
OS2WinAOffset: 1
OS2WinDescent: -211
OS2WinDOffset: 1
HheadAscent: -483
HheadAOffset: 1
HheadDescent: 211
HheadDOffset: 1
OS2SubXSize: 1434
OS2SubYSize: 1331
OS2SubXOff: 0
OS2SubYOff: 293
OS2SupXSize: 1434
OS2SupYSize: 1331
OS2SupXOff: 0
OS2SupYOff: 928
OS2StrikeYSize: 102
OS2StrikeYPos: 530
OS2Vendor: 'Alts'
OS2UnicodeRanges: 00000000.00000000.00000000.00000000
Lookup: 262 0 0 "blwm" { "blwm-2sub"  } []
MarkAttachClasses: 1
DEI: 91125
TtTable: prep
NPUSHB
 1
 1
SCANTYPE
PUSHW_1
 511
SCANCTRL
EndTTInstrs
ShortTable: maxp 16
  1
  0
  319
  202
  5
  175
  6
  2
  8
  64
  10
  0
  3
  557
  4
  2
EndShort
LangName: 1033 "" "" "Italic" "NLCI:KAN Kaveri Italic" "" "1.0 Wed May 17 15:42:18 1995"
Encoding: Original
UnicodeInterp: none
NameList: Adobe Glyph List
DisplaySize: -48
AntiAlias: 1
FitToEm: 1
BeginPrivate: 0
EndPrivate
AnchorClass2: "Sub" "blwm-2sub" "Nukta"""  "s"""  "V""" 
BeginChars: 608 608

StartChar: .notdef
Encoding: 0 -1 0
Width: 1024
Flags: W
LayerCount: 2
Fore
SplineSet
63 0 m 1,0,-1
 63 1237 l 1,1,-1
 961 1237 l 1,2,-1
 961 0 l 1,3,-1
 63 0 l 1,0,-1
897 63 m 1,4,-1
 897 1174 l 1,5,-1
 127 1174 l 1,6,-1
 127 63 l 1,7,-1
 897 63 l 1,4,-1
EndSplineSet
EndChar

StartChar: exclam
Encoding: 4 33 4
Width: 552
VWidth: 1024
Flags: W
LayerCount: 2
Fore
SplineSet
166 29 m 0,0,-1
 166 35 l 0,1,-1
 199 229 l 0,2,3
 203 268 203 268 244 268 c 0,4,-1
 389 268 l 0,5,6
 422 268 422 268 422 240 c 0,7,-1
 422 229 l 0,8,-1
 391 35 l 0,9,10
 385 -2 385 -2 346 -2 c 0,11,-1
 201 -2 l 0,12,13
 184 -2 184 -2 175 6 c 0,14,15
 166 14 166 14 166 29 c 0,0,-1
387 1509 m 0,16,-1
 641 1509 l 0,17,-1
 430 414 l 0,18,-1
 244 414 l 0,19,-1
 387 1509 l 0,16,-1
EndSplineSet
EndChar

StartChar: quotedbl
Encoding: 5 34 5
Width: 735
VWidth: 1024
Flags: W
LayerCount: 2
Fore
SplineSet
788 1417 m 0,0,1
 788 1406 788 1406 777 1367 c 0,2,3
 765 1328 765 1328 747 1272 c 0,4,5
 729 1217 729 1217 708 1156 c 0,6,7
 687 1094 687 1094 667 1038 c 0,8,9
 647 983 647 983 632 941 c 0,10,11
 617 899 617 899 612 885 c 0,12,-1
 545 885 l 0,13,-1
 570 1353 l 0,14,15
 572 1385 572 1385 580 1411 c 0,16,17
 588 1437 588 1437 603 1456 c 0,18,19
 618 1475 618 1475 641 1486 c 0,20,21
 665 1497 665 1497 700 1497 c 0,22,23
 738 1497 738 1497 763 1477 c 0,24,25
 788 1456 788 1456 788 1417 c 0,0,1
451 1417 m 0,26,27
 451 1406 451 1406 439 1367 c 0,28,29
 428 1328 428 1328 410 1272 c 0,30,31
 392 1217 392 1217 371 1156 c 0,32,33
 350 1094 350 1094 331 1038 c 0,34,35
 312 983 312 983 297 941 c 0,36,37
 282 899 282 899 276 885 c 0,38,-1
 210 885 l 0,39,-1
 237 1353 l 0,40,41
 239 1385 239 1385 246 1411 c 0,42,43
 253 1437 253 1437 267 1456 c 0,44,45
 281 1475 281 1475 305 1486 c 0,46,47
 329 1497 329 1497 365 1497 c 0,48,49
 401 1497 401 1497 425 1477 c 0,50,51
 451 1456 451 1456 451 1417 c 0,26,27
EndSplineSet
Refer: 10 39 N 1 0 0 1 332 0 2
Refer: 10 39 N 1 0 0 1 0 0 2
EndChar

StartChar: numbersign
Encoding: 6 35 6
Width: 1454
VWidth: 1024
Flags: W
LayerCount: 2
Fore
SplineSet
924 608 m 0,0,-1
 1016 887 l 0,1,-1
 745 887 l 0,2,-1
 655 608 l 0,3,-1
 924 608 l 0,0,-1
426 440 m 0,4,-1
 106 440 l 0,5,-1
 158 608 l 0,6,-1
 485 608 l 0,7,-1
 578 887 l 0,8,-1
 246 887 l 0,9,-1
 301 1055 l 0,10,-1
 637 1055 l 0,11,-1
 786 1499 l 0,12,-1
 954 1499 l 0,13,-1
 805 1055 l 0,14,-1
 1069 1055 l 0,15,-1
 1217 1499 l 0,16,-1
 1384 1499 l 0,17,-1
 1237 1055 l 0,18,-1
 1589 1055 l 0,19,-1
 1538 887 l 0,20,-1
 1184 887 l 0,21,-1
 1094 608 l 0,22,-1
 1446 608 l 0,23,-1
 1395 440 l 0,24,-1
 1028 440 l 0,25,-1
 883 0 l 0,26,-1
 713 0 l 0,27,-1
 860 440 l 0,28,-1
 596 440 l 0,29,-1
 449 0 l 0,30,-1
 281 0 l 0,31,-1
 426 440 l 0,4,-1
EndSplineSet
EndChar

StartChar: dollar
Encoding: 7 36 7
Width: 1247
VWidth: 1024
Flags: W
LayerCount: 2
Fore
SplineSet
518 1047 m 0,0,1
 512 1020 512 1020 512 995 c 0,2,3
 512 929 512 929 549 901.5 c 0,4,5
 586 874 586 874 668 874 c 0,6,-1
 817 874 l 0,7,8
 997 874 997 874 1091.5 793.5 c 0,9,10
 1186 713 1186 713 1186 571 c 0,11,12
 1186 532 1186 532 1180 489 c 0,13,-1
 1157 348 l 0,14,15
 1130 166 1130 166 1017.5 82 c 0,16,17
 905 -2 905 -2 684 -10 c 0,18,-1
 655 -182 l 0,19,-1
 512 -182 l 0,20,-1
 539 -10 l 0,21,22
 299 -4 299 -4 133 33 c 0,23,-1
 164 231 l 0,24,25
 357 215 357 215 621 215 c 0,26,27
 766 215 766 215 836.5 253 c 0,28,29
 907 291 907 291 924 393 c 0,30,-1
 934 463 l 0,31,32
 938 479 938 479 938 510 c 0,33,34
 938 576 938 576 894 604.5 c 0,35,36
 850 633 850 633 752 633 c 0,37,-1
 608 633 l 0,38,39
 444 633 444 633 354 713 c 0,40,41
 264 793 264 793 264 934 c 0,42,43
 264 975 264 975 270 1018 c 0,44,-1
 291 1143 l 0,45,46
 324 1348 324 1348 448.5 1434 c 0,47,48
 573 1520 573 1520 793 1524 c 0,49,-1
 795 1610 l 0,50,-1
 938 1688 l 0,51,-1
 932 1561 l 0,52,-1
 864 1524 l 0,53,54
 960 1520 960 1520 1071 1507.5 c 0,55,56
 1182 1495 1182 1495 1266 1477 c 0,57,-1
 1235 1278 l 0,58,59
 1049 1294 1049 1294 782 1294 c 0,60,61
 667 1294 667 1294 606 1256.5 c 0,62,63
 545 1219 545 1219 528 1116 c 0,64,-1
 518 1047 l 0,0,1
EndSplineSet
EndChar

StartChar: percent
Encoding: 8 37 8
Width: 1970
VWidth: 1024
Flags: W
LayerCount: 2
Fore
SplineSet
1614 170 m 0,0,1
 1694 170 1694 170 1731.5 201.5 c 0,2,3
 1769 233 1769 233 1782 311 c 0,4,-1
 1808 487 l 0,5,6
 1812 520 1812 520 1812 535 c 0,7,8
 1812 586 1812 586 1784.5 606.5 c 0,9,10
 1757 627 1757 627 1692 627 c 0,11,-1
 1546 627 l 0,12,13
 1470 627 1470 627 1431.5 598 c 0,14,15
 1393 569 1393 569 1380 487 c 0,16,-1
 1354 311 l 0,17,18
 1350 274 1350 274 1350 262 c 0,19,20
 1350 213 1350 213 1377.5 191.5 c 0,21,22
 1405 170 1405 170 1468 170 c 0,23,-1
 1614 170 l 0,0,1
1178 199 m 0,24,25
 1178 232 1178 232 1184 274 c 0,26,-1
 1223 522 l 0,27,28
 1243 657 1243 657 1317 724 c 0,29,30
 1391 791 1391 791 1540 791 c 0,31,-1
 1749 791 l 0,32,33
 1874 791 1874 791 1929.5 742.5 c 0,34,35
 1985 694 1985 694 1985 598 c 0,36,37
 1985 563 1985 563 1978 522 c 0,38,-1
 1939 274 l 0,39,40
 1916 139 1916 139 1842.5 72.5 c 0,41,42
 1769 6 1769 6 1620 6 c 0,43,-1
 1411 6 l 0,44,45
 1288 6 1288 6 1233 54 c 0,46,47
 1178 102 1178 102 1178 199 c 0,24,25
666 879 m 0,48,49
 746 879 746 879 781.5 910.5 c 0,50,51
 817 942 817 942 829 1020 c 0,52,-1
 858 1196 l 0,53,54
 862 1229 862 1229 862 1243 c 0,55,56
 862 1292 862 1292 833.5 1313.5 c 0,57,58
 805 1335 805 1335 741 1335 c 0,59,-1
 594 1335 l 0,60,61
 520 1335 520 1335 481 1306.5 c 0,62,63
 442 1278 442 1278 430 1196 c 0,64,-1
 401 1020 l 0,65,66
 397 983 397 983 397 971 c 0,67,68
 397 922 397 922 426 900.5 c 0,69,70
 455 879 455 879 518 879 c 0,71,-1
 666 879 l 0,48,49
1589 1499 m 0,72,-1
 1757 1499 l 0,73,-1
 610 0 l 0,74,-1
 436 0 l 0,75,-1
 1589 1499 l 0,72,-1
227 907 m 0,76,77
 227 944 227 944 233 983 c 0,78,-1
 272 1231 l 0,79,80
 292 1366 292 1366 366 1432.5 c 0,81,82
 440 1499 440 1499 590 1499 c 0,83,-1
 797 1499 l 0,84,85
 922 1499 922 1499 978 1451 c 0,86,87
 1034 1403 1034 1403 1034 1307 c 0,88,89
 1034 1272 1034 1272 1028 1231 c 0,90,-1
 989 983 l 0,91,92
 966 848 966 848 891.5 781.5 c 0,93,94
 817 715 817 715 668 715 c 0,95,-1
 461 715 l 0,96,97
 338 715 338 715 282.5 763 c 0,98,99
 227 811 227 811 227 907 c 0,76,77
EndSplineSet
EndChar

StartChar: ampersand
Encoding: 9 38 9
Width: 1411
VWidth: 1024
Flags: W
LayerCount: 2
Fore
SplineSet
774 311 m 0,0,-1
 840 367 l 0,1,-1
 635 711 l 0,2,-1
 551 664 l 0,3,4
 451 609 451 609 415 546 c 0,5,6
 379 483 379 483 379 391 c 0,7,8
 379 313 379 313 423 267 c 0,9,10
 467 221 467 221 545 221 c 0,11,12
 604 221 604 221 658.5 240.5 c 0,13,14
 713 260 713 260 774 311 c 0,0,-1
121 330 m 0,15,16
 121 496 121 496 185.5 606.5 c 0,17,18
 250 717 250 717 395 801 c 0,19,-1
 541 885 l 0,20,-1
 516 932 l 0,21,22
 455 1047 455 1047 455 1167 c 0,23,24
 455 1321 455 1321 564.5 1414 c 0,25,26
 674 1507 674 1507 883 1507 c 0,27,28
 1043 1507 1043 1507 1217 1468 c 0,29,-1
 1188 1284 l 0,30,-1
 895 1284 l 0,31,32
 803 1284 803 1284 755 1248 c 0,33,34
 707 1212 707 1212 707 1143 c 0,35,36
 707 1067 707 1067 774 952 c 0,37,-1
 1030 504 l 0,38,-1
 1372 776 l 0,39,-1
 1446 664 l 0,40,-1
 1284 444 l 0,41,-1
 1139 324 l 0,42,-1
 1331 0 l 0,43,-1
 1069 0 l 0,44,-1
 946 197 l 0,45,-1
 862 131 l 0,46,47
 762 53 762 53 670 20.5 c 0,48,49
 578 -12 578 -12 469 -12 c 0,50,51
 311 -12 311 -12 216 81 c 0,52,53
 121 174 121 174 121 330 c 0,15,16
EndSplineSet
EndChar

StartChar: quotesingle
Encoding: 10 39 10
Width: 403
VWidth: 1024
Flags: W
LayerCount: 2
Fore
SplineSet
297 1401 m 0,0,-1
 317 1538 l 0,1,-1
 561 1538 l 0,2,-1
 541 1401 l 0,3,-1
 465 1026 l 0,4,-1
 256 1026 l 0,5,-1
 297 1401 l 0,0,-1
EndSplineSet
EndChar

StartChar: parenleft
Encoding: 11 40 11
Width: 763
VWidth: 1024
Flags: W
LayerCount: 2
Fore
SplineSet
215 348 m 0,0,1
 215 596 215 596 290 862 c 0,2,3
 365 1128 365 1128 494 1365 c 0,4,5
 623 1602 623 1602 776 1761 c 0,6,-1
 1006 1761 l 0,7,8
 854 1579 854 1579 732 1344.5 c 0,9,10
 610 1110 610 1110 539.5 855 c 0,11,12
 469 600 469 600 469 365 c 0,13,14
 469 154 469 154 517 -39.5 c 0,15,16
 565 -233 565 -233 659 -430 c 0,17,-1
 430 -430 l 0,18,19
 215 -94 215 -94 215 348 c 0,0,1
EndSplineSet
EndChar

StartChar: parenright
Encoding: 12 41 12
Width: 761
VWidth: 1024
Flags: W
LayerCount: 2
Fore
SplineSet
504 975 m 0,0,1
 504 1184 504 1184 458 1371.5 c 0,2,3
 412 1559 412 1559 315 1761 c 0,4,-1
 543 1761 l 0,5,6
 647 1595 647 1595 702.5 1408 c 0,7,8
 758 1221 758 1221 758 989 c 0,9,10
 758 741 758 741 684 477 c 0,11,12
 610 213 610 213 483 -22.5 c 0,13,14
 356 -258 356 -258 197 -430 c 0,15,-1
 -31 -430 l 0,16,17
 207 -131 207 -131 355.5 246 c 0,18,19
 504 623 504 623 504 975 c 0,0,1
EndSplineSet
EndChar

StartChar: asterisk
Encoding: 13 42 13
Width: 909
VWidth: 1024
Flags: W
LayerCount: 2
Fore
SplineSet
547 971 m 0,0,-1
 639 1085 l 0,1,-1
 846 907 l 0,2,-1
 778 831 l 0,3,-1
 547 971 l 0,0,-1
332 848 m 0,4,-1
 434 1128 l 0,5,-1
 561 1096 l 0,6,-1
 418 819 l 0,7,-1
 332 848 l 0,4,-1
272 1278 m 0,8,-1
 565 1303 l 0,9,-1
 551 1169 l 0,10,-1
 258 1182 l 0,11,-1
 272 1278 l 0,8,-1
680 1153 m 0,12,-1
 944 1321 l 0,13,-1
 987 1243 l 0,14,-1
 748 1049 l 0,15,-1
 680 1153 l 0,12,-1
578 1479 m 0,16,-1
 674 1509 l 0,17,-1
 764 1253 l 0,18,-1
 631 1204 l 0,19,-1
 578 1479 l 0,16,-1
EndSplineSet
EndChar

StartChar: plus
Encoding: 14 43 14
Width: 1247
VWidth: 1024
Flags: W
LayerCount: 2
Fore
SplineSet
1182 627 m 0,0,-1
 825 627 l 0,1,-1
 770 270 l 0,2,-1
 563 270 l 0,3,-1
 618 627 l 0,4,-1
 264 627 l 0,5,-1
 295 831 l 0,6,-1
 651 831 l 0,7,-1
 707 1188 l 0,8,-1
 913 1188 l 0,9,-1
 858 831 l 0,10,-1
 1212 831 l 0,11,-1
 1182 627 l 0,0,-1
EndSplineSet
EndChar

StartChar: comma
Encoding: 15 44 15
Width: 454
VWidth: 1024
Flags: W
LayerCount: 2
Fore
SplineSet
98 -164 m 0,0,-1
 111 -84 l 0,1,2
 138 -84 138 -84 151 -76 c 0,3,4
 164 -68 164 -68 168 -45 c 0,5,-1
 176 16 l 0,6,-1
 158 16 l 0,7,8
 125 16 125 16 125 49 c 0,9,-1
 129 80 l 0,10,-1
 154 225 l 0,11,12
 156 245 156 245 168 256.5 c 0,13,14
 180 268 180 268 199 268 c 0,15,-1
 342 268 l 0,16,17
 375 268 375 268 375 238 c 0,18,-1
 371 203 l 0,19,-1
 330 -45 l 0,20,21
 307 -174 307 -174 176 -174 c 0,22,23
 150 -174 150 -174 127 -170 c 0,24,25
 104 -166 104 -166 98 -164 c 0,0,-1
EndSplineSet
EndChar

StartChar: hyphen
Encoding: 16 45 16
Width: 704
VWidth: 1024
Flags: W
LayerCount: 2
Fore
SplineSet
156 696 m 0,0,-1
 772 696 l 0,1,-1
 739 492 l 0,2,-1
 123 492 l 0,3,-1
 156 696 l 0,0,-1
EndSplineSet
EndChar

StartChar: period
Encoding: 17 46 17
Width: 454
VWidth: 1024
Flags: W
LayerCount: 2
Fore
SplineSet
121 29 m 0,0,-1
 121 35 l 0,1,-1
 154 229 l 0,2,3
 158 268 158 268 199 268 c 0,4,-1
 344 268 l 0,5,6
 377 268 377 268 377 240 c 0,7,-1
 377 229 l 0,8,-1
 346 35 l 0,9,10
 340 -2 340 -2 301 -2 c 0,11,-1
 156 -2 l 0,12,13
 139 -2 139 -2 130 6 c 0,14,15
 121 14 121 14 121 29 c 0,0,-1
EndSplineSet
EndChar

StartChar: slash
Encoding: 18 47 18
Width: 903
VWidth: 1024
Flags: W
LayerCount: 2
Fore
SplineSet
862 1577 m 0,0,-1
 1116 1577 l 0,1,-1
 268 -147 l 0,2,-1
 14 -147 l 0,3,-1
 862 1577 l 0,0,-1
EndSplineSet
EndChar

StartChar: zero
Encoding: 19 48 19
Width: 1331
VWidth: 1024
Flags: W
LayerCount: 2
Fore
SplineSet
795 221 m 0,0,1
 985 221 985 221 1014 410 c 0,2,-1
 1124 1108 l 0,3,4
 1128 1126 1128 1126 1128 1159 c 0,5,6
 1128 1296 1128 1296 975 1296 c 0,7,-1
 772 1296 l 0,8,9
 682 1296 682 1296 626.5 1248 c 0,10,11
 571 1200 571 1200 557 1108 c 0,12,-1
 446 410 l 0,13,14
 442 377 442 377 442 362 c 0,15,16
 442 221 442 221 610 221 c 0,17,-1
 795 221 l 0,0,1
180 285 m 0,18,19
 180 328 180 328 186 373 c 0,20,-1
 307 1133 l 0,21,22
 338 1321 338 1321 458 1422.5 c 0,23,24
 578 1524 578 1524 760 1524 c 0,25,-1
 1069 1524 l 0,26,27
 1229 1524 1229 1524 1310 1447 c 0,28,29
 1391 1370 1391 1370 1391 1227 c 0,30,31
 1391 1202 1391 1202 1382 1133 c 0,32,-1
 1262 373 l 0,33,34
 1233 187 1233 187 1118.5 89.5 c 0,35,36
 1004 -8 1004 -8 823 -8 c 0,37,-1
 516 -8 l 0,38,39
 354 -8 354 -8 267 65.5 c 0,40,41
 180 139 180 139 180 285 c 0,18,19
EndSplineSet
EndChar

StartChar: one
Encoding: 20 49 20
Width: 755
VWidth: 1024
Flags: W
LayerCount: 2
Fore
SplineSet
559 1280 m 0,0,-1
 266 1217 l 0,1,-1
 291 1380 l 0,2,-1
 623 1511 l 0,3,-1
 850 1511 l 0,4,-1
 610 0 l 0,5,-1
 356 0 l 0,6,-1
 559 1280 l 0,0,-1
EndSplineSet
EndChar

StartChar: two
Encoding: 21 50 21
Width: 1206
VWidth: 1024
Flags: W
LayerCount: 2
Fore
SplineSet
131 205 m 0,0,-1
 721 719 l 0,1,2
 854 834 854 834 918.5 938 c 0,3,4
 983 1042 983 1042 983 1130 c 0,5,6
 983 1204 983 1204 935 1244 c 0,7,8
 887 1284 887 1284 774 1284 c 0,9,-1
 344 1284 l 0,10,-1
 377 1483 l 0,11,12
 504 1501 504 1501 609.5 1512.5 c 0,13,14
 715 1524 715 1524 831 1524 c 0,15,16
 1044 1524 1044 1524 1140.5 1437 c 0,17,18
 1237 1350 1237 1350 1237 1200 c 0,19,20
 1237 891 1237 891 913 604 c 0,21,-1
 487 229 l 0,22,-1
 1161 229 l 0,23,-1
 1124 0 l 0,24,-1
 100 0 l 0,25,-1
 131 205 l 0,0,-1
EndSplineSet
EndChar

StartChar: three
Encoding: 22 51 22
Width: 1189
VWidth: 1024
Flags: W
LayerCount: 2
Fore
SplineSet
86 25 m 0,0,-1
 115 215 l 0,1,-1
 590 215 l 0,2,3
 725 215 725 215 795.5 255 c 0,4,5
 866 295 866 295 885 395 c 0,6,7
 901 477 901 477 901 500 c 0,8,9
 901 576 901 576 837.5 614.5 c 0,10,11
 774 653 774 653 674 657 c 0,12,-1
 328 672 l 0,13,-1
 356 852 l 0,14,-1
 727 870 l 0,15,16
 940 880 940 880 967 1034 c 0,17,18
 979 1116 979 1116 979 1141 c 0,19,20
 979 1297 979 1297 750 1296 c 0,21,-1
 326 1296 l 0,22,-1
 356 1487 l 0,23,24
 639 1524 639 1524 866 1524 c 0,25,26
 1054 1524 1054 1524 1148.5 1455 c 0,27,28
 1243 1386 1243 1386 1243 1235 c 0,29,30
 1243 1186 1243 1186 1219 1040 c 0,31,32
 1201 923 1201 923 1133 854.5 c 0,33,34
 1065 786 1065 786 975 762 c 0,35,36
 1049 742 1049 742 1101 678 c 0,37,38
 1153 614 1153 614 1153 514 c 0,39,40
 1153 479 1153 479 1133 354 c 0,41,42
 1106 176 1106 176 978 82 c 0,43,44
 850 -12 850 -12 647 -12 c 0,45,46
 328 -12 328 -12 86 25 c 0,0,-1
EndSplineSet
EndChar

StartChar: four
Encoding: 23 52 23
Width: 1249
VWidth: 1024
Flags: W
LayerCount: 2
Fore
SplineSet
834 344 m 0,0,-1
 154 344 l 0,1,-1
 123 469 l 0,2,-1
 807 1511 l 0,3,-1
 1067 1511 l 0,4,-1
 438 559 l 0,5,-1
 868 559 l 0,6,-1
 922 893 l 0,7,-1
 997 1055 l 0,8,-1
 1200 1055 l 0,9,-1
 1122 559 l 0,10,-1
 1296 559 l 0,11,-1
 1268 385 l 0,12,-1
 1087 344 l 0,13,-1
 1032 2 l 0,14,-1
 780 2 l 0,15,-1
 834 344 l 0,0,-1
EndSplineSet
EndChar

StartChar: five
Encoding: 24 53 24
Width: 1261
VWidth: 1024
Flags: W
LayerCount: 2
Fore
SplineSet
166 18 m 0,0,-1
 199 217 l 0,1,-1
 705 217 l 0,2,3
 820 217 820 217 887 273.5 c 0,4,5
 954 330 954 330 969 416 c 0,6,-1
 987 543 l 0,7,8
 991 576 991 576 991 592 c 0,9,10
 991 729 991 729 827 729 c 0,11,-1
 694 729 l 0,12,13
 616 729 616 729 571 697.5 c 0,14,15
 526 666 526 666 504 596 c 0,16,-1
 262 596 l 0,17,-1
 449 1511 l 0,18,-1
 1339 1511 l 0,19,-1
 1303 1284 l 0,20,-1
 655 1284 l 0,21,-1
 569 866 l 0,22,23
 604 901 604 901 658.5 923.5 c 0,24,25
 713 946 713 946 778 946 c 0,26,-1
 948 946 l 0,27,28
 1098 946 1098 946 1175.5 869.5 c 0,29,30
 1253 793 1253 793 1253 666 c 0,31,32
 1253 641 1253 641 1249 588 c 0,33,-1
 1212 365 l 0,34,35
 1183 175 1183 175 1041 82.5 c 0,36,37
 899 -10 899 -10 657 -10 c 0,38,39
 461 -11 461 -11 166 18 c 0,0,-1
EndSplineSet
EndChar

StartChar: six
Encoding: 25 54 25
Width: 1255
VWidth: 1024
Flags: W
LayerCount: 2
Fore
SplineSet
764 219 m 0,0,1
 844 219 844 219 894 258 c 0,2,3
 944 297 944 297 958 387 c 0,4,-1
 977 508 l 0,5,6
 981 545 981 545 981 557 c 0,7,8
 981 625 981 625 933 650.5 c 0,9,10
 885 676 885 676 780 676 c 0,11,-1
 479 676 l 0,12,13
 459 526 459 526 459 455 c 0,14,15
 459 324 459 324 504 271.5 c 0,16,17
 549 219 549 219 643 219 c 0,18,-1
 764 219 l 0,0,1
207 426 m 0,19,20
 207 920 207 920 380 1222 c 0,21,22
 553 1524 553 1524 920 1524 c 0,23,24
 1131 1524 1131 1524 1296 1495 c 0,25,-1
 1264 1296 l 0,26,-1
 903 1296 l 0,27,28
 745 1296 745 1296 644 1185.5 c 0,29,30
 543 1075 543 1075 508 860 c 0,31,32
 643 891 643 891 883 891 c 0,33,34
 1067 891 1067 891 1156 828.5 c 0,35,36
 1245 766 1245 766 1245 639 c 0,37,38
 1245 612 1245 612 1237 555 c 0,39,-1
 1202 340 l 0,40,41
 1173 160 1173 160 1061.5 76 c 0,42,43
 950 -8 950 -8 782 -8 c 0,44,-1
 557 -8 l 0,45,46
 381 -8 381 -8 294 87 c 0,47,48
 207 182 207 182 207 426 c 0,19,20
EndSplineSet
EndChar

StartChar: seven
Encoding: 26 55 26
Width: 1126
VWidth: 1024
Flags: W
LayerCount: 2
Fore
SplineSet
946 1260 m 0,0,-1
 262 1260 l 0,1,-1
 303 1511 l 0,2,-1
 1243 1511 l 0,3,-1
 1294 1399 l 0,4,-1
 555 0 l 0,5,-1
 258 0 l 0,6,-1
 946 1260 l 0,0,-1
EndSplineSet
EndChar

StartChar: eight
Encoding: 27 56 27
Width: 1296
VWidth: 1024
Flags: W
LayerCount: 2
Fore
SplineSet
776 209 m 0,0,1
 866 209 866 209 910 246 c 0,2,3
 954 283 954 283 965 356 c 0,4,-1
 989 510 l 0,5,6
 993 539 993 539 993 549 c 0,7,8
 993 608 993 608 957.5 636 c 0,9,10
 922 664 922 664 844 664 c 0,11,-1
 670 664 l 0,12,13
 602 664 602 664 542.5 625 c 0,14,15
 483 586 483 586 471 510 c 0,16,-1
 446 356 l 0,17,18
 442 327 442 327 442 319 c 0,19,20
 442 208 442 208 598 209 c 0,21,-1
 776 209 l 0,0,1
877 881 m 0,22,23
 957 881 957 881 997.5 924 c 0,24,25
 1038 967 1038 967 1049 1036 c 0,26,-1
 1065 1149 l 0,27,28
 1071 1178 1071 1178 1071 1200 c 0,29,30
 1071 1259 1071 1259 1041.5 1284 c 0,31,32
 1012 1309 1012 1309 950 1309 c 0,33,-1
 774 1309 l 0,34,35
 692 1309 692 1309 650 1273 c 0,36,37
 608 1237 608 1237 594 1149 c 0,38,-1
 578 1036 l 0,39,40
 574 999 574 999 573 991 c 0,41,42
 573 880 573 880 705 881 c 0,43,-1
 877 881 l 0,22,23
178 229 m 0,44,45
 178 268 178 268 184 305 c 0,46,-1
 219 522 l 0,47,48
 233 616 233 616 294.5 684 c 0,49,50
 356 752 356 752 434 768 c 0,51,52
 321 825 321 825 322 948 c 0,53,54
 322 977 322 977 330 1034 c 0,55,-1
 356 1210 l 0,56,57
 407 1523 407 1523 754 1524 c 0,58,-1
 1057 1524 l 0,59,60
 1194 1524 1194 1524 1262.5 1470.5 c 0,61,62
 1331 1417 1331 1417 1331 1296 c 0,63,64
 1331 1273 1331 1273 1323 1208 c 0,65,-1
 1296 1034 l 0,66,67
 1284 960 1284 960 1237 884.5 c 0,68,69
 1190 809 1190 809 1116 793 c 0,70,71
 1186 777 1186 777 1218.5 724.5 c 0,72,73
 1251 672 1251 672 1251 598 c 0,74,75
 1251 571 1251 571 1247 530 c 0,76,-1
 1210 311 l 0,77,78
 1183 137 1183 137 1079 64.5 c 0,79,80
 975 -8 975 -8 811 -8 c 0,81,-1
 510 -8 l 0,82,83
 178 -9 178 -9 178 229 c 0,44,45
EndSplineSet
EndChar

StartChar: nine
Encoding: 28 57 28
Width: 1255
VWidth: 1024
Flags: W
LayerCount: 2
Fore
SplineSet
729 1294 m 0,0,1
 649 1294 649 1294 599 1255.5 c 0,2,3
 549 1217 549 1217 535 1126 c 0,4,-1
 516 1006 l 0,5,6
 512 969 512 969 512 956 c 0,7,8
 512 888 512 888 560 863 c 0,9,10
 608 838 608 838 713 838 c 0,11,-1
 1014 838 l 0,12,13
 1034 988 1034 988 1034 1059 c 0,14,15
 1034 1190 1034 1190 989 1242 c 0,16,17
 944 1294 944 1294 850 1294 c 0,18,-1
 729 1294 l 0,0,1
1286 1087 m 0,19,20
 1286 593 1286 593 1113 291.5 c 0,21,22
 940 -10 940 -10 573 -10 c 0,23,24
 362 -10 362 -10 197 18 c 0,25,-1
 229 217 l 0,26,-1
 590 217 l 0,27,28
 748 217 748 217 849 327.5 c 0,29,30
 950 438 950 438 985 653 c 0,31,32
 850 622 850 622 610 623 c 0,33,34
 426 623 426 623 337 685.5 c 0,35,36
 248 748 248 748 248 874 c 0,37,38
 248 901 248 901 256 958 c 0,39,-1
 291 1174 l 0,40,41
 320 1354 320 1354 431.5 1438 c 0,42,43
 543 1522 543 1522 711 1522 c 0,44,-1
 936 1522 l 0,45,46
 1112 1522 1112 1522 1199 1426.5 c 0,47,48
 1286 1331 1286 1331 1286 1087 c 0,19,20
EndSplineSet
EndChar

StartChar: colon
Encoding: 29 58 29
Width: 454
VWidth: 1024
Flags: W
LayerCount: 2
Fore
SplineSet
472 895 m 0,0,1
 472 866 472 866 461 841 c 0,2,3
 450 815 450 815 430 796 c 0,4,5
 411 777 411 777 385 766 c 0,6,7
 359 755 359 755 330 755 c 0,8,9
 300 755 300 755 274 766 c 0,10,11
 248 777 248 777 230 796 c 0,12,13
 211 815 211 815 200 841 c 0,14,15
 189 867 189 867 188 895 c 0,16,17
 188 924 188 924 200 950 c 0,18,19
 211 976 211 976 230 995 c 0,20,21
 249 1014 249 1014 274 1025 c 0,22,23
 300 1036 300 1036 330 1036 c 0,24,25
 359 1036 359 1036 385 1025 c 0,26,27
 411 1014 411 1014 430 995 c 0,28,29
 449 976 449 976 461 950 c 0,30,31
 472 924 472 924 472 895 c 0,0,1
318 116 m 0,32,33
 318 86 318 86 307 60 c 0,34,35
 296 34 296 34 276 16 c 0,36,37
 257 -3 257 -3 231 -14 c 0,38,39
 205 -25 205 -25 176 -26 c 0,40,41
 146 -26 146 -26 121 -14 c 0,42,43
 96 -3 96 -3 77 16 c 0,44,45
 58 35 58 35 47 60 c 0,46,47
 36 86 36 86 36 116 c 0,48,49
 36 145 36 145 47 170 c 0,50,51
 58 196 58 196 77 215 c 0,52,53
 96 234 96 234 121 245 c 0,54,55
 146 256 146 256 176 256 c 0,56,57
 205 256 205 256 231 245 c 0,58,59
 257 234 257 234 276 215 c 0,60,61
 295 196 295 196 307 170 c 0,62,63
 318 145 318 145 318 116 c 0,32,33
EndSplineSet
Refer: 17 46 N 1 0 0 1 133 831 2
Refer: 17 46 N 1 0 0 1 0 0 2
EndChar

StartChar: semicolon
Encoding: 30 59 30
Width: 454
VWidth: 1024
Flags: W
LayerCount: 2
Fore
SplineSet
472 895 m 0,0,1
 472 866 472 866 461 841 c 0,2,3
 450 815 450 815 430 796 c 0,4,5
 411 777 411 777 385 766 c 0,6,7
 359 755 359 755 330 755 c 0,8,9
 300 755 300 755 274 766 c 0,10,11
 248 777 248 777 230 796 c 0,12,13
 211 815 211 815 200 841 c 0,14,15
 189 867 189 867 188 895 c 0,16,17
 188 924 188 924 200 950 c 0,18,19
 211 976 211 976 230 995 c 0,20,21
 249 1014 249 1014 274 1025 c 0,22,23
 300 1036 300 1036 330 1036 c 0,24,25
 359 1036 359 1036 385 1025 c 0,26,27
 411 1014 411 1014 430 995 c 0,28,29
 449 976 449 976 461 950 c 0,30,31
 472 924 472 924 472 895 c 0,0,1
334 100 m 0,32,33
 334 11 334 11 296 -69 c 0,34,35
 258 -149 258 -149 195 -210 c 0,36,37
 132 -271 132 -271 51 -310 c 0,38,39
 -30 -349 -30 -349 -116 -356 c 0,40,-1
 -100 -281 l 0,41,42
 -35 -268 -35 -268 13 -244 c 0,43,44
 62 -220 62 -220 97 -185 c 0,45,46
 132 -150 132 -150 155 -100 c 0,47,48
 178 -51 178 -51 188 14 c 0,49,-1
 56 14 l 0,50,51
 45 28 45 28 40 49 c 0,52,53
 35 69 35 69 36 86 c 0,54,55
 36 117 36 117 49 147 c 0,56,57
 62 177 62 177 85 202 c 0,58,59
 108 227 108 227 137 241 c 0,60,61
 166 256 166 256 198 256 c 0,62,63
 234 256 234 256 260 244 c 0,64,65
 286 232 286 232 302 211 c 0,66,67
 318 190 318 190 326 162 c 0,68,69
 334 133 334 133 334 100 c 0,32,33
EndSplineSet
Refer: 15 44 N 1 0 0 1 0 0 2
Refer: 17 46 N 1 0 0 1 133 831 2
EndChar

StartChar: less
Encoding: 31 60 31
Width: 1247
VWidth: 1024
Flags: W
LayerCount: 2
Fore
SplineSet
272 604 m 0,0,-1
 309 829 l 0,1,-1
 1202 1100 l 0,2,-1
 1167 879 l 0,3,-1
 537 719 l 0,4,-1
 1114 547 l 0,5,-1
 1079 326 l 0,6,-1
 272 604 l 0,0,-1
EndSplineSet
EndChar

StartChar: equal
Encoding: 32 61 32
Width: 1247
VWidth: 1024
Flags: W
LayerCount: 2
Fore
SplineSet
420 755 m 0,0,-1
 420 885 l 0,1,-1
 1677 885 l 0,2,-1
 1677 755 l 0,3,-1
 420 755 l 0,0,-1
420 374 m 0,4,-1
 420 504 l 0,5,-1
 1677 504 l 0,6,-1
 1677 374 l 0,7,-1
 420 374 l 0,4,-1
EndSplineSet
Refer: 387 8722 N 1 0 0 1 39 246 2
Refer: 387 8722 N 1 0 0 1 -39 -246 2
EndChar

StartChar: greater
Encoding: 33 62 33
Width: 1247
VWidth: 1024
Flags: W
LayerCount: 2
Fore
SplineSet
295 547 m 0,0,-1
 926 719 l 0,1,-1
 348 879 l 0,2,-1
 383 1100 l 0,3,-1
 1190 829 l 0,4,-1
 1153 604 l 0,5,-1
 260 326 l 0,6,-1
 295 547 l 0,0,-1
EndSplineSet
EndChar

StartChar: question
Encoding: 34 63 34
Width: 1085
VWidth: 1024
Flags: W
LayerCount: 2
Fore
SplineSet
313 29 m 0,0,-1
 313 35 l 0,1,-1
 346 229 l 0,2,3
 350 268 350 268 391 268 c 0,4,-1
 537 268 l 0,5,6
 570 268 570 268 569 240 c 0,7,-1
 569 229 l 0,8,-1
 539 35 l 0,9,10
 533 -2 533 -2 494 -2 c 0,11,-1
 348 -2 l 0,12,13
 332 -2 332 -2 322.5 6 c 0,14,15
 313 14 313 14 313 29 c 0,0,-1
444 788 m 0,16,-1
 571 788 l 0,17,18
 704 788 704 788 770 829 c 0,19,20
 836 870 836 870 852 977 c 0,21,-1
 866 1063 l 0,22,23
 870 1088 870 1088 870 1126 c 0,24,25
 870 1210 870 1210 817 1248 c 0,26,27
 764 1286 764 1286 653 1286 c 0,28,29
 563 1286 563 1286 475 1268.5 c 0,30,31
 387 1251 387 1251 283 1214 c 0,32,-1
 311 1399 l 0,33,34
 524 1514 524 1514 768 1513 c 0,35,36
 950 1513 950 1513 1042.5 1429.5 c 0,37,38
 1135 1346 1135 1346 1135 1200 c 0,39,40
 1135 1149 1135 1149 1126 1102 c 0,41,-1
 1104 973 l 0,42,43
 1075 783 1075 783 953 689.5 c 0,44,45
 831 596 831 596 604 596 c 0,46,-1
 578 412 l 0,47,-1
 385 412 l 0,48,-1
 444 788 l 0,16,-1
EndSplineSet
EndChar

StartChar: at
Encoding: 35 64 35
Width: 1894
VWidth: 1024
Flags: W
LayerCount: 2
Fore
SplineSet
1202 283 m 0,0,-1
 1290 872 l 0,1,2
 1184 915 1184 915 1081 915 c 0,3,4
 981 915 981 915 900 853 c 0,5,6
 819 791 819 791 774 675 c 0,7,8
 729 559 729 559 729 406 c 0,9,10
 729 185 729 185 905 184 c 0,11,12
 987 184 987 184 1065 207.5 c 0,13,14
 1143 231 1143 231 1202 283 c 0,0,-1
104 -27 m 0,15,16
 104 8 104 8 113 78 c 0,17,-1
 270 1067 l 0,18,19
 307 1288 307 1288 436 1384.5 c 0,20,21
 565 1481 565 1481 799 1481 c 0,22,-1
 1559 1481 l 0,23,24
 1741 1481 1741 1481 1834 1384.5 c 0,25,26
 1927 1288 1927 1288 1927 1126 c 0,27,28
 1927 1071 1927 1071 1917 995 c 0,29,-1
 1825 379 l 0,30,31
 1800 215 1800 215 1689.5 107.5 c 0,32,33
 1579 0 1579 0 1382 0 c 0,34,-1
 1221 0 l 0,35,-1
 1182 117 l 0,36,37
 1143 68 1143 68 1042.5 28 c 0,38,39
 942 -12 942 -12 842 -12 c 0,40,41
 705 -12 705 -12 618.5 81 c 0,42,43
 532 174 532 174 532 377 c 0,44,45
 532 602 532 602 609 767 c 0,46,47
 686 932 686 932 814 1019 c 0,48,49
 942 1106 942 1106 1096 1106 c 0,50,51
 1344 1106 1344 1106 1503 969 c 0,52,-1
 1382 172 l 0,53,54
 1476 172 1476 172 1543 217 c 0,55,56
 1610 262 1610 262 1630 401 c 0,57,-1
 1722 1020 l 0,58,59
 1730 1086 1730 1086 1731 1108 c 0,60,61
 1731 1206 1731 1206 1670.5 1251 c 0,62,63
 1610 1296 1610 1296 1505 1296 c 0,64,-1
 762 1296 l 0,65,66
 615 1296 615 1296 548 1219.5 c 0,67,68
 481 1143 481 1143 463 1020 c 0,69,-1
 309 55 l 0,70,71
 303 22 303 22 303 -10 c 0,72,73
 303 -102 303 -102 358.5 -155.5 c 0,74,75
 414 -209 414 -209 522 -209 c 0,76,-1
 1311 -209 l 0,77,-1
 1288 -350 l 0,78,79
 1200 -366 1200 -366 1035 -378.5 c 0,80,81
 870 -391 870 -391 692 -391 c 0,82,-1
 504 -391 l 0,83,84
 299 -391 299 -391 201.5 -289.5 c 0,85,86
 104 -188 104 -188 104 -27 c 0,15,16
EndSplineSet
EndChar

StartChar: A
Encoding: 36 65 36
Width: 1411
VWidth: 1024
Flags: W
LayerCount: 2
Fore
SplineSet
1014 584 m 0,0,-1
 915 1292 l 0,1,-1
 586 584 l 0,2,-1
 1014 584 l 0,0,-1
793 1511 m 0,3,-1
 1112 1511 l 0,4,-1
 1358 0 l 0,5,-1
 1096 0 l 0,6,-1
 1038 356 l 0,7,-1
 489 356 l 0,8,-1
 317 0 l 0,9,-1
 55 0 l 0,10,-1
 793 1511 l 0,3,-1
EndSplineSet
EndChar

StartChar: B
Encoding: 37 66 37
Width: 1286
VWidth: 1024
Flags: W
LayerCount: 2
Fore
SplineSet
748 227 m 0,0,1
 869 227 869 227 928 279.5 c 0,2,3
 987 332 987 332 1010 444 c 0,4,5
 1014 469 1014 469 1014 510 c 0,6,7
 1014 592 1014 592 963.5 636 c 0,8,9
 913 680 913 680 817 680 c 0,10,-1
 496 680 l 0,11,-1
 424 227 l 0,12,-1
 748 227 l 0,0,1
846 874 m 0,13,14
 1018 874 1018 874 1059 1059 c 0,15,16
 1069 1114 1069 1114 1069 1143 c 0,17,18
 1069 1217 1069 1217 1023 1250.5 c 0,19,20
 977 1284 977 1284 887 1284 c 0,21,-1
 592 1284 l 0,22,-1
 526 874 l 0,23,-1
 846 874 l 0,13,14
373 1511 m 0,24,-1
 938 1511 l 0,25,26
 1145 1511 1145 1511 1232 1433.5 c 0,27,28
 1319 1356 1319 1356 1319 1208 c 0,29,30
 1319 1153 1319 1153 1311 1104 c 0,31,32
 1293 981 1293 981 1218 897 c 0,33,34
 1143 813 1143 813 1032 788 c 0,35,36
 1253 727 1253 727 1253 485 c 0,37,38
 1253 422 1253 422 1241 362 c 0,39,40
 1208 174 1208 174 1077 87 c 0,41,42
 946 0 946 0 715 0 c 0,43,-1
 135 0 l 0,44,-1
 373 1511 l 0,24,-1
EndSplineSet
EndChar

StartChar: C
Encoding: 38 67 38
Width: 1210
VWidth: 1024
Flags: W
LayerCount: 2
Fore
SplineSet
201 487 m 0,0,1
 201 632 201 632 227 799 c 0,2,3
 284 1166 284 1166 432 1345 c 0,4,5
 580 1524 580 1524 858 1524 c 0,6,7
 1110 1524 1110 1524 1337 1448 c 0,8,-1
 1305 1249 l 0,9,10
 1092 1296 1092 1296 901 1296 c 0,11,12
 780 1296 780 1296 700.5 1249 c 0,13,14
 621 1202 621 1202 567.5 1083.5 c 0,15,16
 514 965 514 965 479 750 c 0,17,18
 452 596 452 596 453 485 c 0,19,20
 453 342 453 342 518.5 278.5 c 0,21,22
 584 215 584 215 741 215 c 0,23,24
 872 215 872 215 960.5 221 c 0,25,26
 1049 227 1049 227 1145 242 c 0,27,-1
 1112 43 l 0,28,29
 938 -12 938 -12 674 -12 c 0,30,31
 201 -13 201 -13 201 487 c 0,0,1
EndSplineSet
EndChar

StartChar: D
Encoding: 39 68 39
Width: 1396
VWidth: 1024
Flags: W
LayerCount: 2
Fore
SplineSet
721 227 m 0,0,1
 909 227 909 227 1011.5 363.5 c 0,2,3
 1114 500 1114 500 1155 758 c 0,4,5
 1178 903 1178 903 1178 977 c 0,6,7
 1178 1141 1178 1141 1110 1212.5 c 0,8,9
 1042 1284 1042 1284 874 1284 c 0,10,-1
 590 1284 l 0,11,-1
 424 227 l 0,12,-1
 721 227 l 0,0,1
373 1511 m 0,13,-1
 936 1511 l 0,14,15
 1210 1511 1210 1511 1321 1379 c 0,16,17
 1432 1247 1432 1247 1432 985 c 0,18,19
 1432 856 1432 856 1409 715 c 0,20,21
 1352 355 1352 355 1180 177.5 c 0,22,23
 1008 0 1008 0 696 0 c 0,24,-1
 133 0 l 0,25,-1
 373 1511 l 0,13,-1
EndSplineSet
EndChar

StartChar: E
Encoding: 40 69 40
Width: 1204
VWidth: 1024
Flags: W
LayerCount: 2
Fore
SplineSet
176 244 m 0,0,1
 176 277 176 277 182 315 c 0,2,-1
 322 1182 l 0,3,4
 349 1356 349 1356 449 1433.5 c 0,5,6
 549 1511 549 1511 698 1511 c 0,7,8
 929 1511 929 1511 1321 1489 c 0,9,-1
 1288 1278 l 0,10,-1
 739 1278 l 0,11,12
 661 1278 661 1278 619.5 1240 c 0,13,14
 578 1202 578 1202 563 1118 c 0,15,-1
 524 870 l 0,16,-1
 1124 854 l 0,17,-1
 1094 655 l 0,18,-1
 487 641 l 0,19,-1
 449 379 l 0,20,21
 445 346 445 346 444 336 c 0,22,23
 444 277 444 277 479 251 c 0,24,25
 514 225 514 225 584 225 c 0,26,-1
 1124 225 l 0,27,-1
 1090 14 l 0,28,29
 705 -11 705 -11 485 -12 c 0,30,31
 358 -12 358 -12 267 44 c 0,32,33
 176 100 176 100 176 244 c 0,0,1
EndSplineSet
EndChar

StartChar: F
Encoding: 41 70 41
Width: 1146
VWidth: 1024
Flags: W
LayerCount: 2
Fore
SplineSet
322 1182 m 0,0,1
 375 1512 375 1512 694 1511 c 0,2,3
 954 1511 954 1511 1319 1489 c 0,4,-1
 1286 1278 l 0,5,-1
 735 1278 l 0,6,7
 657 1278 657 1278 617.5 1240 c 0,8,9
 578 1202 578 1202 563 1120 c 0,10,-1
 518 834 l 0,11,-1
 1120 817 l 0,12,-1
 1087 618 l 0,13,-1
 483 604 l 0,14,-1
 387 0 l 0,15,-1
 133 0 l 0,16,-1
 322 1182 l 0,0,1
EndSplineSet
EndChar

StartChar: G
Encoding: 42 71 42
Width: 1339
VWidth: 1024
Flags: W
LayerCount: 2
Fore
SplineSet
197 461 m 0,0,1
 197 600 197 600 229 811 c 0,2,3
 286 1165 286 1165 444 1345.5 c 0,4,5
 602 1526 602 1526 881 1526 c 0,6,7
 1047 1526 1047 1526 1164.5 1508.5 c 0,8,9
 1282 1491 1282 1491 1389 1458 c 0,10,-1
 1358 1262 l 0,11,12
 1159 1301 1159 1301 907 1300 c 0,13,14
 770 1300 770 1300 687 1244 c 0,15,16
 604 1188 604 1188 557 1071 c 0,17,18
 510 954 510 954 479 754 c 0,19,20
 452 588 452 588 453 477 c 0,21,22
 453 346 453 346 506 283.5 c 0,23,24
 559 221 559 221 676 221 c 0,25,26
 754 221 754 221 858.5 240.5 c 0,27,28
 963 260 963 260 1018 279 c 0,29,-1
 1073 629 l 0,30,-1
 768 629 l 0,31,-1
 799 827 l 0,32,33
 946 843 946 843 1143 844 c 0,34,35
 1256 844 1256 844 1350 840 c 0,36,-1
 1217 0 l 0,37,-1
 1028 0 l 0,38,-1
 1008 104 l 0,39,40
 940 67 940 67 810 27.5 c 0,41,42
 680 -12 680 -12 588 -12 c 0,43,44
 377 -12 377 -12 287 100.5 c 0,45,46
 197 213 197 213 197 461 c 0,0,1
EndSplineSet
EndChar

StartChar: H
Encoding: 43 72 43
Width: 1396
VWidth: 1024
Flags: W
LayerCount: 2
Fore
SplineSet
373 1511 m 0,0,-1
 627 1511 l 0,1,-1
 522 858 l 0,2,-1
 1157 858 l 0,3,-1
 1262 1511 l 0,4,-1
 1516 1511 l 0,5,-1
 1276 0 l 0,6,-1
 1022 0 l 0,7,-1
 1122 631 l 0,8,-1
 487 631 l 0,9,-1
 387 0 l 0,10,-1
 133 0 l 0,11,-1
 373 1511 l 0,0,-1
EndSplineSet
EndChar

StartChar: I
Encoding: 44 73 44
Width: 522
VWidth: 1024
Flags: W
LayerCount: 2
Fore
SplineSet
373 1511 m 0,0,-1
 627 1511 l 0,1,-1
 387 0 l 0,2,-1
 133 0 l 0,3,-1
 373 1511 l 0,0,-1
EndSplineSet
EndChar

StartChar: J
Encoding: 45 74 45
Width: 772
VWidth: 1024
Flags: W
LayerCount: 2
Fore
SplineSet
68 35 m 0,0,-1
 100 233 l 0,1,2
 170 219 170 219 258 219 c 0,3,4
 354 219 354 219 406.5 267 c 0,5,6
 459 315 459 315 475 418 c 0,7,-1
 649 1511 l 0,8,-1
 903 1511 l 0,9,-1
 721 367 l 0,10,11
 688 164 688 164 588.5 76 c 0,12,13
 489 -12 489 -12 299 -12 c 0,14,15
 233 -12 233 -12 169.5 1 c 0,16,17
 106 14 106 14 68 35 c 0,0,-1
EndSplineSet
EndChar

StartChar: K
Encoding: 46 75 46
Width: 1282
VWidth: 1024
Flags: W
LayerCount: 2
Fore
SplineSet
373 1511 m 0,0,-1
 627 1511 l 0,1,-1
 526 872 l 0,2,-1
 748 872 l 0,3,-1
 1198 1511 l 0,4,-1
 1458 1511 l 0,5,-1
 936 754 l 0,6,-1
 1251 0 l 0,7,-1
 997 0 l 0,8,-1
 727 645 l 0,9,-1
 489 645 l 0,10,-1
 387 0 l 0,11,-1
 133 0 l 0,12,-1
 373 1511 l 0,0,-1
EndSplineSet
EndChar

StartChar: L
Encoding: 47 76 47
Width: 1083
VWidth: 1024
Flags: W
LayerCount: 2
Fore
SplineSet
182 258 m 0,0,1
 182 301 182 301 188 346 c 0,2,-1
 373 1511 l 0,3,-1
 627 1511 l 0,4,-1
 449 379 l 0,5,6
 445 363 445 363 444 334 c 0,7,8
 444 277 444 277 478 252 c 0,9,10
 512 227 512 227 575 227 c 0,11,-1
 1073 227 l 0,12,-1
 1038 0 l 0,13,-1
 471 0 l 0,14,15
 182 0 182 0 182 258 c 0,0,1
EndSplineSet
EndChar

StartChar: M
Encoding: 48 77 48
Width: 1740
VWidth: 1024
Flags: W
LayerCount: 2
Fore
SplineSet
516 1511 m 0,0,-1
 754 1511 l 0,1,-1
 938 307 l 0,2,-1
 1503 1511 l 0,3,-1
 1739 1511 l 0,4,-1
 1677 0 l 0,5,-1
 1432 0 l 0,6,-1
 1479 1057 l 0,7,-1
 1006 0 l 0,8,-1
 768 0 l 0,9,-1
 631 1049 l 0,10,-1
 348 0 l 0,11,-1
 96 0 l 0,12,-1
 516 1511 l 0,0,-1
EndSplineSet
EndChar

StartChar: N
Encoding: 49 78 49
Width: 1400
VWidth: 1024
Flags: W
LayerCount: 2
Fore
SplineSet
373 1511 m 0,0,-1
 578 1511 l 0,1,-1
 1094 430 l 0,2,-1
 1266 1511 l 0,3,-1
 1520 1511 l 0,4,-1
 1280 0 l 0,5,-1
 1075 0 l 0,6,-1
 559 1083 l 0,7,-1
 387 0 l 0,8,-1
 133 0 l 0,9,-1
 373 1511 l 0,0,-1
EndSplineSet
EndChar

StartChar: O
Encoding: 50 79 50
Width: 1419
VWidth: 1024
Flags: W
LayerCount: 2
Fore
SplineSet
1178 739 m 0,0,1
 1207 921 1207 921 1206 1032 c 0,2,3
 1206 1138 1206 1138 1174.5 1195.5 c 0,4,5
 1143 1253 1143 1253 1080.5 1274.5 c 0,6,7
 1018 1296 1018 1296 915 1296 c 0,8,9
 780 1296 780 1296 699 1252 c 0,10,11
 618 1208 618 1208 566 1091.5 c 0,12,13
 514 975 514 975 479 754 c 0,14,15
 448 566 448 566 449 467 c 0,16,17
 449 367 449 367 479.5 312.5 c 0,18,19
 510 258 510 258 573.5 237.5 c 0,20,21
 637 217 637 217 745 217 c 0,22,23
 881 217 881 217 962.5 264 c 0,24,25
 1044 311 1044 311 1094.5 423 c 0,26,27
 1145 535 1145 535 1178 739 c 0,0,1
195 457 m 0,28,29
 195 586 195 586 225 791 c 0,30,31
 270 1080 270 1080 358 1237.5 c 0,32,33
 446 1395 446 1395 587.5 1459.5 c 0,34,35
 729 1524 729 1524 952 1524 c 0,36,37
 1116 1524 1116 1524 1225.5 1483 c 0,38,39
 1335 1442 1335 1442 1397.5 1335.5 c 0,40,41
 1460 1229 1460 1229 1460 1034 c 0,42,43
 1460 891 1460 891 1430 702 c 0,44,45
 1383 409 1383 409 1295.5 255.5 c 0,46,47
 1208 102 1208 102 1070 45 c 0,48,49
 932 -12 932 -12 705 -12 c 0,50,51
 537 -12 537 -12 427 25.5 c 0,52,53
 317 63 317 63 256 166.5 c 0,54,55
 195 270 195 270 195 457 c 0,28,29
EndSplineSet
EndChar

StartChar: P
Encoding: 51 80 51
Width: 1241
VWidth: 1024
Flags: W
LayerCount: 2
Fore
SplineSet
821 729 m 0,0,1
 921 729 921 729 988 796.5 c 0,2,3
 1055 864 1055 864 1075 1001 c 0,4,5
 1087 1075 1087 1075 1087 1104 c 0,6,7
 1087 1200 1087 1200 1044 1242 c 0,8,9
 1001 1284 1001 1284 918 1284 c 0,10,-1
 590 1284 l 0,11,-1
 502 729 l 0,12,-1
 821 729 l 0,0,1
373 1511 m 0,13,-1
 967 1511 l 0,14,15
 1143 1511 1143 1511 1244.5 1424 c 0,16,17
 1346 1337 1346 1337 1346 1128 c 0,18,19
 1346 1081 1346 1081 1327 975 c 0,20,21
 1288 721 1288 721 1157 611.5 c 0,22,23
 1026 502 1026 502 852 502 c 0,24,25
 676 502 676 502 473 532 c 0,26,-1
 387 0 l 0,27,-1
 133 0 l 0,28,-1
 373 1511 l 0,13,-1
EndSplineSet
EndChar

StartChar: Q
Encoding: 52 81 52
Width: 1419
VWidth: 1024
Flags: W
LayerCount: 2
Fore
SplineSet
657 -78 m 0,0,-1
 834 -78 l 0,1,2
 844 -146 844 -146 886 -174.5 c 0,3,4
 928 -203 928 -203 1008 -203 c 0,5,6
 1074 -203 1074 -203 1167 -182 c 0,7,-1
 1139 -369 l 0,8,9
 1084 -383 1084 -383 1010 -383 c 0,10,11
 852 -383 852 -383 757 -308 c 0,12,13
 662 -233 662 -233 657 -78 c 0,0,-1
1178 739 m 0,14,15
 1207 921 1207 921 1206 1032 c 0,16,17
 1206 1138 1206 1138 1174.5 1195.5 c 0,18,19
 1143 1253 1143 1253 1080.5 1274.5 c 0,20,21
 1018 1296 1018 1296 915 1296 c 0,22,23
 780 1296 780 1296 699 1252 c 0,24,25
 618 1208 618 1208 566 1091.5 c 0,26,27
 514 975 514 975 479 754 c 0,28,29
 448 566 448 566 449 467 c 0,30,31
 449 367 449 367 479.5 312.5 c 0,32,33
 510 258 510 258 573.5 237.5 c 0,34,35
 637 217 637 217 745 217 c 0,36,37
 881 217 881 217 962.5 264 c 0,38,39
 1044 311 1044 311 1094.5 423 c 0,40,41
 1145 535 1145 535 1178 739 c 0,14,15
195 457 m 0,42,43
 195 586 195 586 225 791 c 0,44,45
 270 1080 270 1080 358 1237.5 c 0,46,47
 446 1395 446 1395 587.5 1459.5 c 0,48,49
 729 1524 729 1524 952 1524 c 0,50,51
 1116 1524 1116 1524 1225.5 1483 c 0,52,53
 1335 1442 1335 1442 1397.5 1335.5 c 0,54,55
 1460 1229 1460 1229 1460 1034 c 0,56,57
 1460 891 1460 891 1430 702 c 0,58,59
 1383 409 1383 409 1295.5 255.5 c 0,60,61
 1208 102 1208 102 1070 45 c 0,62,63
 932 -12 932 -12 705 -12 c 0,64,65
 537 -12 537 -12 427 25.5 c 0,66,67
 317 63 317 63 256 166.5 c 0,68,69
 195 270 195 270 195 457 c 0,42,43
EndSplineSet
EndChar

StartChar: R
Encoding: 53 82 53
Width: 1286
VWidth: 1024
Flags: W
LayerCount: 2
Fore
SplineSet
813 786 m 0,0,1
 924 786 924 786 985.5 840.5 c 0,2,3
 1047 895 1047 895 1069 1036 c 0,4,5
 1073 1063 1073 1063 1073 1110 c 0,6,7
 1073 1284 1073 1284 891 1284 c 0,8,-1
 590 1284 l 0,9,-1
 512 786 l 0,10,-1
 813 786 l 0,0,1
373 1511 m 0,11,-1
 942 1511 l 0,12,13
 1335 1511 1335 1511 1335 1147 c 0,14,15
 1335 1096 1335 1096 1325 1018 c 0,16,17
 1294 821 1294 821 1206 738 c 0,18,19
 1118 655 1118 655 1010 623 c 0,20,-1
 1202 0 l 0,21,-1
 944 0 l 0,22,-1
 776 582 l 0,23,-1
 481 588 l 0,24,-1
 387 0 l 0,25,-1
 133 0 l 0,26,-1
 373 1511 l 0,11,-1
EndSplineSet
EndChar

StartChar: S
Encoding: 54 83 54
Width: 1169
VWidth: 1024
Flags: W
LayerCount: 2
Fore
SplineSet
133 33 m 0,0,-1
 164 231 l 0,1,2
 357 215 357 215 621 215 c 0,3,4
 766 215 766 215 836.5 253 c 0,5,6
 907 291 907 291 924 393 c 0,7,-1
 934 463 l 0,8,9
 938 479 938 479 938 510 c 0,10,11
 938 576 938 576 894 604.5 c 0,12,13
 850 633 850 633 752 633 c 0,14,-1
 608 633 l 0,15,16
 444 633 444 633 354 713 c 0,17,18
 264 793 264 793 264 934 c 0,19,20
 264 975 264 975 270 1018 c 0,21,-1
 291 1143 l 0,22,23
 324 1352 324 1352 454 1438 c 0,24,25
 584 1524 584 1524 811 1524 c 0,26,27
 909 1524 909 1524 1038 1511.5 c 0,28,29
 1167 1499 1167 1499 1266 1477 c 0,30,-1
 1235 1278 l 0,31,32
 1049 1294 1049 1294 782 1294 c 0,33,34
 667 1294 667 1294 606 1256.5 c 0,35,36
 545 1219 545 1219 528 1116 c 0,37,-1
 518 1047 l 0,38,39
 512 1020 512 1020 512 995 c 0,40,41
 512 929 512 929 549 901.5 c 0,42,43
 586 874 586 874 668 874 c 0,44,-1
 817 874 l 0,45,46
 997 874 997 874 1091.5 793.5 c 0,47,48
 1186 713 1186 713 1186 571 c 0,49,50
 1186 532 1186 532 1180 489 c 0,51,-1
 1157 348 l 0,52,53
 1128 155 1128 155 1001 71.5 c 0,54,55
 874 -12 874 -12 623 -12 c 0,56,57
 481 -12 481 -12 350 0 c 0,58,59
 219 12 219 12 133 33 c 0,0,-1
EndSplineSet
EndChar

StartChar: T
Encoding: 55 84 55
Width: 1245
VWidth: 1024
Flags: W
LayerCount: 2
Fore
SplineSet
688 1284 m 0,0,-1
 252 1284 l 0,1,-1
 289 1511 l 0,2,-1
 1415 1511 l 0,3,-1
 1378 1284 l 0,4,-1
 942 1284 l 0,5,-1
 739 0 l 0,6,-1
 485 0 l 0,7,-1
 688 1284 l 0,0,-1
EndSplineSet
EndChar

StartChar: U
Encoding: 56 85 56
Width: 1400
VWidth: 1024
Flags: W
LayerCount: 2
Fore
SplineSet
217 432 m 0,0,1
 217 538 217 538 244 692 c 0,2,-1
 373 1511 l 0,3,-1
 627 1511 l 0,4,-1
 492 655 l 0,5,6
 472 503 472 503 471 451 c 0,7,8
 471 326 471 326 534.5 270.5 c 0,9,10
 598 215 598 215 735 215 c 0,11,12
 848 215 848 215 919.5 250 c 0,13,14
 991 285 991 285 1040.5 380 c 0,15,16
 1090 475 1090 475 1118 655 c 0,17,-1
 1253 1511 l 0,18,-1
 1507 1511 l 0,19,-1
 1366 618 l 0,20,21
 1325 356 1325 356 1239 220 c 0,22,23
 1153 84 1153 84 1027 36 c 0,24,25
 901 -12 901 -12 702 -12 c 0,26,27
 457 -12 457 -12 337 92.5 c 0,28,29
 217 197 217 197 217 432 c 0,0,1
EndSplineSet
EndChar

StartChar: V
Encoding: 57 86 57
Width: 1411
VWidth: 1024
Flags: W
LayerCount: 2
Fore
SplineSet
295 1511 m 0,0,-1
 557 1511 l 0,1,-1
 745 276 l 0,2,-1
 1337 1511 l 0,3,-1
 1597 1511 l 0,4,-1
 860 0 l 0,5,-1
 541 0 l 0,6,-1
 295 1511 l 0,0,-1
EndSplineSet
EndChar

StartChar: W
Encoding: 58 87 58
Width: 2091
VWidth: 1024
Flags: W
LayerCount: 2
Fore
SplineSet
297 1511 m 0,0,-1
 559 1511 l 0,1,-1
 676 371 l 0,2,-1
 1143 1511 l 0,3,-1
 1380 1511 l 0,4,-1
 1475 373 l 0,5,-1
 1964 1511 l 0,6,-1
 2228 1511 l 0,7,-1
 1577 0 l 0,8,-1
 1315 0 l 0,9,-1
 1202 1139 l 0,10,-1
 719 0 l 0,11,-1
 457 0 l 0,12,-1
 297 1511 l 0,0,-1
EndSplineSet
EndChar

StartChar: X
Encoding: 59 88 59
Width: 1312
VWidth: 1024
Flags: W
LayerCount: 2
Fore
SplineSet
920 739 m 0,0,-1
 1272 0 l 0,1,-1
 995 0 l 0,2,-1
 741 547 l 0,3,-1
 334 0 l 0,4,-1
 49 0 l 0,5,-1
 637 766 l 0,6,-1
 283 1511 l 0,7,-1
 561 1511 l 0,8,-1
 819 954 l 0,9,-1
 1237 1511 l 0,10,-1
 1522 1511 l 0,11,-1
 920 739 l 0,0,-1
EndSplineSet
EndChar

StartChar: Y
Encoding: 60 89 60
Width: 1292
VWidth: 1024
Flags: W
LayerCount: 2
Fore
SplineSet
578 461 m 0,0,-1
 276 1511 l 0,1,-1
 555 1511 l 0,2,-1
 745 737 l 0,3,-1
 1206 1511 l 0,4,-1
 1495 1511 l 0,5,-1
 831 461 l 0,6,-1
 758 0 l 0,7,-1
 504 0 l 0,8,-1
 578 461 l 0,0,-1
EndSplineSet
EndChar

StartChar: Z
Encoding: 61 90 61
Width: 1157
VWidth: 1024
Flags: W
LayerCount: 2
Fore
SplineSet
109 215 m 0,0,-1
 975 1284 l 0,1,-1
 276 1284 l 0,2,-1
 313 1511 l 0,3,-1
 1303 1511 l 0,4,-1
 1268 1296 l 0,5,-1
 401 227 l 0,6,-1
 1118 227 l 0,7,-1
 1083 0 l 0,8,-1
 74 0 l 0,9,-1
 109 215 l 0,0,-1
EndSplineSet
EndChar

StartChar: bracketleft
Encoding: 62 91 62
Width: 690
VWidth: 1024
Flags: W
LayerCount: 2
Fore
SplineSet
141 -133 m 0,0,1
 141 -106 141 -106 152 -18 c 0,2,-1
 367 1335 l 0,3,4
 394 1511 394 1511 492 1617.5 c 0,5,6
 590 1724 590 1724 778 1724 c 0,7,-1
 928 1724 l 0,8,-1
 897 1520 l 0,9,-1
 819 1520 l 0,10,11
 651 1520 651 1520 614 1300 c 0,12,-1
 408 -6 l 0,13,14
 402 -43 402 -43 401 -74 c 0,15,16
 401 -226 401 -226 541 -225 c 0,17,-1
 621 -225 l 0,18,-1
 588 -430 l 0,19,-1
 438 -430 l 0,20,21
 274 -430 274 -430 207.5 -346 c 0,22,23
 141 -262 141 -262 141 -133 c 0,0,1
EndSplineSet
EndChar

StartChar: backslash
Encoding: 63 92 63
Width: 903
VWidth: 1024
Flags: W
LayerCount: 2
Fore
SplineSet
287 1577 m 0,0,-1
 541 1577 l 0,1,-1
 844 -147 l 0,2,-1
 590 -147 l 0,3,-1
 287 1577 l 0,0,-1
EndSplineSet
EndChar

StartChar: bracketright
Encoding: 64 93 64
Width: 690
VWidth: 1024
Flags: W
LayerCount: 2
Fore
SplineSet
0 -225 m 0,0,-1
 78 -225 l 0,1,2
 248 -225 248 -225 283 -6 c 0,3,-1
 489 1300 l 0,4,5
 495 1341 495 1341 496 1370 c 0,6,7
 496 1520 496 1520 356 1520 c 0,8,-1
 276 1520 l 0,9,-1
 309 1724 l 0,10,-1
 459 1724 l 0,11,12
 758 1724 758 1724 758 1444 c 0,13,14
 758 1383 758 1383 748 1335 c 0,15,-1
 535 -18 l 0,16,17
 508 -186 508 -186 415 -308 c 0,18,19
 322 -430 322 -430 119 -430 c 0,20,-1
 -31 -430 l 0,21,-1
 0 -225 l 0,0,-1
EndSplineSet
EndChar

StartChar: asciicircum
Encoding: 65 94 65
Width: 798
VWidth: 1024
Flags: W
LayerCount: 2
Fore
SplineSet
539 1366 m 0,0,-1
 715 1366 l 0,1,-1
 881 1087 l 0,2,-1
 731 1087 l 0,3,-1
 602 1245 l 0,4,-1
 414 1087 l 0,5,-1
 264 1087 l 0,6,-1
 539 1366 l 0,0,-1
EndSplineSet
EndChar

StartChar: underscore
Encoding: 66 95 66
Width: 1247
VWidth: 1024
Flags: W
LayerCount: 2
Fore
SplineSet
-27 -168 m 0,0,-1
 1221 -168 l 0,1,-1
 1190 -373 l 0,2,-1
 -57 -373 l 0,3,-1
 -27 -168 l 0,0,-1
EndSplineSet
EndChar

StartChar: grave
Encoding: 67 96 67
Width: 462
VWidth: 1024
Flags: W
LayerCount: 2
Fore
SplineSet
287 1577 m 0,0,-1
 494 1577 l 0,1,-1
 633 1292 l 0,2,-1
 483 1292 l 0,3,-1
 287 1577 l 0,0,-1
EndSplineSet
EndChar

StartChar: a
Encoding: 68 97 68
Width: 1163
VWidth: 1024
Flags: W
LayerCount: 2
Fore
SplineSet
836 279 m 0,0,-1
 928 862 l 0,1,2
 901 878 901 878 850 891.5 c 0,3,4
 799 905 799 905 741 905 c 0,5,6
 596 905 596 905 525.5 823 c 0,7,8
 455 741 455 741 426 565 c 0,9,10
 410 461 410 461 410 408 c 0,11,12
 410 308 410 308 454 250.5 c 0,13,14
 498 193 498 193 582 193 c 0,15,16
 651 193 651 193 708.5 215.5 c 0,17,18
 766 238 766 238 836 279 c 0,0,-1
156 362 m 0,19,20
 156 428 156 428 178 586 c 0,21,22
 221 856 221 856 357.5 983 c 0,23,24
 494 1110 494 1110 754 1110 c 0,25,26
 885 1110 885 1110 1007.5 1076 c 0,27,28
 1130 1042 1130 1042 1202 983 c 0,29,-1
 1047 0 l 0,30,-1
 823 0 l 0,31,-1
 811 113 l 0,32,33
 758 70 758 70 656.5 29 c 0,34,35
 555 -12 555 -12 463 -12 c 0,36,37
 328 -12 328 -12 242 81 c 0,38,39
 156 174 156 174 156 362 c 0,19,20
EndSplineSet
EndChar

StartChar: b
Encoding: 69 98 69
Width: 1181
VWidth: 1024
Flags: W
LayerCount: 2
Fore
SplineSet
930 549 m 0,0,1
 944 645 944 645 944 692 c 0,2,3
 944 805 944 805 898 855 c 0,4,5
 852 905 852 905 774 905 c 0,6,7
 711 905 711 905 641 886.5 c 0,8,9
 571 868 571 868 508 836 c 0,10,-1
 418 268 l 0,11,12
 469 231 469 231 525.5 212 c 0,13,14
 582 193 582 193 659 193 c 0,15,16
 772 193 772 193 837.5 277.5 c 0,17,18
 903 362 903 362 930 549 c 0,0,1
393 106 m 0,19,-1
 344 0 l 0,20,-1
 121 0 l 0,21,-1
 369 1563 l 0,22,-1
 623 1563 l 0,23,-1
 537 1018 l 0,24,25
 613 1059 613 1059 702 1084.5 c 0,26,27
 791 1110 791 1110 856 1110 c 0,28,29
 1014 1110 1014 1110 1105 1011.5 c 0,30,31
 1196 913 1196 913 1196 731 c 0,32,33
 1196 649 1196 649 1171 483 c 0,34,35
 1136 250 1136 250 1021.5 119 c 0,36,37
 907 -12 907 -12 733 -12 c 0,38,39
 639 -12 639 -12 547 21.5 c 0,40,41
 455 55 455 55 393 106 c 0,19,-1
EndSplineSet
EndChar

StartChar: c
Encoding: 70 99 70
Width: 976
VWidth: 1024
Flags: W
LayerCount: 2
Fore
SplineSet
162 397 m 0,0,1
 162 477 162 477 180 592 c 0,2,3
 262 1110 262 1110 690 1110 c 0,4,5
 842 1110 842 1110 1061 1061 c 0,6,-1
 1036 913 l 0,7,-1
 745 913 l 0,8,9
 610 913 610 913 535.5 827 c 0,10,11
 461 741 461 741 428 547 c 0,12,13
 414 463 414 463 414 420 c 0,14,15
 414 289 414 289 469 234.5 c 0,16,17
 524 180 524 180 637 180 c 0,18,-1
 940 180 l 0,19,-1
 918 37 l 0,20,21
 760 -12 760 -12 557 -12 c 0,22,23
 365 -12 365 -12 263.5 80 c 0,24,25
 162 172 162 172 162 397 c 0,0,1
EndSplineSet
EndChar

StartChar: d
Encoding: 71 100 71
Width: 1171
VWidth: 1024
Flags: W
LayerCount: 2
Fore
SplineSet
840 279 m 0,0,-1
 932 862 l 0,1,2
 852 905 852 905 743 905 c 0,3,4
 651 905 651 905 590.5 872.5 c 0,5,6
 530 840 530 840 491.5 763 c 0,7,8
 453 686 453 686 428 549 c 0,9,10
 414 475 414 475 414 406 c 0,11,12
 414 293 414 293 460 243 c 0,13,14
 506 193 506 193 580 193 c 0,15,16
 649 193 649 193 709.5 215.5 c 0,17,18
 770 238 770 238 840 279 c 0,0,-1
160 362 m 0,19,20
 160 468 160 468 182 594 c 0,21,22
 215 768 215 768 272.5 878.5 c 0,23,24
 330 989 330 989 440.5 1049.5 c 0,25,26
 551 1110 551 1110 733 1110 c 0,27,28
 868 1110 868 1110 967 1071 c 0,29,-1
 1042 1563 l 0,30,-1
 1296 1563 l 0,31,-1
 1049 0 l 0,32,-1
 825 0 l 0,33,-1
 813 113 l 0,34,35
 743 60 743 60 653 24 c 0,36,37
 563 -12 563 -12 473 -12 c 0,38,39
 326 -12 326 -12 243 86 c 0,40,41
 160 184 160 184 160 362 c 0,19,20
EndSplineSet
EndChar

StartChar: e
Encoding: 72 101 72
Width: 1122
VWidth: 1024
Flags: W
LayerCount: 2
Fore
SplineSet
924 768 m 0,0,1
 924 846 924 846 876.5 882 c 0,2,3
 829 918 829 918 733 918 c 0,4,5
 596 918 596 918 528.5 836 c 0,6,7
 461 754 461 754 434 588 c 0,8,9
 514 574 514 574 602 573 c 0,10,11
 766 573 766 573 845 617.5 c 0,12,13
 924 662 924 662 924 768 c 0,0,1
162 389 m 0,14,15
 162 471 162 471 182 606 c 0,16,17
 221 866 221 866 361.5 989 c 0,18,19
 502 1112 502 1112 750 1112 c 0,20,21
 938 1112 938 1112 1048.5 1041.5 c 0,22,23
 1159 971 1159 971 1159 795 c 0,24,25
 1159 586 1159 586 1028 507 c 0,26,27
 897 428 897 428 672 428 c 0,28,29
 516 428 516 428 418 453 c 0,30,31
 412 408 412 408 412 360 c 0,32,33
 412 264 412 264 479.5 220 c 0,34,35
 547 176 547 176 698 176 c 0,36,-1
 1042 176 l 0,37,-1
 1018 27 l 0,38,39
 828 -12 828 -12 600 -12 c 0,40,41
 369 -12 369 -12 265.5 88 c 0,42,43
 162 188 162 188 162 389 c 0,14,15
EndSplineSet
EndChar

StartChar: f
Encoding: 73 102 73
Width: 786
VWidth: 1024
Flags: W
LayerCount: 2
Fore
SplineSet
338 891 m 0,0,-1
 180 891 l 0,1,-1
 207 1055 l 0,2,-1
 371 1098 l 0,3,-1
 399 1262 l 0,4,5
 424 1416 424 1416 510 1495.5 c 0,6,7
 596 1575 596 1575 774 1575 c 0,8,9
 905 1575 905 1575 1020 1556 c 0,10,-1
 991 1372 l 0,11,-1
 817 1372 l 0,12,13
 729 1372 729 1372 690 1330 c 0,14,15
 651 1288 651 1288 639 1194 c 0,16,-1
 625 1098 l 0,17,-1
 915 1098 l 0,18,-1
 883 891 l 0,19,-1
 592 891 l 0,20,-1
 451 0 l 0,21,-1
 199 0 l 0,22,-1
 338 891 l 0,0,-1
EndSplineSet
EndChar

StartChar: g
Encoding: 74 103 74
Width: 1173
VWidth: 1024
Flags: W
LayerCount: 2
Fore
SplineSet
838 279 m 0,0,-1
 934 891 l 0,1,2
 916 893 916 893 852 899 c 0,3,4
 788 905 788 905 733 905 c 0,5,6
 608 905 608 905 534.5 827.5 c 0,7,8
 461 750 461 750 432 580 c 0,9,10
 412 459 412 459 412 401 c 0,11,12
 412 297 412 297 456 245 c 0,13,14
 500 193 500 193 575 193 c 0,15,16
 643 193 643 193 703.5 214.5 c 0,17,18
 764 236 764 236 838 279 c 0,0,-1
84 -463 m 0,19,-1
 113 -287 l 0,20,-1
 453 -287 l 0,21,22
 748 -287 748 -287 780 -84 c 0,23,-1
 813 113 l 0,24,25
 741 58 741 58 640 23 c 0,26,27
 539 -12 539 -12 451 -12 c 0,28,29
 316 -12 316 -12 238 91.5 c 0,30,31
 160 195 160 195 160 358 c 0,32,33
 160 448 160 448 184 608 c 0,34,35
 227 876 227 876 370.5 993 c 0,36,37
 514 1110 514 1110 756 1110 c 0,38,39
 893 1110 893 1110 1011.5 1092.5 c 0,40,41
 1130 1075 1130 1075 1214 1051 c 0,42,-1
 1028 -123 l 0,43,44
 971 -485 971 -485 489 -485 c 0,45,46
 430 -485 430 -485 367 -479 c 0,47,-1
 84 -463 l 0,19,-1
EndSplineSet
EndChar

StartChar: h
Encoding: 75 104 75
Width: 1198
VWidth: 1024
Flags: W
LayerCount: 2
Fore
SplineSet
369 1563 m 0,0,-1
 623 1563 l 0,1,-1
 528 983 l 0,2,3
 608 1040 608 1040 710.5 1076 c 0,4,5
 813 1112 813 1112 930 1112 c 0,6,7
 1204 1112 1204 1112 1204 840 c 0,8,9
 1204 781 1204 781 1196 721 c 0,10,-1
 1079 0 l 0,11,-1
 827 0 l 0,12,-1
 934 690 l 0,13,14
 940 721 940 721 940 745 c 0,15,16
 940 819 940 819 901 852 c 0,17,18
 862 885 862 885 791 885 c 0,19,20
 707 885 707 885 640 860.5 c 0,21,22
 573 836 573 836 500 784 c 0,23,-1
 375 0 l 0,24,-1
 121 0 l 0,25,-1
 369 1563 l 0,0,-1
EndSplineSet
EndChar

StartChar: i
Encoding: 76 105 76
Width: 491
VWidth: 1024
Flags: W
LayerCount: 2
Fore
SplineSet
293 1098 m 0,0,-1
 547 1098 l 0,1,-1
 373 0 l 0,2,-1
 119 0 l 0,3,-1
 293 1098 l 0,0,-1
322 1309 m 0,4,-1
 350 1495 l 0,5,6
 356 1536 356 1536 395 1536 c 0,7,-1
 588 1536 l 0,8,9
 606 1536 606 1536 613.5 1524.5 c 0,10,11
 621 1513 621 1513 616 1495 c 0,12,-1
 588 1309 l 0,13,14
 582 1272 582 1272 547 1272 c 0,15,-1
 354 1272 l 0,16,17
 338 1272 338 1272 328.5 1282 c 0,18,19
 319 1292 319 1292 322 1309 c 0,4,-1
EndSplineSet
EndChar

StartChar: j
Encoding: 77 106 77
Width: 491
VWidth: 1024
Flags: W
LayerCount: 2
Fore
SplineSet
293 1098 m 0,0,-1
 547 1098 l 0,1,-1
 371 -8 l 0,2,3
 342 -205 342 -205 229 -485 c 0,4,-1
 41 -485 l 0,5,-1
 293 1098 l 0,0,-1
322 1309 m 0,6,-1
 350 1495 l 0,7,8
 356 1536 356 1536 395 1536 c 0,9,-1
 588 1536 l 0,10,11
 606 1536 606 1536 613.5 1524.5 c 0,12,13
 621 1513 621 1513 616 1495 c 0,14,-1
 588 1309 l 0,15,16
 582 1272 582 1272 547 1272 c 0,17,-1
 354 1272 l 0,18,19
 338 1272 338 1272 328.5 1282 c 0,20,21
 319 1292 319 1292 322 1309 c 0,6,-1
EndSplineSet
EndChar

StartChar: k
Encoding: 78 107 78
Width: 1126
VWidth: 1024
Flags: W
LayerCount: 2
Fore
SplineSet
369 1563 m 0,0,-1
 623 1563 l 0,1,-1
 483 692 l 0,2,3
 647 710 647 710 757.5 807.5 c 0,4,5
 868 905 868 905 922 1098 c 0,6,-1
 1174 1098 l 0,7,8
 1070 725 1070 725 815 598 c 0,9,-1
 1114 0 l 0,10,-1
 852 0 l 0,11,-1
 600 520 l 0,12,13
 567 512 567 512 525 506 c 0,14,15
 483 500 483 500 453 500 c 0,16,-1
 375 0 l 0,17,-1
 121 0 l 0,18,-1
 369 1563 l 0,0,-1
EndSplineSet
EndChar

StartChar: l
Encoding: 79 108 79
Width: 638
VWidth: 1024
Flags: W
LayerCount: 2
Fore
SplineSet
170 236 m 0,0,1
 170 308 170 308 180 379 c 0,2,-1
 369 1563 l 0,3,-1
 623 1563 l 0,4,-1
 446 461 l 0,5,6
 444 449 444 449 437 396.5 c 0,7,8
 430 344 430 344 430 309 c 0,9,10
 430 252 430 252 457.5 226.5 c 0,11,12
 485 201 485 201 543 195 c 0,13,-1
 631 182 l 0,14,-1
 600 0 l 0,15,-1
 473 0 l 0,16,17
 326 0 326 0 248 62.5 c 0,18,19
 170 125 170 125 170 236 c 0,0,1
EndSplineSet
EndChar

StartChar: m
Encoding: 80 109 80
Width: 1904
VWidth: 1024
Flags: W
LayerCount: 2
Fore
SplineSet
293 1098 m 0,0,-1
 502 1098 l 0,1,-1
 528 983 l 0,2,3
 721 1112 721 1112 930 1112 c 0,4,5
 1032 1112 1032 1112 1095.5 1072 c 0,6,7
 1159 1032 1159 1032 1196 948 c 0,8,9
 1286 1028 1286 1028 1398.5 1070 c 0,10,11
 1511 1112 1511 1112 1618 1112 c 0,12,13
 1909 1112 1909 1112 1909 848 c 0,14,15
 1909 768 1909 768 1896 700 c 0,16,-1
 1786 0 l 0,17,-1
 1532 0 l 0,18,-1
 1642 694 l 0,19,20
 1646 723 1646 723 1647 743 c 0,21,22
 1647 884 1647 884 1489 885 c 0,23,24
 1411 885 1411 885 1341.5 857 c 0,25,26
 1272 829 1272 829 1194 776 c 0,27,28
 1196 739 1196 739 1188 682 c 0,29,-1
 1079 0 l 0,30,-1
 827 0 l 0,31,-1
 934 684 l 0,32,33
 940 725 940 725 940 745 c 0,34,35
 940 884 940 884 784 885 c 0,36,37
 704 885 704 885 643 860.5 c 0,38,39
 582 836 582 836 500 784 c 0,40,-1
 375 0 l 0,41,-1
 121 0 l 0,42,-1
 293 1098 l 0,0,-1
EndSplineSet
EndChar

StartChar: n
Encoding: 81 110 81
Width: 1198
VWidth: 1024
Flags: W
LayerCount: 2
Fore
SplineSet
293 1098 m 0,0,-1
 502 1098 l 0,1,-1
 528 983 l 0,2,3
 716 1112 716 1112 926 1112 c 0,4,5
 1063 1112 1063 1112 1133.5 1043.5 c 0,6,7
 1204 975 1204 975 1204 860 c 0,8,9
 1204 778 1204 778 1184 647 c 0,10,-1
 1079 0 l 0,11,-1
 827 0 l 0,12,-1
 928 639 l 0,13,14
 940 717 940 717 940 748 c 0,15,16
 940 885 940 885 784 885 c 0,17,18
 706 885 706 885 639.5 859.5 c 0,19,20
 573 834 573 834 500 784 c 0,21,-1
 375 0 l 0,22,-1
 121 0 l 0,23,-1
 293 1098 l 0,0,-1
EndSplineSet
EndChar

StartChar: o
Encoding: 82 111 82
Width: 1169
VWidth: 1024
Flags: W
LayerCount: 2
Fore
SplineSet
909 532 m 0,0,1
 927 671 927 671 928 725 c 0,2,3
 928 825 928 825 882 867 c 0,4,5
 836 909 836 909 725 909 c 0,6,7
 629 909 629 909 573.5 878.5 c 0,8,9
 518 848 518 848 484.5 768 c 0,10,11
 451 688 451 688 426 532 c 0,12,13
 412 426 412 426 412 377 c 0,14,15
 412 271 412 271 461 232 c 0,16,17
 510 193 510 193 612 193 c 0,18,19
 707 193 707 193 762 219.5 c 0,20,21
 817 246 817 246 852 318.5 c 0,22,23
 887 391 887 391 909 532 c 0,0,1
162 367 m 0,24,25
 162 467 162 467 178 571 c 0,26,27
 213 788 213 788 281.5 905 c 0,28,29
 350 1022 350 1022 462.5 1066 c 0,30,31
 575 1110 575 1110 760 1110 c 0,32,33
 924 1110 924 1110 1015 1067 c 0,34,35
 1106 1024 1106 1024 1143 939 c 0,36,37
 1180 854 1180 854 1180 715 c 0,38,39
 1180 617 1180 617 1161 496 c 0,40,41
 1130 295 1130 295 1061.5 185.5 c 0,42,43
 993 76 993 76 879.5 32 c 0,44,45
 766 -12 766 -12 584 -12 c 0,46,47
 162 -12 162 -12 162 367 c 0,24,25
EndSplineSet
EndChar

StartChar: p
Encoding: 83 112 83
Width: 1165
VWidth: 1024
Flags: W
LayerCount: 2
Fore
SplineSet
918 557 m 0,0,1
 930 631 930 631 930 680 c 0,2,3
 930 795 930 795 888 850 c 0,4,5
 846 905 846 905 754 905 c 0,6,-1
 516 903 l 0,7,-1
 410 240 l 0,8,9
 469 220 469 220 513 211.5 c 0,10,11
 557 203 557 203 621 203 c 0,12,13
 750 203 750 203 818.5 287 c 0,14,15
 887 371 887 371 918 557 c 0,0,1
289 1061 m 0,16,17
 574 1110 574 1110 821 1110 c 0,18,19
 1007 1110 1007 1110 1093.5 1015 c 0,20,21
 1180 920 1180 920 1180 723 c 0,22,23
 1180 629 1180 629 1159 506 c 0,24,25
 1120 250 1120 250 989 119 c 0,26,27
 858 -12 858 -12 649 -12 c 0,28,29
 481 -12 481 -12 379 39 c 0,30,-1
 297 -485 l 0,31,-1
 43 -485 l 0,32,-1
 289 1061 l 0,16,17
EndSplineSet
EndChar

StartChar: q
Encoding: 84 113 84
Width: 1163
VWidth: 1024
Flags: W
LayerCount: 2
Fore
SplineSet
836 279 m 0,0,-1
 934 891 l 0,1,2
 901 895 901 895 887 895 c 0,3,4
 801 905 801 905 741 905 c 0,5,6
 596 905 596 905 526.5 822 c 0,7,8
 457 739 457 739 426 561 c 0,9,10
 410 457 410 457 410 403 c 0,11,12
 410 301 410 301 454 247 c 0,13,14
 498 193 498 193 573 193 c 0,15,16
 639 193 639 193 702.5 215.5 c 0,17,18
 766 238 766 238 836 279 c 0,0,-1
809 113 m 0,19,20
 735 56 735 56 637 22 c 0,21,22
 539 -12 539 -12 453 -12 c 0,23,24
 308 -12 308 -12 234 84 c 0,25,26
 160 180 160 180 160 356 c 0,27,28
 160 444 160 444 180 582 c 0,29,30
 225 865 225 865 365.5 987.5 c 0,31,32
 506 1110 506 1110 752 1110 c 0,33,34
 879 1110 879 1110 1007 1092.5 c 0,35,36
 1135 1075 1135 1075 1212 1051 c 0,37,-1
 969 -485 l 0,38,-1
 715 -485 l 0,39,-1
 809 113 l 0,19,20
EndSplineSet
EndChar

StartChar: r
Encoding: 85 114 85
Width: 841
VWidth: 1024
Flags: W
LayerCount: 2
Fore
SplineSet
295 1098 m 0,0,-1
 518 1098 l 0,1,-1
 526 958 l 0,2,3
 678 1110 678 1110 840 1110 c 0,4,5
 914 1110 914 1110 958 1096 c 0,6,-1
 922 844 l 0,7,8
 861 850 861 850 786 850 c 0,9,10
 628 850 628 850 496 756 c 0,11,-1
 375 0 l 0,12,-1
 121 0 l 0,13,-1
 295 1098 l 0,0,-1
EndSplineSet
EndChar

StartChar: s
Encoding: 86 115 86
Width: 1044
VWidth: 1024
Flags: W
LayerCount: 2
Fore
SplineSet
113 31 m 0,0,-1
 135 180 l 0,1,-1
 606 180 l 0,2,3
 756 180 756 180 772 283 c 0,4,-1
 780 340 l 0,5,-1
 782 365 l 0,6,7
 782 445 782 445 678 444 c 0,8,-1
 500 444 l 0,9,10
 359 444 359 444 279 496.5 c 0,11,12
 199 549 199 549 199 653 c 0,13,14
 199 710 199 710 205 745 c 0,15,-1
 219 825 l 0,16,17
 242 962 242 962 341 1036 c 0,18,19
 440 1110 440 1110 649 1110 c 0,20,21
 745 1110 745 1110 868 1096.5 c 0,22,23
 991 1083 991 1083 1065 1065 c 0,24,-1
 1040 915 l 0,25,-1
 602 915 l 0,26,27
 526 915 526 915 491.5 890.5 c 0,28,29
 457 866 457 866 444 809 c 0,30,-1
 438 766 l 0,31,32
 432 733 432 733 432 715 c 0,33,34
 432 680 432 680 458.5 664.5 c 0,35,36
 485 649 485 649 549 649 c 0,37,-1
 741 649 l 0,38,39
 868 649 868 649 944 592 c 0,40,41
 1020 535 1020 535 1020 434 c 0,42,43
 1020 397 1020 397 1014 354 c 0,44,-1
 999 256 l 0,45,46
 976 115 976 115 863 51.5 c 0,47,48
 750 -12 750 -12 551 -12 c 0,49,50
 424 -12 424 -12 303 -1 c 0,51,52
 182 10 182 10 113 31 c 0,0,-1
EndSplineSet
EndChar

StartChar: t
Encoding: 87 116 87
Width: 819
VWidth: 1024
Flags: W
LayerCount: 2
Fore
SplineSet
254 244 m 0,0,1
 254 320 254 320 272 430 c 0,2,-1
 356 893 l 0,3,-1
 182 893 l 0,4,-1
 209 1057 l 0,5,-1
 395 1098 l 0,6,-1
 479 1405 l 0,7,-1
 678 1405 l 0,8,-1
 629 1098 l 0,9,-1
 907 1098 l 0,10,-1
 877 893 l 0,11,-1
 598 893 l 0,12,-1
 524 428 l 0,13,14
 510 356 510 356 510 311 c 0,15,16
 510 256 510 256 537.5 230.5 c 0,17,18
 565 205 565 205 627 199 c 0,19,-1
 754 186 l 0,20,-1
 723 0 l 0,21,-1
 565 0 l 0,22,23
 254 0 254 0 254 244 c 0,0,1
EndSplineSet
EndChar

StartChar: u
Encoding: 88 117 88
Width: 1198
VWidth: 1024
Flags: W
LayerCount: 2
Fore
SplineSet
166 246 m 0,0,1
 166 314 166 314 176 371 c 0,2,-1
 291 1098 l 0,3,-1
 545 1098 l 0,4,-1
 436 399 l 0,5,6
 432 383 432 383 432 346 c 0,7,8
 432 215 432 215 584 215 c 0,9,10
 664 215 664 215 729.5 239.5 c 0,11,12
 795 264 795 264 872 313 c 0,13,-1
 997 1098 l 0,14,-1
 1251 1098 l 0,15,-1
 1077 0 l 0,16,-1
 854 0 l 0,17,-1
 842 115 l 0,18,19
 742 49 742 49 653.5 18.5 c 0,20,21
 565 -12 565 -12 440 -12 c 0,22,23
 303 -12 303 -12 234.5 55.5 c 0,24,25
 166 123 166 123 166 246 c 0,0,1
EndSplineSet
EndChar

StartChar: v
Encoding: 89 118 89
Width: 1116
VWidth: 1024
Flags: W
LayerCount: 2
Fore
SplineSet
178 1098 m 0,0,-1
 438 1098 l 0,1,-1
 575 240 l 0,2,-1
 866 815 l 0,3,4
 901 895 901 895 921.5 963.5 c 0,5,6
 942 1032 942 1032 950 1114 c 0,7,-1
 1182 1114 l 0,8,9
 1180 1018 1180 1018 1146 918.5 c 0,10,11
 1112 819 1112 819 1055 707 c 0,12,-1
 680 0 l 0,13,-1
 389 0 l 0,14,-1
 178 1098 l 0,0,-1
EndSplineSet
EndChar

StartChar: w
Encoding: 90 119 90
Width: 1720
VWidth: 1024
Flags: W
LayerCount: 2
Fore
SplineSet
178 1098 m 0,0,-1
 438 1098 l 0,1,-1
 557 242 l 0,2,-1
 907 1098 l 0,3,-1
 1077 1098 l 0,4,-1
 1229 242 l 0,5,-1
 1473 850 l 0,6,7
 1493 905 1493 905 1513.5 981 c 0,8,9
 1534 1057 1534 1057 1540 1114 c 0,10,-1
 1786 1114 l 0,11,12
 1786 1032 1786 1032 1757.5 934 c 0,13,14
 1729 836 1729 836 1690 754 c 0,15,-1
 1331 0 l 0,16,-1
 1063 0 l 0,17,-1
 934 688 l 0,18,-1
 635 0 l 0,19,-1
 365 0 l 0,20,-1
 178 1098 l 0,0,-1
EndSplineSet
EndChar

StartChar: x
Encoding: 91 120 91
Width: 1120
VWidth: 1024
Flags: W
LayerCount: 2
Fore
SplineSet
784 528 m 0,0,-1
 1090 0 l 0,1,-1
 827 0 l 0,2,-1
 612 373 l 0,3,-1
 293 0 l 0,4,-1
 31 0 l 0,5,-1
 504 559 l 0,6,-1
 190 1098 l 0,7,-1
 451 1098 l 0,8,-1
 676 713 l 0,9,-1
 975 1098 l 0,10,-1
 1249 1098 l 0,11,-1
 784 528 l 0,0,-1
EndSplineSet
EndChar

StartChar: y
Encoding: 92 121 92
Width: 1165
VWidth: 1024
Flags: W
LayerCount: 2
Fore
SplineSet
197 -303 m 0,0,1
 322 -276 322 -276 416 -205.5 c 0,2,3
 510 -135 510 -135 575 0 c 0,4,5
 444 12 444 12 381.5 75.5 c 0,6,7
 319 139 319 139 299 281 c 0,8,-1
 190 1098 l 0,9,-1
 453 1098 l 0,10,-1
 524 336 l 0,11,12
 534 266 534 266 569 239.5 c 0,13,14
 604 213 604 213 655 209 c 0,15,-1
 932 858 l 0,16,17
 989 1008 989 1008 997 1114 c 0,18,-1
 1233 1114 l 0,19,20
 1233 915 1233 915 1124 686 c 0,21,-1
 805 12 l 0,22,23
 684 -242 684 -242 540.5 -354.5 c 0,24,25
 397 -467 397 -467 197 -485 c 0,26,-1
 197 -303 l 0,0,1
EndSplineSet
EndChar

StartChar: z
Encoding: 93 122 93
Width: 1024
VWidth: 1024
Flags: W
LayerCount: 2
Fore
SplineSet
121 184 m 0,0,-1
 778 893 l 0,1,-1
 209 893 l 0,2,-1
 240 1098 l 0,3,-1
 1102 1098 l 0,4,-1
 1073 913 l 0,5,-1
 416 205 l 0,6,-1
 977 205 l 0,7,8
 973 172 973 172 961.5 101.5 c 0,9,10
 950 31 950 31 944 0 c 0,11,-1
 92 0 l 0,12,-1
 121 184 l 0,0,-1
EndSplineSet
EndChar

StartChar: braceleft
Encoding: 94 123 94
Width: 645
VWidth: 1024
Flags: W
LayerCount: 2
Fore
SplineSet
197 -176 m 0,0,1
 197 -119 197 -119 224.5 41 c 0,2,3
 252 201 252 201 256 227 c 0,4,5
 293 430 293 430 293 461 c 0,6,7
 293 516 293 516 262 540.5 c 0,8,9
 231 565 231 565 162 565 c 0,10,-1
 199 801 l 0,11,12
 351 815 351 815 367 926 c 0,13,-1
 432 1343 l 0,14,15
 455 1484 455 1484 510 1567.5 c 0,16,17
 565 1651 565 1651 663.5 1687.5 c 0,18,19
 762 1724 762 1724 918 1724 c 0,20,-1
 885 1520 l 0,21,22
 819 1520 819 1520 780 1501.5 c 0,23,24
 741 1483 741 1483 716.5 1433.5 c 0,25,26
 692 1384 692 1384 678 1292 c 0,27,-1
 614 885 l 0,28,29
 600 791 600 791 539.5 741.5 c 0,30,31
 479 692 479 692 387 684 c 0,32,33
 467 670 467 670 510 627 c 0,34,35
 553 584 553 584 553 518 c 0,36,37
 553 485 553 485 508 211 c 0,38,39
 461 -55 461 -55 461 -104 c 0,40,41
 461 -176 461 -176 495.5 -207 c 0,42,43
 530 -238 530 -238 606 -238 c 0,44,-1
 575 -430 l 0,45,46
 371 -430 371 -430 284 -366.5 c 0,47,48
 197 -303 197 -303 197 -176 c 0,0,1
EndSplineSet
EndChar

StartChar: bar
Encoding: 95 124 95
Width: 516
VWidth: 1024
Flags: W
LayerCount: 2
Fore
SplineSet
406 1577 m 0,0,-1
 610 1577 l 0,1,-1
 338 -147 l 0,2,-1
 133 -147 l 0,3,-1
 406 1577 l 0,0,-1
EndSplineSet
EndChar

StartChar: braceright
Encoding: 96 125 96
Width: 645
VWidth: 1024
Flags: W
LayerCount: 2
Fore
SplineSet
0 -238 m 0,0,1
 96 -238 96 -238 141 -189.5 c 0,2,3
 186 -141 186 -141 203 -37 c 0,4,-1
 283 449 l 0,5,6
 295 527 295 527 352.5 578 c 0,7,8
 410 629 410 629 504 643 c 0,9,10
 426 649 426 649 383 688 c 0,11,12
 340 727 340 727 340 801 c 0,13,14
 340 854 340 854 385 1128 c 0,15,16
 420 1353 420 1353 420 1382 c 0,17,18
 420 1458 420 1458 386 1489 c 0,19,20
 352 1520 352 1520 279 1520 c 0,21,-1
 311 1724 l 0,22,23
 682 1724 682 1724 682 1438 c 0,24,25
 682 1430 682 1430 645 1184 c 0,26,27
 637 1125 637 1125 618.5 1003 c 0,28,29
 600 881 600 881 600 862 c 0,30,31
 600 772 600 772 731 760 c 0,32,-1
 694 524 l 0,33,34
 626 524 626 524 582.5 493.5 c 0,35,36
 539 463 539 463 528 399 c 0,37,-1
 453 -78 l 0,38,39
 433 -203 433 -203 383.5 -278.5 c 0,40,41
 334 -354 334 -354 234.5 -392 c 0,42,43
 135 -430 135 -430 -31 -430 c 0,44,-1
 0 -238 l 0,0,1
EndSplineSet
EndChar

StartChar: asciitilde
Encoding: 97 126 97
Width: 884
VWidth: 1024
Flags: W
LayerCount: 2
Fore
SplineSet
621 1151 m 0,0,1
 586 1176 586 1176 562.5 1188 c 0,2,3
 539 1200 539 1200 516 1200 c 0,4,5
 461 1200 461 1200 416 1180.5 c 0,6,7
 371 1161 371 1161 303 1116 c 0,8,-1
 283 1202 l 0,9,10
 418 1341 418 1341 541 1341 c 0,11,12
 568 1341 568 1341 596.5 1327 c 0,13,14
 625 1313 625 1313 664 1286 c 0,15,16
 703 1259 703 1259 724 1248 c 0,17,18
 745 1237 745 1237 766 1237 c 0,19,20
 856 1237 856 1237 971 1329 c 0,21,-1
 991 1235 l 0,22,23
 930 1172 930 1172 870.5 1134 c 0,24,25
 811 1096 811 1096 745 1096 c 0,26,27
 715 1096 715 1096 688.5 1110 c 0,28,29
 662 1124 662 1124 621 1151 c 0,0,1
EndSplineSet
EndChar

StartChar: inherent
Encoding: 98 -1 98
Width: 333
Flags: W
LayerCount: 2
Fore
SplineSet
655 1509 m 1,0,1
 630 1380 630 1380 512 1294 c 1,2,3
 397 1204 397 1204 258 1204 c 1,4,-1
 301 1399 l 1,5,6
 348 1399 348 1399 381 1432 c 1,7,8
 424 1465 424 1465 432 1507 c 2,9,-1
 461 1647 l 1,10,-1
 684 1647 l 1,11,-1
 655 1509 l 1,0,1
EndSplineSet
EndChar

StartChar: makewide
Encoding: 99 -1 99
Width: 675
Flags: W
LayerCount: 2
Fore
SplineSet
930 268 m 2,0,1
 905 159 905 159 825 79.5 c 128,-1,2
 745 0 745 0 651 0 c 2,3,-1
 360 0 l 2,4,5
 266 0 266 0 186 57.5 c 128,-1,6
 106 115 106 115 55 211 c 1,7,-1
 123 530 l 1,8,9
 162 376 162 376 248 287 c 1,10,11
 338 197 338 197 438 197 c 2,12,-1
 621 197 l 2,13,14
 652 197 652 197 676 229 c 0,15,16
 690 245 690 245 697.5 260.5 c 128,-1,17
 705 276 705 276 713 305 c 1,18,-1
 864 1022 l 2,19,20
 868 1051 868 1051 868 1065 c 0,21,22
 868 1112 868 1112 837.5 1156 c 128,-1,23
 807 1200 807 1200 733 1200 c 2,24,-1
 539 1200 l 1,25,-1
 582 1395 l 1,26,-1
 1028 1395 l 1,27,-1
 1038 1200 l 1,28,29
 1091 1143 1091 1143 1092 1067 c 0,30,31
 1092 1044 1092 1044 1090 1034 c 2,32,-1
 930 268 l 2,0,1
EndSplineSet
EndChar

StartChar: shortrr
Encoding: 100 -1 100
Width: 1601
Flags: W
LayerCount: 2
Fore
SplineSet
1876 1204 m 1,0,-1
 942 1204 l 2,1,2
 905 1204 905 1204 869.5 1180.5 c 128,-1,3
 834 1157 834 1157 825 1124 c 2,4,-1
 793 956 l 2,5,6
 785 909 785 909 815 881 c 1,7,8
 846 848 846 848 893 848 c 2,9,-1
 1239 848 l 1,10,-1
 1200 653 l 1,11,-1
 854 653 l 2,12,13
 801 653 801 653 758 621 c 1,14,15
 713 592 713 592 705 545 c 2,16,-1
 659 336 l 1,17,18
 657 313 657 313 657 303 c 0,19,20
 657 285 657 285 671.5 252 c 128,-1,21
 686 219 686 219 715 211 c 1,22,-1
 883 211 l 1,23,-1
 844 16 l 1,24,-1
 592 16 l 2,25,26
 506 16 506 16 451 82 c 0,27,28
 414 127 414 127 414 188 c 0,29,30
 414 202 414 202 418 236 c 1,31,-1
 485 559 l 1,32,33
 495 631 495 631 559 686 c 128,-1,34
 623 741 623 741 705 756 c 1,35,36
 629 774 629 774 595 819 c 128,-1,37
 561 864 561 864 561 909 c 0,38,39
 561 923 561 923 565 946 c 2,40,-1
 616 1198 l 1,41,42
 639 1292 639 1292 719 1343 c 1,43,44
 799 1402 799 1402 901 1403 c 2,45,-1
 1917 1403 l 1,46,-1
 1876 1204 l 1,0,-1
EndSplineSet
EndChar

StartChar: anusvara
Encoding: 101 3202 101
Width: 1533
Flags: W
LayerCount: 2
Fore
SplineSet
1599 305 m 2,0,1
 1574 186 1574 186 1479 93 c 128,-1,2
 1384 0 1384 0 1284 0 c 2,3,-1
 668 0 l 2,4,5
 549 0 549 0 475 100 c 1,6,7
 428 172 428 172 428 256 c 0,8,9
 428 293 428 293 436 332 c 2,10,-1
 598 1106 l 2,11,12
 623 1225 623 1225 730.5 1309 c 128,-1,13
 838 1393 838 1393 967 1393 c 2,14,-1
 1528 1393 l 2,15,16
 1651 1393 1651 1393 1724 1303 c 1,17,18
 1771 1231 1771 1231 1772 1151 c 0,19,20
 1772 1118 1772 1118 1763 1079 c 2,21,-1
 1599 305 l 2,0,1
1386 352 m 1,22,-1
 1538 1063 l 2,23,24
 1540 1077 1540 1077 1540 1100 c 0,25,26
 1540 1137 1540 1137 1524 1161 c 1,27,28
 1493 1200 1493 1200 1446 1200 c 2,29,-1
 999 1200 l 2,30,31
 940 1200 940 1200 883 1163 c 1,32,33
 826 1120 826 1120 817 1077 c 2,34,-1
 664 350 l 2,35,36
 662 340 662 340 662 322 c 0,37,38
 662 283 662 283 692 244 c 1,39,40
 737 199 737 199 797 199 c 2,41,-1
 1231 199 l 2,42,43
 1282 199 1282 199 1329 246 c 128,-1,44
 1376 293 1376 293 1386 352 c 1,22,-1
EndSplineSet
EndChar

StartChar: u0C83
Encoding: 102 3203 102
Width: 991
Flags: W
LayerCount: 2
Fore
SplineSet
1249 950 m 2,0,1
 1233 870 1233 870 1164.5 813 c 128,-1,2
 1096 756 1096 756 1014 756 c 2,3,-1
 705 756 l 2,4,5
 615 756 615 756 563 817 c 0,6,7
 526 862 526 862 526 924 c 0,8,9
 526 949 526 949 528 963 c 2,10,-1
 573 1186 l 1,11,12
 596 1276 596 1276 672 1333.5 c 128,-1,13
 748 1391 748 1391 842 1391 c 2,14,-1
 1122 1391 l 2,15,16
 1179 1391 1179 1391 1225 1360 c 1,17,18
 1268 1337 1268 1337 1290 1278 c 0,19,20
 1300 1255 1300 1255 1300 1219 c 0,21,22
 1300 1205 1300 1205 1296 1171 c 1,23,-1
 1249 950 l 2,0,1
1096 221 m 2,24,25
 1078 131 1078 131 1012 65.5 c 128,-1,26
 946 0 946 0 872 0 c 2,27,-1
 547 0 l 2,28,29
 457 0 457 0 406 61 c 0,30,31
 367 108 367 108 367 168 c 0,32,33
 367 178 367 178 371 207 c 2,34,-1
 416 430 l 2,35,36
 434 518 434 518 514 577.5 c 128,-1,37
 594 637 594 637 682 637 c 2,38,-1
 963 637 l 2,39,40
 1057 637 1057 637 1104 569 c 1,41,42
 1137 518 1137 518 1137 457 c 0,43,44
 1137 441 1137 441 1133 408 c 1,45,-1
 1096 221 l 2,24,25
1038 1006 m 2,46,-1
 1063 1130 l 1,47,48
 1071 1159 1071 1159 1059 1178.5 c 128,-1,49
 1047 1198 1047 1198 1014 1198 c 2,50,-1
 885 1198 l 2,51,52
 856 1198 856 1198 825.5 1179.5 c 128,-1,53
 795 1161 795 1161 786 1130 c 2,54,-1
 764 1020 l 1,55,56
 760 989 760 989 778.5 969.5 c 128,-1,57
 797 950 797 950 825 950 c 2,58,-1
 965 950 l 2,59,60
 983 950 983 950 1008.5 966.5 c 128,-1,61
 1034 983 1034 983 1038 1006 c 2,46,-1
881 250 m 2,62,-1
 905 379 l 1,63,64
 913 410 913 410 905 426 c 256,65,66
 897 442 897 442 881 442 c 2,67,-1
 715 442 l 2,68,69
 684 442 684 442 660.5 427 c 128,-1,70
 637 412 637 412 633 389 c 2,71,-1
 608 266 l 1,72,73
 606 237 606 237 614 215 c 1,74,75
 628 192 628 192 647 193 c 2,76,-1
 815 193 l 2,77,78
 838 193 838 193 857.5 208 c 128,-1,79
 877 223 877 223 881 250 c 2,62,-1
EndSplineSet
EndChar

StartChar: avowel
Encoding: 103 3205 103
Width: 1990
Flags: W
LayerCount: 2
Fore
SplineSet
2116 281 m 2,0,1
 2091 166 2091 166 1992.5 83 c 128,-1,2
 1894 0 1894 0 1778 0 c 2,3,-1
 698 0 l 2,4,5
 569 0 569 0 494 86 c 1,6,7
 441 143 441 143 440 223 c 0,8,9
 440 260 440 260 444 279 c 2,10,-1
 621 1118 l 2,11,12
 646 1235 646 1235 744 1315 c 128,-1,13
 842 1395 842 1395 956 1395 c 2,14,-1
 1317 1395 l 1,15,-1
 1223 948 l 1,16,-1
 1004 948 l 1,17,-1
 1055 1200 l 1,18,-1
 969 1200 l 2,19,20
 924 1200 924 1200 885 1153 c 1,21,22
 840 1108 840 1108 825 1034 c 2,23,-1
 680 352 l 2,24,25
 678 342 678 342 678 324 c 0,26,27
 678 281 678 281 707 244 c 1,28,29
 758 199 758 199 815 199 c 2,30,-1
 1720 199 l 2,31,32
 1763 199 1763 199 1806 225.5 c 128,-1,33
 1849 252 1849 252 1880 297 c 1,34,35
 1896 326 1896 326 1904.5 344 c 128,-1,36
 1913 362 1913 362 1917 393 c 1,37,-1
 2064 1092 l 2,38,39
 2072 1135 2072 1135 2050 1171 c 1,40,41
 2019 1202 2019 1202 1976 1202 c 2,42,-1
 1890 1202 l 1,43,-1
 1860 1051 l 2,44,45
 1856 1022 1856 1022 1855 1012 c 0,46,47
 1855 926 1855 926 1956 840 c 1,48,-1
 1917 645 l 1,49,-1
 1077 645 l 1,50,-1
 1116 840 l 1,51,-1
 1704 840 l 1,52,53
 1632 930 1632 930 1632 1004 c 0,54,55
 1632 1022 1632 1022 1634 1030 c 2,56,-1
 1710 1393 l 1,57,-1
 2044 1393 l 2,58,59
 2132 1393 2132 1393 2189 1356 c 1,60,61
 2255 1323 2255 1323 2284 1264 c 1,62,63
 2300 1225 2300 1225 2300 1186 c 0,64,65
 2300 1153 2300 1153 2296 1137 c 2,66,-1
 2116 281 l 2,0,1
EndSplineSet
EndChar

StartChar: aavowel
Encoding: 104 3206 104
Width: 2131
Flags: W
LayerCount: 2
Fore
SplineSet
2413 1001 m 1,0,1
 2395 888 2395 888 2300.5 805.5 c 128,-1,2
 2206 723 2206 723 2105 723 c 2,3,-1
 2019 723 l 1,4,5
 2080 633 2080 633 2073 586 c 2,6,-1
 1997 213 l 2,7,8
 1979 125 1979 125 1892.5 62.5 c 128,-1,9
 1806 0 1806 0 1702 0 c 2,10,-1
 651 4 l 2,11,12
 542 4 542 4 483 86 c 0,13,14
 440 143 440 143 440 217 c 0,15,16
 440 248 440 248 449 281 c 2,17,-1
 625 1120 l 2,18,19
 650 1237 650 1237 765.5 1317 c 128,-1,20
 881 1397 881 1397 1018 1397 c 2,21,-1
 1298 1397 l 1,22,-1
 1204 950 l 1,23,-1
 981 950 l 1,24,-1
 1032 1202 l 1,25,-1
 987 1202 l 2,26,27
 940 1202 940 1202 895 1164 c 128,-1,28
 850 1126 850 1126 842 1081 c 2,29,-1
 688 354 l 2,30,31
 686 340 686 340 686 317 c 0,32,33
 686 274 686 274 705 244 c 1,34,35
 742 199 742 199 793 199 c 2,36,-1
 1632 199 l 2,37,38
 1689 199 1689 199 1741.5 246 c 128,-1,39
 1794 293 1794 293 1804 354 c 1,40,-1
 1855 588 l 1,41,42
 1865 645 1865 645 1810 727 c 1,43,-1
 1241 727 l 1,44,-1
 1280 922 l 1,45,-1
 1784 922 l 1,46,47
 1747 998 1747 998 1749 1026 c 1,48,-1
 1786 1194 l 2,49,50
 1802 1276 1802 1276 1886 1331 c 128,-1,51
 1970 1386 1970 1386 2075 1386 c 2,52,-1
 2255 1386 l 2,53,54
 2357 1386 2357 1386 2408 1319 c 1,55,56
 2451 1268 2451 1268 2451 1206 c 0,57,58
 2451 1190 2451 1190 2447 1157 c 1,59,-1
 2413 1001 l 1,0,1
2189 1018 m 1,60,-1
 2212 1114 l 2,61,62
 2214 1128 2214 1128 2214 1151 c 0,63,64
 2214 1196 2214 1196 2175 1196 c 2,65,-1
 2093 1196 l 2,66,67
 2060 1196 2060 1196 2027.5 1170.5 c 128,-1,68
 1995 1145 1995 1145 1993 1114 c 1,69,-1
 1978 1047 l 2,70,71
 1974 1024 1974 1024 1974 1014 c 0,72,73
 1974 989 1974 989 1981.5 972.5 c 128,-1,74
 1989 956 1989 956 2007 926 c 1,75,-1
 2101 926 l 2,76,77
 2132 926 2132 926 2157.5 951.5 c 128,-1,78
 2183 977 2183 977 2189 1018 c 1,60,-1
EndSplineSet
EndChar

StartChar: ivowel
Encoding: 105 3207 105
Width: 1607
Flags: W
LayerCount: 2
Fore
SplineSet
1663 0 m 1,0,-1
 1524 0 l 2,1,2
 1422 0 1422 0 1362 66 c 0,3,4
 1317 117 1317 117 1317 176 c 0,5,6
 1317 186 1317 186 1321 219 c 1,7,-1
 1350 358 l 1,8,-1
 1126 358 l 2,9,10
 1032 358 1032 358 981 412 c 0,11,12
 942 451 942 451 942 506 c 0,13,14
 942 524 942 524 944 535 c 2,15,-1
 975 686 l 2,16,17
 985 739 985 739 1053 784 c 1,18,19
 1127 823 1127 823 1206 823 c 2,20,-1
 1446 823 l 2,21,22
 1499 823 1499 823 1542 791 c 1,23,24
 1579 754 1579 754 1587 702 c 1,25,-1
 1669 1094 l 2,26,27
 1677 1139 1677 1139 1647 1161 c 1,28,29
 1622 1186 1622 1186 1563 1186 c 2,30,-1
 1411 1186 l 2,31,32
 1354 1186 1354 1186 1305.5 1150 c 128,-1,33
 1257 1114 1257 1114 1249 1075 c 2,34,-1
 1221 936 l 1,35,-1
 1001 936 l 1,36,-1
 1026 1065 l 2,37,38
 1036 1110 1036 1110 1002.5 1148 c 128,-1,39
 969 1186 969 1186 911 1186 c 2,40,-1
 725 1186 l 2,41,42
 674 1186 674 1186 631 1152 c 128,-1,43
 588 1118 588 1118 580 1075 c 2,44,-1
 551 936 l 2,45,46
 549 928 549 928 549 918.5 c 128,-1,47
 549 909 549 909 549 907 c 0,48,49
 549 878 549 878 565 862 c 1,50,51
 581 829 581 829 618 829 c 2,52,-1
 664 829 l 1,53,-1
 625 635 l 1,54,-1
 524 635 l 2,55,56
 420 635 420 635 358 715 c 0,57,58
 315 772 315 772 315 846 c 0,59,60
 315 879 315 879 319 897 c 2,61,-1
 362 1106 l 2,62,63
 378 1182 378 1182 432.5 1246.5 c 128,-1,64
 487 1311 487 1311 560 1346.5 c 128,-1,65
 633 1382 633 1382 713 1382 c 2,66,-1
 979 1382 l 2,67,68
 1059 1382 1059 1382 1114 1344.5 c 128,-1,69
 1169 1307 1169 1307 1169 1245 c 1,70,71
 1208 1311 1208 1311 1270 1343 c 1,72,73
 1327 1382 1327 1382 1395 1382 c 2,74,-1
 1647 1382 l 2,75,76
 1780 1382 1780 1382 1845 1300 c 1,77,78
 1896 1243 1896 1243 1896 1163 c 0,79,80
 1896 1130 1896 1130 1888 1098 c 2,81,-1
 1815 745 l 2,82,83
 1776 565 1776 565 1573 399 c 1,84,-1
 1544 260 l 1,85,86
 1536 235 1536 235 1552 211 c 1,87,88
 1575 188 1575 188 1593 188 c 2,89,-1
 1694 188 l 1,90,-1
 1663 0 l 1,0,-1
1378 551 m 1,91,-1
 1386 580 l 1,92,93
 1396 637 1396 637 1343 637 c 2,94,-1
 1214 637 l 2,95,96
 1198 637 1198 637 1186 627.5 c 128,-1,97
 1174 618 1174 618 1169 600 c 0,98,99
 1167 584 1167 584 1175.5 569.5 c 128,-1,100
 1184 555 1184 555 1198 555 c 2,101,-1
 1378 551 l 1,91,-1
EndSplineSet
EndChar

StartChar: iivowel
Encoding: 106 3208 106
Width: 2496
Flags: W
LayerCount: 2
Fore
SplineSet
2734 827 m 2,0,1
 2718 745 2718 745 2642 664 c 1,2,3
 2560 588 2560 588 2456 551 c 1,4,5
 2581 361 2581 361 2570 303 c 2,6,-1
 2542 164 l 1,7,8
 2526 98 2526 98 2480.5 53 c 128,-1,9
 2435 8 2435 8 2382 8 c 2,10,-1
 1925 8 l 1,11,-1
 1964 203 l 1,12,-1
 2255 203 l 2,13,14
 2280 203 2280 203 2310 225 c 1,15,16
 2339 254 2339 254 2341 276 c 1,17,-1
 2343 287 l 1,18,19
 2351 340 2351 340 2306 385 c 1,20,-1
 2204 537 l 1,21,-1
 1755 537 l 1,22,-1
 1698 274 l 2,23,24
 1673 165 1673 165 1582 85.5 c 128,-1,25
 1491 6 1491 6 1376 6 c 2,26,-1
 674 6 l 2,27,28
 584 6 584 6 526 78 c 0,29,30
 487 125 487 125 487 197 c 0,31,32
 487 211 487 211 492 244 c 1,33,-1
 553 535 l 1,34,-1
 334 535 l 1,35,-1
 373 729 l 1,36,-1
 592 729 l 1,37,-1
 631 911 l 1,38,39
 660 1058 660 1058 860 1202 c 1,40,-1
 666 1202 l 1,41,-1
 709 1397 l 1,42,-1
 1714 1397 l 2,43,44
 1753 1397 1753 1397 1778.5 1422.5 c 128,-1,45
 1804 1448 1804 1448 1812 1481 c 2,46,-1
 1835 1591 l 1,47,-1
 2060 1591 l 1,48,-1
 2038 1481 l 1,49,50
 2020 1379 2020 1379 1929 1296 c 1,51,52
 1847 1214 1847 1214 1729 1192 c 1,53,54
 1797 1139 1797 1139 1827 1079 c 0,55,56
 1841 1054 1841 1054 1846 1025.5 c 128,-1,57
 1851 997 1851 997 1847 973 c 2,58,-1
 1796 733 l 1,59,-1
 2087 733 l 1,60,61
 2048 778 2048 778 2048 840 c 0,62,63
 2048 865 2048 865 2056 897 c 2,64,-1
 2087 1051 l 1,65,66
 2110 1147 2110 1147 2185 1214 c 1,67,68
 2271 1282 2271 1282 2359 1282 c 2,69,-1
 2593 1282 l 2,70,71
 2695 1282 2695 1282 2746 1208 c 1,72,73
 2785 1161 2785 1161 2785 1087 c 0,74,75
 2785 1069 2785 1069 2781 1036 c 1,76,-1
 2734 827 l 2,0,1
2519 860 m 2,77,-1
 2550 1012 l 2,78,79
 2558 1045 2558 1045 2543.5 1068.5 c 128,-1,80
 2529 1092 2529 1092 2497 1092 c 2,81,-1
 2386 1092 l 2,82,83
 2357 1092 2357 1092 2333.5 1069.5 c 128,-1,84
 2310 1047 2310 1047 2308 1024 c 1,85,-1
 2275 858 l 2,86,87
 2267 821 2267 821 2284 791 c 1,88,-1
 2357 737 l 1,89,90
 2414 729 2414 729 2462.5 770 c 128,-1,91
 2511 811 2511 811 2519 860 c 2,77,-1
1571 737 m 1,92,-1
 1624 989 l 1,93,94
 1628 1022 1628 1022 1628 1038 c 0,95,96
 1628 1149 1628 1149 1532 1210 c 1,97,-1
 1098 1210 l 1,98,99
 895 1085 895 1085 862 928 c 2,100,-1
 819 733 l 1,101,-1
 1571 737 l 1,92,-1
1495 358 m 1,102,-1
 1532 539 l 1,103,-1
 778 539 l 1,104,-1
 733 330 l 2,105,106
 725 283 725 283 750.5 243 c 128,-1,107
 776 203 776 203 819 203 c 2,108,-1
 1319 203 l 2,109,110
 1372 203 1372 203 1423.5 246.5 c 128,-1,111
 1475 290 1475 290 1495 358 c 1,102,-1
EndSplineSet
EndChar

StartChar: uvowel
Encoding: 107 3209 107
Width: 2996
Flags: W
LayerCount: 2
Fore
SplineSet
3125 297 m 2,0,1
 3109 217 3109 217 3058 150 c 1,2,3
 3013 82 3013 82 2937 42 c 128,-1,4
 2861 2 2861 2 2787 2 c 2,5,-1
 2406 2 l 2,6,7
 2320 2 2320 2 2257.5 40 c 128,-1,8
 2195 78 2195 78 2165 150 c 1,9,10
 2149 197 2149 197 2148 248 c 0,11,12
 2148 260 2148 260 2152 293 c 1,13,-1
 2324 1104 l 2,14,15
 2332 1147 2332 1147 2309 1172.5 c 128,-1,16
 2286 1198 2286 1198 2243 1198 c 2,17,-1
 1880 1198 l 2,18,19
 1849 1198 1849 1198 1810 1174 c 1,20,21
 1777 1143 1777 1143 1769 1106 c 2,22,-1
 1595 279 l 2,23,24
 1577 199 1577 199 1527 137.5 c 128,-1,25
 1477 76 1477 76 1397 38 c 128,-1,26
 1317 0 1317 0 1231 0 c 2,27,-1
 727 0 l 2,28,29
 590 0 590 0 514 94 c 1,30,31
 457 160 457 160 457 248 c 0,32,33
 457 281 457 281 465 319 c 2,34,-1
 627 1087 l 2,35,36
 643 1169 643 1169 690 1241 c 1,37,38
 715 1274 715 1274 748.5 1302.5 c 128,-1,39
 782 1331 782 1331 815 1350 c 1,40,41
 895 1389 895 1389 963 1389 c 2,42,-1
 1380 1389 l 1,43,-1
 1294 989 l 2,44,45
 1269 874 1269 874 1183.5 797.5 c 128,-1,46
 1098 721 1098 721 997 721 c 2,47,-1
 846 721 l 1,48,-1
 885 915 l 1,49,-1
 979 915 l 2,50,51
 989 915 989 915 1004.5 920.5 c 128,-1,52
 1020 926 1020 926 1034 934 c 1,53,54
 1059 952 1059 952 1067 985 c 2,55,-1
 1110 1190 l 1,56,-1
 971 1190 l 2,57,58
 924 1190 924 1190 891 1157 c 1,59,60
 848 1124 848 1124 840 1081 c 2,61,-1
 678 313 l 2,62,63
 676 305 676 305 676 287 c 0,64,65
 676 250 676 250 694 227 c 0,66,67
 727 188 727 188 770 188 c 2,68,-1
 1245 188 l 2,69,70
 1290 188 1290 188 1323 219 c 128,-1,71
 1356 250 1356 250 1370 297 c 1,72,-1
 1538 1100 l 2,73,74
 1563 1223 1563 1223 1657 1303 c 1,75,76
 1751 1389 1751 1389 1862 1389 c 2,77,-1
 2308 1389 l 2,78,79
 2394 1389 2394 1389 2453.5 1351 c 128,-1,80
 2513 1313 2513 1313 2535 1253 c 1,81,82
 2543 1224 2543 1224 2545.5 1210 c 128,-1,83
 2548 1196 2548 1196 2548 1165 c 0,84,85
 2548 1149 2548 1149 2544 1116 c 1,86,-1
 2376 319 l 2,87,88
 2374 309 2374 309 2374 291 c 0,89,90
 2374 262 2374 262 2388 236 c 1,91,92
 2421 197 2421 197 2458 197 c 2,93,-1
 2775 197 l 2,94,95
 2820 197 2820 197 2853 227.5 c 128,-1,96
 2886 258 2886 258 2900 305 c 1,97,-1
 3066 1090 l 2,98,99
 3074 1127 3074 1127 3049 1149 c 1,100,101
 3033 1172 3033 1172 2986 1171 c 2,102,-1
 2947 1171 l 1,103,-1
 2994 1395 l 1,104,-1
 3117 1395 l 2,105,106
 3221 1395 3221 1395 3269 1321 c 1,107,108
 3306 1274 3306 1274 3305 1206 c 0,109,110
 3305 1167 3305 1167 3301 1149 c 2,111,-1
 3125 297 l 2,0,1
EndSplineSet
EndChar

StartChar: uuvowel
Encoding: 108 3210 108
Width: 3588
Flags: W
LayerCount: 2
Fore
SplineSet
3709 281 m 2,0,1
 3684 162 3684 162 3596 88 c 1,2,3
 3502 2 3502 2 3402 2 c 2,4,-1
 3287 2 l 2,5,6
 3187 2 3187 2 3127 76 c 0,7,8
 3088 123 3088 123 3088 190 c 0,9,10
 3088 229 3088 229 3092 248 c 2,11,-1
 3131 442 l 1,12,-1
 3355 442 l 1,13,-1
 3316 248 l 2,14,15
 3312 232 3312 232 3322 209 c 1,16,17
 3338 193 3338 193 3355 193 c 2,18,-1
 3422 193 l 2,19,20
 3440 193 3440 193 3454.5 212 c 128,-1,21
 3469 231 3469 231 3480 264 c 1,22,-1
 3647 1057 l 2,23,24
 3651 1086 3651 1086 3652 1100 c 0,25,26
 3652 1131 3652 1131 3635 1155 c 0,27,28
 3610 1194 3610 1194 3566 1194 c 2,29,-1
 3289 1194 l 2,30,31
 3230 1194 3230 1194 3182.5 1153 c 128,-1,32
 3135 1112 3135 1112 3121 1055 c 1,33,-1
 2963 315 l 2,34,35
 2947 229 2947 229 2894 154 c 0,36,37
 2871 123 2871 123 2837.5 92 c 128,-1,38
 2804 61 2804 61 2771 43 c 0,39,40
 2697 -2 2697 -2 2621 -2 c 2,41,-1
 2216 -2 l 2,42,43
 2101 -2 2101 -2 2050 88 c 1,44,45
 2011 149 2011 149 2011 223 c 0,46,47
 2011 260 2011 260 2019 299 c 2,48,-1
 2185 1083 l 2,49,50
 2193 1128 2193 1128 2167.5 1161 c 128,-1,51
 2142 1194 2142 1194 2097 1194 c 2,52,-1
 1817 1194 l 2,53,54
 1772 1194 1772 1194 1731 1154 c 128,-1,55
 1690 1114 1690 1114 1681 1071 c 2,56,-1
 1524 326 l 2,57,58
 1493 187 1493 187 1378.5 89.5 c 128,-1,59
 1264 -8 1264 -8 1130 -8 c 2,60,-1
 756 -8 l 2,61,62
 604 -8 604 -8 518 86 c 0,63,64
 457 152 457 152 457 246 c 0,65,66
 457 279 457 279 465 311 c 2,67,-1
 631 1096 l 2,68,69
 656 1219 656 1219 765 1301.5 c 128,-1,70
 874 1384 874 1384 1006 1384 c 2,71,-1
 1386 1384 l 1,72,-1
 1311 1022 l 2,73,74
 1286 907 1286 907 1190 827 c 1,75,76
 1100 745 1100 745 985 745 c 2,77,-1
 891 745 l 1,78,-1
 934 940 l 1,79,-1
 999 940 l 2,80,81
 1022 940 1022 940 1053 958 c 1,82,83
 1084 983 1084 983 1085 1008 c 1,84,-1
 1122 1188 l 1,85,-1
 993 1188 l 2,86,87
 942 1188 942 1188 899 1154 c 128,-1,88
 856 1120 856 1120 848 1077 c 2,89,-1
 688 322 l 2,90,91
 678 269 678 269 711 223 c 1,92,93
 750 184 750 184 807 184 c 2,94,-1
 1159 184 l 2,95,96
 1206 184 1206 184 1245 223 c 0,97,98
 1263 239 1263 239 1277.5 266 c 128,-1,99
 1292 293 1292 293 1296 322 c 2,100,-1
 1456 1077 l 2,101,102
 1472 1163 1472 1163 1531.5 1235 c 128,-1,103
 1591 1307 1591 1307 1674 1344.5 c 128,-1,104
 1757 1382 1757 1382 1837 1382 c 2,105,-1
 2146 1382 l 2,106,107
 2234 1382 2234 1382 2298.5 1344.5 c 128,-1,108
 2363 1307 2363 1307 2392 1233 c 0,109,110
 2410 1190 2410 1190 2410 1133 c 0,111,112
 2410 1119 2410 1119 2406 1079 c 1,113,-1
 2241 295 l 2,114,115
 2237 272 2237 272 2236 262 c 0,116,117
 2236 237 2236 237 2253 221 c 1,118,119
 2278 188 2278 188 2322 188 c 2,120,-1
 2585 188 l 2,121,122
 2638 188 2638 188 2683 229 c 128,-1,123
 2728 270 2728 270 2742 328 c 1,124,-1
 2896 1055 l 2,125,126
 2904 1100 2904 1100 2922.5 1140 c 128,-1,127
 2941 1180 2941 1180 2972 1223 c 1,128,129
 3031 1299 3031 1299 3114 1342.5 c 128,-1,130
 3197 1386 3197 1386 3283 1386 c 2,131,-1
 3607 1386 l 2,132,133
 3697 1386 3697 1386 3764 1343 c 1,134,135
 3830 1296 3830 1296 3854 1223 c 1,136,137
 3872 1180 3872 1180 3873 1126 c 0,138,139
 3873 1095 3873 1095 3865 1057 c 2,140,-1
 3709 281 l 2,0,1
EndSplineSet
EndChar

StartChar: rvocalicvowel.part
Encoding: 110 -1 110
Width: 2048
Flags: W
LayerCount: 2
Fore
SplineSet
2167 297 m 2,0,1
 2142 178 2142 178 2068 90 c 1,2,3
 1982 2 1982 2 1901 2 c 2,4,-1
 1483 2 l 2,5,6
 1397 2 1397 2 1330.5 43 c 128,-1,7
 1264 84 1264 84 1239 158 c 1,8,9
 1186 82 1186 82 1128.5 42 c 128,-1,10
 1071 2 1071 2 1024 2 c 2,11,-1
 549 2 l 2,12,13
 455 2 455 2 403 61 c 0,14,15
 364 108 364 108 365 168 c 0,16,17
 365 182 365 182 369 211 c 2,18,-1
 449 586 l 1,19,-1
 786 586 l 2,20,21
 888 586 888 586 946 526 c 0,22,23
 993 479 993 479 993 422 c 0,24,25
 993 412 993 412 989 383 c 2,26,-1
 971 283 l 1,27,-1
 748 283 l 1,28,-1
 762 354 l 2,29,30
 770 393 770 393 719 393 c 2,31,-1
 633 393 l 1,32,-1
 610 283 l 1,33,34
 608 250 608 250 618 225 c 1,35,36
 641 200 641 200 674 201 c 2,37,-1
 977 201 l 2,38,39
 1036 201 1036 201 1081 231.5 c 128,-1,40
 1126 262 1126 262 1141 309 c 1,41,-1
 1313 1122 l 2,42,43
 1321 1161 1321 1161 1291.5 1182.5 c 128,-1,44
 1262 1204 1262 1204 1208 1204 c 2,45,-1
 913 1204 l 2,46,47
 897 1204 897 1204 878.5 1200 c 128,-1,48
 860 1196 860 1196 829.5 1181.5 c 128,-1,49
 799 1167 799 1167 791 1137 c 2,50,-1
 760 983 l 1,51,-1
 846 983 l 2,52,53
 877 983 877 983 905.5 1005.5 c 128,-1,54
 934 1028 934 1028 942 1065 c 2,55,-1
 952 1122 l 1,56,-1
 1176 1122 l 1,57,-1
 1161 1055 l 2,58,59
 1136 946 1136 946 1053.5 866 c 128,-1,60
 971 786 971 786 872 786 c 2,61,-1
 492 786 l 1,62,-1
 573 1178 l 1,63,64
 596 1268 596 1268 680 1333.5 c 128,-1,65
 764 1399 764 1399 872 1399 c 2,66,-1
 1321 1399 l 2,67,68
 1436 1399 1436 1399 1501 1323 c 0,69,70
 1546 1270 1546 1270 1546 1196 c 0,71,72
 1546 1159 1546 1159 1542 1141 c 2,73,-1
 1380 371 l 1,74,75
 1398 299 1398 299 1448.5 251 c 128,-1,76
 1499 203 1499 203 1552 203 c 2,77,-1
 1815 203 l 2,78,79
 1862 203 1862 203 1901 242 c 0,80,81
 1919 258 1919 258 1933.5 284.5 c 128,-1,82
 1948 311 1948 311 1952 340 c 2,83,-1
 2099 1038 l 1,84,85
 2103 1071 2103 1071 2103 1085 c 0,86,87
 2103 1124 2103 1124 2081 1155 c 0,88,89
 2048 1202 2048 1202 1987 1202 c 2,90,-1
 1690 1202 l 1,91,-1
 1733 1397 l 1,92,-1
 2056 1397 l 2,93,94
 2103 1397 2103 1397 2150 1436 c 1,95,96
 2189 1475 2189 1475 2204 1534 c 1,97,-1
 2226 1645 l 1,98,-1
 2449 1645 l 1,99,-1
 2421 1505 l 2,100,101
 2405 1431 2405 1431 2357 1374 c 1,102,103
 2314 1315 2314 1315 2238 1284 c 1,104,105
 2299 1247 2299 1247 2316 1199 c 128,-1,106
 2333 1151 2333 1151 2333 1139.5 c 128,-1,107
 2333 1128 2333 1128 2333 1114 c 0,108,109
 2333 1098 2333 1098 2329 1065 c 1,110,-1
 2167 297 l 2,0,1
EndSplineSet
EndChar

StartChar: lvocalicvowel.part
Encoding: 112 -1 112
Width: 1607
Flags: W
LayerCount: 2
Fore
SplineSet
1491 297 m 1,0,1
 1483 252 1483 252 1513 233 c 0,2,3
 1527 225 1527 225 1544 225 c 0,4,5
 1591 225 1591 225 1622 262 c 1,6,-1
 1882 545 l 1,7,-1
 2028 430 l 1,8,-1
 1718 111 l 1,9,10
 1659 35 1659 35 1583 18 c 0,11,12
 1536 8 1536 8 1460 31.5 c 128,-1,13
 1384 55 1384 55 1337 109 c 1,14,15
 1306 148 1306 148 1296 162 c 0,16,17
 1265 207 1265 207 1266 258 c 0,18,19
 1266 268 1266 268 1270 293.5 c 128,-1,20
 1274 319 1274 319 1425 506 c 0,21,22
 1472 565 1472 565 1575 688 c 1,23,24
 1628 788 1628 788 1657 956 c 0,25,26
 1665 1009 1665 1009 1673 1104 c 1,27,28
 1681 1149 1681 1149 1651 1171 c 1,29,30
 1626 1196 1626 1196 1567 1196 c 2,31,-1
 1415 1196 l 2,32,33
 1358 1196 1358 1196 1310 1160 c 128,-1,34
 1262 1124 1262 1124 1253 1085 c 2,35,-1
 1225 946 l 1,36,-1
 1006 946 l 1,37,-1
 1030 1075 l 2,38,39
 1040 1120 1040 1120 1006.5 1158 c 128,-1,40
 973 1196 973 1196 915 1196 c 2,41,-1
 729 1196 l 2,42,43
 678 1196 678 1196 635 1162 c 128,-1,44
 592 1128 592 1128 584 1085 c 2,45,-1
 555 946 l 2,46,47
 553 938 553 938 553 929 c 128,-1,48
 553 920 553 920 553 918 c 0,49,50
 553 889 553 889 569 872 c 1,51,52
 585 839 585 839 623 840 c 2,53,-1
 668 840 l 1,54,-1
 629 645 l 1,55,-1
 528 645 l 2,56,57
 424 645 424 645 362 725 c 0,58,59
 319 782 319 782 319 856 c 0,60,61
 319 889 319 889 324 907 c 2,62,-1
 367 1116 l 2,63,64
 383 1192 383 1192 437.5 1256.5 c 128,-1,65
 492 1321 492 1321 564.5 1357 c 128,-1,66
 637 1393 637 1393 717 1393 c 2,67,-1
 983 1393 l 2,68,69
 1063 1393 1063 1393 1118.5 1355 c 128,-1,70
 1174 1317 1174 1317 1174 1255 c 1,71,72
 1213 1321 1213 1321 1274 1354 c 1,73,74
 1331 1393 1331 1393 1399 1393 c 2,75,-1
 1651 1393 l 2,76,77
 1784 1393 1784 1393 1849 1311 c 1,78,79
 1900 1254 1900 1254 1901 1174 c 0,80,81
 1901 1141 1901 1141 1892 1108 c 2,82,-1
 1819 756 l 2,83,84
 1805 690 1805 690 1761 629 c 1,85,86
 1757 619 1757 619 1577 414 c 0,87,88
 1548 383 1548 383 1534 369 c 0,89,90
 1491 322 1491 322 1491 297 c 1,0,1
EndSplineSet
EndChar

StartChar: evowel
Encoding: 113 3214 113
Width: 1943
Flags: W
LayerCount: 2
Fore
SplineSet
2066 297 m 2,0,1
 2041 178 2041 178 1950.5 90 c 128,-1,2
 1860 2 1860 2 1755 2 c 2,3,-1
 1331 2 l 2,4,5
 1257 2 1257 2 1210 41 c 0,6,7
 1187 59 1187 59 1179 82.5 c 128,-1,8
 1171 106 1171 106 1171 137 c 1,9,10
 1140 76 1140 76 1083 38 c 128,-1,11
 1026 0 1026 0 967 0 c 2,12,-1
 643 0 l 2,13,14
 518 0 518 0 444 82 c 0,15,16
 391 139 391 139 391 221 c 0,17,18
 391 237 391 237 395 276 c 1,19,-1
 512 836 l 1,20,-1
 846 836 l 2,21,22
 903 836 903 836 947 792 c 128,-1,23
 991 748 991 748 1008 674 c 1,24,25
 1026 617 1026 617 1026 549 c 0,26,27
 1026 518 1026 518 1024 504 c 1,28,-1
 807 446 l 1,29,30
 807 505 807 505 803 528 c 128,-1,31
 799 551 799 551 782 588 c 1,32,33
 753 641 753 641 694 641 c 1,34,-1
 629 332 l 1,35,36
 621 275 621 275 649 233 c 1,37,38
 682 194 682 194 735 195 c 2,39,-1
 946 195 l 2,40,41
 999 195 999 195 1038 233 c 0,42,43
 1063 256 1063 256 1075 278.5 c 128,-1,44
 1087 301 1087 301 1096 332 c 2,45,-1
 1124 471 l 1,46,-1
 1350 471 l 1,47,-1
 1325 348 l 2,48,49
 1323 338 1323 338 1323 313 c 0,50,51
 1323 276 1323 276 1348 244 c 0,52,53
 1387 197 1387 197 1444 197 c 2,54,-1
 1677 197 l 2,55,56
 1736 197 1736 197 1786.5 242 c 128,-1,57
 1837 287 1837 287 1851 352 c 2,58,-1
 1995 1022 l 2,59,60
 1999 1051 1999 1051 1999 1065 c 0,61,62
 1999 1112 1999 1112 1968 1149 c 1,63,64
 1929 1200 1929 1200 1855 1200 c 2,65,-1
 1669 1200 l 1,66,-1
 1712 1395 l 1,67,-1
 1927 1395 l 2,68,69
 2029 1395 2029 1395 2103 1350 c 128,-1,70
 2177 1305 2177 1305 2210 1225 c 0,71,72
 2228 1178 2228 1178 2228 1116 c 0,73,74
 2228 1089 2228 1089 2220 1057 c 2,75,-1
 2066 297 l 2,0,1
EndSplineSet
EndChar

StartChar: eevowel
Encoding: 114 3215 114
Width: 1937
Flags: W
LayerCount: 2
Fore
SplineSet
2066 330 m 2,0,1
 2050 248 2050 248 1985 162 c 1,2,3
 1956 129 1956 129 1918 96 c 128,-1,4
 1880 63 1880 63 1835 41 c 1,5,6
 1735 -2 1735 -2 1649 -2 c 2,7,-1
 1331 2 l 2,8,9
 1263 2 1263 2 1221 45 c 1,10,11
 1203 68 1203 68 1188.5 97.5 c 128,-1,12
 1174 127 1174 127 1174 158 c 1,13,14
 1065 0 1065 0 913 0 c 2,15,-1
 666 0 l 2,16,17
 525 0 525 0 451 90 c 1,18,19
 392 158 392 158 391 244 c 0,20,21
 391 262 391 262 395 301 c 1,22,-1
 506 834 l 1,23,-1
 844 834 l 2,24,25
 897 834 897 834 938 793 c 128,-1,26
 979 752 979 752 1001 672 c 0,27,28
 1011 641 1011 641 1013.5 600 c 128,-1,29
 1016 559 1016 559 1016 502 c 1,30,-1
 793 444 l 1,31,32
 793 501 793 501 788.5 528 c 128,-1,33
 784 555 784 555 768 584 c 0,34,35
 739 641 739 641 686 641 c 1,36,-1
 621 332 l 1,37,38
 613 275 613 275 641 233 c 1,39,40
 674 194 674 194 727 195 c 2,41,-1
 936 195 l 2,42,43
 993 195 993 195 1032 233 c 0,44,45
 1057 256 1057 256 1069 278.5 c 128,-1,46
 1081 301 1081 301 1090 332 c 2,47,-1
 1118 471 l 1,48,-1
 1343 471 l 1,49,-1
 1319 348 l 2,50,51
 1317 338 1317 338 1317 315 c 0,52,53
 1317 278 1317 278 1339 240 c 1,54,55
 1378 195 1378 195 1432 195 c 2,56,-1
 1671 195 l 2,57,58
 1728 195 1728 195 1780.5 242 c 128,-1,59
 1833 289 1833 289 1843 350 c 1,60,-1
 1987 1020 l 2,61,62
 1991 1049 1991 1049 1991 1063 c 0,63,64
 1991 1110 1991 1110 1960 1147 c 0,65,66
 1917 1198 1917 1198 1841 1198 c 2,67,-1
 1632 1198 l 1,68,-1
 1618 1130 l 2,69,70
 1604 1056 1604 1056 1523 1002 c 128,-1,71
 1442 948 1442 948 1341 948 c 2,72,-1
 1081 948 l 2,73,74
 964 948 964 948 899 1022 c 0,75,76
 848 1077 848 1077 848 1153 c 0,77,78
 848 1167 848 1167 852 1196 c 1,79,-1
 895 1391 l 1,80,-1
 1118 1391 l 1,81,-1
 1081 1225 l 1,82,83
 1077 1188 1077 1188 1098.5 1164.5 c 128,-1,84
 1120 1141 1120 1141 1149 1141 c 2,85,-1
 1329 1141 l 2,86,87
 1360 1141 1360 1141 1384 1171 c 1,88,89
 1413 1194 1413 1194 1421 1241 c 2,90,-1
 1452 1389 l 1,91,-1
 1911 1389 l 2,92,93
 2020 1389 2020 1389 2096.5 1341.5 c 128,-1,94
 2173 1294 2173 1294 2198.5 1228.5 c 128,-1,95
 2224 1163 2224 1163 2224 1110 c 0,96,97
 2224 1079 2224 1079 2216 1047 c 2,98,-1
 2066 330 l 2,0,1
EndSplineSet
EndChar

StartChar: aivowel
Encoding: 115 3216 115
Width: 2054
Flags: W
LayerCount: 2
Fore
SplineSet
2173 301 m 2,0,1
 2148 176 2148 176 2039.5 86 c 128,-1,2
 1931 -4 1931 -4 1806 -4 c 2,3,-1
 1489 0 l 2,4,5
 1407 0 1407 0 1346 45 c 1,6,7
 1285 96 1285 96 1268 168 c 1,8,9
 1209 92 1209 92 1136 47 c 128,-1,10
 1063 2 1063 2 997 2 c 2,11,-1
 645 2 l 2,12,13
 520 2 520 2 446 84 c 0,14,15
 393 141 393 141 393 223 c 0,16,17
 393 239 393 239 397 279 c 1,18,-1
 463 584 l 1,19,20
 488 713 488 713 596.5 803 c 128,-1,21
 705 893 705 893 836 893 c 2,22,-1
 1225 893 l 1,23,-1
 1163 602 l 1,24,25
 1153 543 1153 543 1120 491.5 c 128,-1,26
 1087 440 1087 440 1036 397 c 0,27,28
 927 309 927 309 795 299 c 1,29,-1
 780 494 l 1,30,31
 805 494 805 494 833.5 503 c 128,-1,32
 862 512 862 512 885 528 c 0,33,34
 932 561 932 561 940 606 c 2,35,-1
 956 688 l 1,36,-1
 862 688 l 2,37,38
 796 688 796 688 750 651 c 1,39,40
 697 620 697 620 682 567 c 1,41,-1
 639 356 l 1,42,43
 635 323 635 323 635 313 c 0,44,45
 635 280 635 280 657 244 c 1,46,47
 682 193 682 193 741 193 c 2,48,-1
 981 193 l 2,49,50
 1053 193 1053 193 1116.5 244 c 128,-1,51
 1180 295 1180 295 1196 360 c 1,52,-1
 1212 442 l 1,53,-1
 1438 442 l 1,54,-1
 1421 360 l 2,55,56
 1417 331 1417 331 1417 317 c 0,57,58
 1417 274 1417 274 1446 244 c 1,59,60
 1479 193 1479 193 1546 193 c 2,61,-1
 1815 193 l 2,62,63
 1862 193 1862 193 1909 240 c 1,64,65
 1954 293 1954 293 1970 358 c 1,66,-1
 2116 1057 l 2,67,68
 2120 1086 2120 1086 2120 1098 c 0,69,70
 2120 1129 2120 1129 2100.5 1161.5 c 128,-1,71
 2081 1194 2081 1194 2023 1194 c 2,72,-1
 1784 1194 l 2,73,74
 1737 1194 1737 1194 1697 1158 c 128,-1,75
 1657 1122 1657 1122 1649 1071 c 1,76,-1
 1632 999 l 1,77,-1
 1409 999 l 1,78,-1
 1427 1081 l 1,79,80
 1435 1128 1435 1128 1397 1159 c 0,81,82
 1379 1173 1379 1173 1350 1181.5 c 128,-1,83
 1321 1190 1321 1190 1284 1190 c 2,84,-1
 938 1190 l 2,85,86
 891 1190 891 1190 844 1151 c 1,87,88
 797 1120 797 1120 758 1053 c 1,89,-1
 614 1163 l 1,90,91
 680 1267 680 1267 768 1325.5 c 128,-1,92
 856 1384 856 1384 938 1384 c 2,93,-1
 1372 1384 l 2,94,95
 1460 1384 1460 1384 1512.5 1341 c 128,-1,96
 1565 1298 1565 1298 1573 1237 c 1,97,98
 1620 1305 1620 1305 1686 1343 c 1,99,100
 1719 1366 1719 1366 1749.5 1374 c 128,-1,101
 1780 1382 1780 1382 1817 1382 c 2,102,-1
 2097 1382 l 2,103,104
 2183 1382 2183 1382 2245.5 1346.5 c 128,-1,105
 2308 1311 2308 1311 2333 1245 c 0,106,107
 2349 1202 2349 1202 2349 1155 c 0,108,109
 2349 1141 2349 1141 2345 1108 c 1,110,-1
 2173 301 l 2,0,1
EndSplineSet
EndChar

StartChar: ovowel
Encoding: 116 3218 116
Width: 1880
Flags: W
LayerCount: 2
Fore
SplineSet
1982 240 m 0,0,1
 1959 136 1959 136 1888 74 c 0,2,3
 1820 2 1820 2 1735 2 c 0,4,-1
 1305 2 l 0,5,6
 1239 2 1239 2 1200 39 c 0,7,8
 1161 70 1161 70 1153 129 c 0,9,10
 1128 74 1128 74 1077 38 c 128,-1,11
 1026 2 1026 2 975 2 c 0,12,-1
 584 2 l 0,13,14
 475 2 475 2 410 68 c 0,15,16
 359 115 359 115 358 176 c 0,17,18
 358 186 358 186 362 219 c 0,19,-1
 428 528 l 0,20,-1
 705 690 l 0,21,22
 873 786 873 786 937 833.5 c 128,-1,23
 1001 881 1001 881 1016 932 c 0,24,-1
 1053 1112 l 0,25,26
 1061 1151 1061 1151 1041.5 1172.5 c 128,-1,27
 1022 1194 1022 1194 989 1194 c 0,28,-1
 795 1194 l 0,29,-1
 772 1083 l 0,30,31
 768 1052 768 1052 784.5 1026.5 c 128,-1,32
 801 1001 801 1001 838 1001 c 0,33,-1
 866 1001 l 0,34,-1
 823 805 l 0,35,-1
 727 805 l 0,36,37
 631 805 631 805 580 887 c 0,38,39
 541 948 541 948 541 1020 c 0,40,41
 541 1049 541 1049 549 1081 c 0,42,-1
 614 1386 l 0,43,-1
 1090 1386 l 0,44,45
 1158 1386 1158 1386 1210 1357.5 c 128,-1,46
 1262 1329 1262 1329 1280 1291 c 128,-1,47
 1298 1253 1298 1253 1298 1223 c 0,48,49
 1298 1213 1298 1213 1294 1184 c 0,50,-1
 1227 860 l 0,51,52
 1219 809 1219 809 1157 762 c 0,53,54
 1120 733 1120 733 1090 715 c 0,55,56
 1014 668 1014 668 870 582 c 0,57,-1
 641 444 l 0,58,-1
 612 305 l 0,59,60
 610 295 610 295 610 279 c 0,61,62
 610 254 610 254 631.5 225.5 c 128,-1,63
 653 197 653 197 698 197 c 0,64,-1
 950 197 l 0,65,66
 993 197 993 197 1036 233 c 0,67,68
 1081 278 1081 278 1090 324 c 0,69,-1
 1108 418 l 0,70,-1
 1331 418 l 0,71,-1
 1315 336 l 0,72,73
 1313 326 1313 326 1313 307 c 0,74,75
 1313 274 1313 274 1331 242 c 0,76,77
 1370 203 1370 203 1421 203 c 0,78,-1
 1645 203 l 0,79,80
 1688 203 1688 203 1731 240 c 0,81,82
 1776 285 1776 285 1784 330 c 0,83,-1
 1827 526 l 0,84,85
 1835 567 1835 567 1813.5 592.5 c 128,-1,86
 1792 618 1792 618 1753 618 c 0,87,-1
 1679 618 l 0,88,-1
 1718 813 l 0,89,-1
 1913 813 l 0,90,91
 2003 813 2003 813 2040 760 c 0,92,93
 2073 721 2073 721 2073 668 c 0,94,95
 2073 658 2073 658 2068 625 c 0,96,-1
 1982 240 l 0,0,1
EndSplineSet
EndChar

StartChar: oovowel
Encoding: 117 3219 117
Width: 1880
Flags: W
LayerCount: 2
Fore
SplineSet
1989 268 m 0,0,1
 1973 192 1973 192 1928.5 133 c 128,-1,2
 1884 74 1884 74 1829 38 c 128,-1,3
 1774 2 1774 2 1712 2 c 0,4,-1
 1309 2 l 0,5,6
 1243 2 1243 2 1204 39 c 0,7,8
 1165 70 1165 70 1157 129 c 0,9,10
 1141 102 1141 102 1117.5 80.5 c 128,-1,11
 1094 59 1094 59 1065 37 c 0,12,13
 1006 4 1006 4 952 4 c 0,14,-1
 590 4 l 0,15,16
 481 4 481 4 416 70 c 0,17,18
 365 117 365 117 365 178 c 0,19,20
 365 188 365 188 369 221 c 0,21,-1
 434 530 l 0,22,-1
 711 692 l 0,23,24
 879 788 879 788 943.5 835.5 c 128,-1,25
 1008 883 1008 883 1022 934 c 0,26,-1
 1053 1085 l 0,27,28
 1061 1128 1061 1128 1038 1165 c 0,29,30
 1013 1196 1013 1196 967 1196 c 0,31,-1
 801 1196 l 0,32,-1
 778 1085 l 0,33,34
 774 1054 774 1054 790.5 1029 c 128,-1,35
 807 1004 807 1004 844 1004 c 0,36,-1
 872 1004 l 0,37,-1
 829 807 l 0,38,-1
 733 807 l 0,39,40
 637 807 637 807 586 889 c 0,41,42
 547 950 547 950 547 1022 c 0,43,44
 547 1051 547 1051 555 1083 c 0,45,-1
 621 1389 l 0,46,-1
 836 1389 l 0,47,48
 650 1520 650 1520 666 1602 c 0,49,-1
 702 1778 l 0,50,51
 712 1846 712 1846 795 1896 c 0,52,53
 863 1943 863 1943 958 1944 c 0,54,-1
 1206 1944 l 0,55,-1
 1167 1747 l 0,56,-1
 991 1747 l 0,57,58
 960 1747 960 1747 936.5 1730.5 c 128,-1,59
 913 1714 913 1714 911 1696 c 0,60,-1
 893 1610 l 0,61,62
 877 1524 877 1524 1071 1386 c 0,63,-1
 1096 1386 l 0,64,65
 1164 1386 1164 1386 1216 1357.5 c 128,-1,66
 1268 1329 1268 1329 1286.5 1291 c 128,-1,67
 1305 1253 1305 1253 1305 1223 c 0,68,69
 1305 1213 1305 1213 1300 1184 c 0,70,-1
 1233 860 l 0,71,72
 1225 809 1225 809 1163 762 c 0,73,74
 1126 733 1126 733 1096 715 c 0,75,76
 1020 668 1020 668 877 582 c 0,77,-1
 647 444 l 0,78,-1
 618 305 l 0,79,80
 616 295 616 295 616 279 c 0,81,82
 616 254 616 254 637.5 225.5 c 128,-1,83
 659 197 659 197 705 197 c 0,84,-1
 956 197 l 0,85,86
 999 197 999 197 1042 233 c 0,87,88
 1087 278 1087 278 1096 324 c 0,89,-1
 1114 418 l 0,90,-1
 1337 418 l 0,91,-1
 1315 307 l 0,92,93
 1305 264 1305 264 1338.5 230.5 c 128,-1,94
 1372 197 1372 197 1430 197 c 0,95,-1
 1653 197 l 0,96,97
 1696 197 1696 197 1739 233 c 0,98,99
 1784 278 1784 278 1792 324 c 0,100,-1
 1835 520 l 0,101,102
 1843 561 1843 561 1821.5 586.5 c 128,-1,103
 1800 612 1800 612 1761 612 c 0,104,-1
 1688 612 l 0,105,-1
 1726 807 l 0,106,-1
 1894 807 l 0,107,108
 1984 807 1984 807 2036 733 c 0,109,110
 2069 682 2069 682 2068 616 c 0,111,112
 2068 591 2068 591 2060 559 c 0,113,-1
 1989 268 l 0,0,1
EndSplineSet
EndChar

StartChar: auvowel
Encoding: 118 3220 118
Width: 1871
Flags: W
LayerCount: 2
Fore
SplineSet
2208 1063 m 1,0,-1
 1604 1063 l 2,1,2
 1510 1063 1510 1063 1458 1143 c 1,3,4
 1421 1196 1421 1196 1421 1268 c 0,5,6
 1421 1311 1421 1311 1425 1333 c 2,7,-1
 1473 1565 l 1,8,-1
 1976 1565 l 1,9,-1
 1937 1370 l 1,10,-1
 1632 1370 l 1,11,-1
 1624 1333 l 1,12,13
 1620 1302 1620 1302 1636 1280 c 1,14,15
 1659 1257 1659 1257 1690 1257 c 2,16,-1
 2023 1257 l 1,17,-1
 2105 1638 l 1,18,19
 2113 1695 2113 1695 2083.5 1728 c 128,-1,20
 2054 1761 2054 1761 2007 1761 c 2,21,-1
 1417 1761 l 1,22,23
 1456 1730 1456 1730 1448 1698 c 1,24,-1
 1438 1640 l 1,25,26
 1422 1574 1422 1574 1378 1532 c 1,27,28
 1325 1487 1325 1487 1278 1487 c 2,29,-1
 651 1487 l 1,30,-1
 694 1681 l 1,31,-1
 1227 1681 l 2,32,33
 1252 1681 1252 1681 1271 1700.5 c 128,-1,34
 1290 1720 1290 1720 1292 1735 c 1,35,36
 1290 1737 1290 1737 1288 1737 c 0,37,38
 1265 1753 1265 1753 1243 1761 c 1,39,-1
 711 1761 l 1,40,-1
 750 1958 l 1,41,-1
 2077 1958 l 2,42,43
 2167 1958 2167 1958 2235.5 1921 c 128,-1,44
 2304 1884 2304 1884 2326.5 1837 c 128,-1,45
 2349 1790 2349 1790 2349 1745 c 0,46,47
 2349 1731 2349 1731 2345 1698 c 1,48,-1
 2208 1063 l 1,0,-1
1982 242 m 1,49,50
 1964 146 1964 146 1894.5 74 c 128,-1,51
 1825 2 1825 2 1739 2 c 2,52,-1
 1300 2 l 2,53,54
 1241 2 1241 2 1204 39 c 1,55,56
 1161 66 1161 66 1153 127 c 1,57,58
 1135 96 1135 96 1118.5 79.5 c 128,-1,59
 1102 63 1102 63 1069 35 c 1,60,61
 1018 2 1018 2 973 2 c 2,62,-1
 610 2 l 2,63,64
 497 2 497 2 424 88 c 0,65,66
 377 145 377 145 377 225 c 0,67,68
 377 262 377 262 381 281 c 2,69,-1
 434 532 l 1,70,-1
 715 694 l 2,71,72
 903 805 903 805 955.5 845 c 128,-1,73
 1008 885 1008 885 1022 936 c 1,74,-1
 1065 1141 l 2,75,76
 1075 1198 1075 1198 993 1198 c 2,77,-1
 799 1198 l 1,78,-1
 776 1087 l 1,79,80
 772 1056 772 1056 788.5 1031 c 128,-1,81
 805 1006 805 1006 842 1006 c 2,82,-1
 895 1006 l 1,83,-1
 852 809 l 1,84,-1
 727 809 l 2,85,86
 631 809 631 809 580 891 c 1,87,88
 543 957 543 957 543 1024 c 0,89,90
 543 1053 543 1053 551 1085 c 2,91,-1
 616 1391 l 1,92,-1
 1092 1391 l 2,93,94
 1160 1391 1160 1391 1210 1366 c 1,95,96
 1261 1335 1261 1335 1280.5 1297.5 c 128,-1,97
 1300 1260 1300 1260 1300 1229 c 0,98,99
 1300 1219 1300 1219 1296 1190 c 2,100,-1
 1229 866 l 2,101,102
 1221 823 1221 823 1182 791 c 1,103,104
 1143 752 1143 752 1075 709 c 2,105,-1
 856 575 l 1,106,-1
 645 451 l 1,107,-1
 616 311 l 2,108,109
 614 301 614 301 614 285 c 0,110,111
 614 260 614 260 633.5 231.5 c 128,-1,112
 653 203 653 203 700 203 c 2,113,-1
 981 203 l 2,114,115
 1018 203 1018 203 1048.5 243 c 128,-1,116
 1079 283 1079 283 1090 330 c 2,117,-1
 1108 424 l 1,118,-1
 1331 424 l 1,119,-1
 1309 313 l 2,120,121
 1301 270 1301 270 1324.5 236.5 c 128,-1,122
 1348 203 1348 203 1393 203 c 2,123,-1
 1616 203 l 2,124,125
 1675 203 1675 203 1725.5 244 c 128,-1,126
 1776 285 1776 285 1784 330 c 2,127,-1
 1827 526 l 2,128,129
 1835 571 1835 571 1811.5 594.5 c 128,-1,130
 1788 618 1788 618 1749 618 c 2,131,-1
 1681 618 l 1,132,-1
 1720 813 l 1,133,-1
 1917 813 l 2,134,135
 2003 813 2003 813 2046 760 c 0,136,137
 2077 721 2077 721 2077 668 c 0,138,139
 2077 658 2077 658 2073 625 c 1,140,-1
 1982 242 l 1,49,50
EndSplineSet
EndChar

StartChar: ka.base
Encoding: 120 -1 120
Width: 1079
Flags: W
AnchorPoint: "s" 569 -127 basechar 0
LayerCount: 2
Fore
SplineSet
1638 811 m 1,0,-1
 1235 811 l 1,1,2
 1339 735 1339 735 1391 639 c 0,3,4
 1430 567 1430 567 1430 514 c 0,5,6
 1430 500 1430 500 1430 489 c 1,7,8
 1426 479 1426 479 1425 477 c 2,9,-1
 1380 266 l 1,10,11
 1362 162 1362 162 1275 89 c 128,-1,12
 1188 16 1188 16 1094 16 c 2,13,-1
 590 12 l 2,14,15
 502 12 502 12 455 70 c 0,16,17
 439 88 439 88 430.5 114.5 c 128,-1,18
 422 141 422 141 422 166 c 0,19,20
 422 189 422 189 424 203 c 2,21,-1
 477 455 l 2,22,23
 506 594 506 594 821 817 c 1,24,-1
 387 817 l 1,25,-1
 430 1014 l 1,26,-1
 961 1014 l 1,27,-1
 999 1208 l 1,28,-1
 469 1208 l 1,29,-1
 512 1403 l 1,30,-1
 1438 1403 l 1,31,-1
 1395 1208 l 1,32,-1
 1223 1208 l 1,33,-1
 1184 1014 l 1,34,-1
 1688 1014 l 1,35,-1
 1638 811 l 1,0,-1
1176 317 m 1,36,-1
 1204 446 l 2,37,38
 1208 469 1208 469 1208 485 c 0,39,40
 1208 538 1208 538 1169 600 c 1,41,42
 1122 690 1122 690 1020 750 c 1,43,44
 737 607 737 607 707 459 c 2,45,-1
 676 307 l 2,46,47
 674 297 674 297 674 281 c 0,48,49
 674 267 674 267 684 240 c 1,50,51
 707 215 707 215 737 215 c 1,52,-1
 735 207 l 1,53,-1
 1087 207 l 2,54,55
 1118 207 1118 207 1145 242.5 c 128,-1,56
 1172 278 1172 278 1176 317 c 1,36,-1
EndSplineSet
EndChar

StartChar: ka.imathra
Encoding: 121 -1 121
Width: 1269
Flags: W
AnchorPoint: "s" 553 -164 basechar 0
LayerCount: 2
Fore
SplineSet
1507 811 m 1,0,-1
 1196 811 l 1,1,2
 1311 725 1311 725 1364 621 c 0,3,4
 1401 549 1401 549 1401 483 c 0,5,6
 1401 467 1401 467 1397 438 c 2,7,-1
 1346 199 l 2,8,9
 1330 119 1330 119 1261 61.5 c 128,-1,10
 1192 4 1192 4 1112 4 c 2,11,-1
 580 4 l 2,12,13
 486 4 486 4 440.5 56.5 c 128,-1,14
 395 109 395 109 395 166 c 0,15,16
 395 184 395 184 397 195 c 2,17,-1
 455 463 l 1,18,19
 471 516 471 516 532 575 c 0,20,21
 550 593 550 593 633 662 c 0,22,23
 737 750 737 750 803 803 c 1,24,-1
 469 803 l 1,25,-1
 512 999 l 1,26,-1
 1012 999 l 1,27,-1
 1225 1210 l 1,28,-1
 1286 1516 l 2,29,30
 1294 1555 1294 1555 1266 1554 c 2,31,-1
 1126 1554 l 1,32,-1
 1102 1432 l 2,33,34
 1100 1422 1100 1422 1114 1405.5 c 128,-1,35
 1128 1389 1128 1389 1151 1389 c 2,36,-1
 1180 1389 l 1,37,-1
 1137 1194 l 1,38,-1
 1026 1194 l 2,39,40
 950 1194 950 1194 899 1245 c 1,41,42
 866 1284 866 1284 866 1329 c 0,43,44
 866 1347 866 1347 868 1358 c 2,45,-1
 950 1747 l 1,46,-1
 1370 1747 l 2,47,48
 1450 1747 1450 1747 1497 1694 c 1,49,50
 1526 1657 1526 1657 1526 1604 c 0,51,52
 1526 1573 1526 1573 1522 1556 c 2,53,-1
 1442 1182 l 1,54,-1
 1253 999 l 1,55,-1
 1548 999 l 1,56,-1
 1507 811 l 1,0,-1
1139 272 m 1,57,-1
 1171 438 l 2,58,59
 1189 526 1189 526 981 735 c 1,60,61
 686 520 686 520 664 426 c 1,62,-1
 627 244 l 2,63,64
 623 226 623 226 641 207 c 128,-1,65
 659 188 659 188 688 188 c 2,66,-1
 1061 188 l 2,67,68
 1086 188 1086 188 1107.5 213.5 c 128,-1,69
 1129 239 1129 239 1139 272 c 1,57,-1
EndSplineSet
LCarets2: 1 0
EndChar

StartChar: ka.sub
Encoding: 122 -1 122
Width: 333
Flags: W
AnchorPoint: "Sub" -262 541 mark 0
AnchorPoint: "Sub" 406 -844 basemark 0
LayerCount: 2
Fore
SplineSet
612 -297 m 1,0,-1
 360 -297 l 1,1,2
 491 -397 491 -397 469 -492 c 1,3,-1
 436 -657 l 2,4,5
 420 -731 420 -731 343 -786.5 c 128,-1,6
 266 -842 266 -842 176 -842 c 2,7,-1
 -141 -842 l 1,8,9
 -241 -834 -241 -834 -290.5 -781.5 c 128,-1,10
 -340 -729 -340 -729 -340 -664 c 0,11,12
 -340 -639 -340 -639 -338 -629 c 2,13,-1
 -319 -535 l 1,14,15
 -288 -433 -288 -433 -113 -295 c 1,16,-1
 -389 -295 l 1,17,-1
 -352 -127 l 1,18,-1
 78 -127 l 1,19,-1
 240 18 l 1,20,-1
 358 129 l 2,21,22
 387 158 387 158 391 188 c 1,23,-1
 449 457 l 2,24,25
 465 529 465 529 362 573 c 1,26,-1
 514 684 l 1,27,28
 666 559 666 559 649 479 c 2,29,-1
 582 156 l 2,30,31
 574 111 574 111 520 63 c 2,32,-1
 287 -133 l 1,33,-1
 649 -133 l 1,34,-1
 612 -297 l 1,0,-1
258 -596 m 1,35,-1
 276 -498 l 2,36,37
 286 -447 286 -447 242.5 -391.5 c 128,-1,38
 199 -336 199 -336 113 -305 c 1,39,40
 25 -330 25 -330 -43 -391 c 1,41,42
 -102 -457 -102 -457 -119 -524 c 1,43,-1
 -135 -606 l 2,44,45
 -143 -639 -143 -639 -117.5 -662.5 c 128,-1,46
 -92 -686 -92 -686 -53 -686 c 2,47,-1
 170 -686 l 2,48,49
 203 -686 203 -686 221 -657 c 1,50,51
 246 -633 246 -633 258 -596 c 1,35,-1
EndSplineSet
LCarets2: 1 0
EndChar

StartChar: ka_rvocalicmatra.sub
Encoding: 123 -1 123
Width: 663
Flags: W
LayerCount: 2
Fore
SplineSet
1219 -563 m 2,0,1
 1194 -680 1194 -680 1106 -760 c 1,2,3
 1024 -842 1024 -842 922 -842 c 2,4,-1
 129 -838 l 2,5,6
 39 -838 39 -838 -14 -776 c 0,7,8
 -32 -758 -32 -758 -40.5 -731.5 c 128,-1,9
 -49 -705 -49 -705 -49 -674 c 0,10,11
 -49 -645 -49 -645 -47 -631 c 2,12,-1
 33 -256 l 1,13,-1
 342 -256 l 1,14,15
 268 -225 268 -225 215 -178 c 1,16,17
 176 -125 176 -125 184 -94 c 1,18,-1
 223 102 l 2,19,20
 241 192 241 192 403 295 c 1,21,-1
 180 295 l 1,22,-1
 213 463 l 1,23,-1
 608 463 l 1,24,-1
 655 686 l 1,25,-1
 874 686 l 1,26,-1
 827 463 l 1,27,-1
 1219 463 l 1,28,-1
 1186 295 l 1,29,-1
 889 295 l 1,30,31
 969 264 969 264 1006 217 c 1,32,33
 1035 172 1035 172 1034 133 c 0,34,35
 1034 115 1034 115 1032 106 c 2,36,-1
 1008 -16 l 1,37,38
 985 -114 985 -114 901 -184 c 128,-1,39
 817 -254 817 -254 717 -254 c 2,40,-1
 537 -254 l 1,41,-1
 504 -420 l 1,42,-1
 199 -420 l 1,43,-1
 162 -600 l 2,44,45
 154 -631 154 -631 178 -647 c 1,46,47
 201 -670 201 -670 238 -670 c 2,48,-1
 907 -670 l 2,49,50
 938 -670 938 -670 968.5 -627 c 128,-1,51
 999 -584 999 -584 1014 -516 c 2,52,-1
 1130 45 l 1,53,54
 1140 104 1140 104 1075 133 c 1,55,-1
 1243 272 l 1,56,57
 1302 245 1302 245 1339 184 c 1,58,59
 1355 137 1355 137 1356 94 c 0,60,61
 1356 69 1356 69 1354 57 c 2,62,-1
 1219 -563 l 2,0,1
813 18 m 2,63,-1
 831 113 l 2,64,65
 835 142 835 142 836 156 c 0,66,67
 836 185 836 185 817 223 c 1,68,69
 799 276 799 276 733 301 c 1,70,-1
 580 301 l 1,71,72
 521 270 521 270 475.5 219 c 128,-1,73
 430 168 430 168 422 123 c 2,74,-1
 391 -16 l 1,75,76
 389 -47 389 -47 407.5 -66.5 c 128,-1,77
 426 -86 426 -86 459 -86 c 2,78,-1
 739 -82 l 2,79,80
 762 -82 762 -82 786 -53 c 1,81,82
 805 -23 805 -23 813 18 c 2,63,-1
EndSplineSet
EndChar

StartChar: kha
Encoding: 124 3222 124
Width: 1914
Flags: W
LayerCount: 2
Fore
SplineSet
2011 217 m 2,0,1
 1993 127 1993 127 1934.5 61.5 c 128,-1,2
 1876 -4 1876 -4 1817 -4 c 2,3,-1
 1520 -4 l 2,4,5
 1440 -4 1440 -4 1368 66 c 1,6,-1
 1223 178 l 1,7,8
 1184 96 1184 96 1105 45 c 128,-1,9
 1026 -6 1026 -6 936 -6 c 2,10,-1
 479 -6 l 1,11,12
 432 -2 432 -2 401.5 7 c 128,-1,13
 371 16 371 16 342 41 c 0,14,15
 291 86 291 86 305 152 c 2,16,-1
 362 428 l 2,17,18
 378 504 378 504 444 555 c 128,-1,19
 510 606 510 606 584 606 c 2,20,-1
 987 606 l 2,21,22
 1087 606 1087 606 1112 549 c 1,23,-1
 1227 1081 l 2,24,25
 1231 1110 1231 1110 1231 1120 c 256,26,27
 1231 1130 1231 1130 1231 1145 c 1,28,29
 1227 1155 1227 1155 1227 1157 c 0,30,31
 1204 1188 1204 1188 1186 1188 c 2,32,-1
 932 1188 l 2,33,34
 922 1188 922 1188 899 1163 c 1,35,36
 883 1132 883 1132 874 1096 c 2,37,-1
 831 885 l 1,38,-1
 606 885 l 1,39,-1
 666 1180 l 1,40,41
 689 1270 689 1270 762 1323 c 1,42,43
 834 1382 834 1382 936 1382 c 2,44,-1
 1284 1382 l 2,45,46
 1380 1382 1380 1382 1432 1307 c 0,47,48
 1471 1250 1471 1250 1470 1182 c 0,49,50
 1470 1153 1470 1153 1462 1122 c 2,51,-1
 1311 403 l 1,52,-1
 1464 236 l 1,53,54
 1525 179 1525 179 1591 178 c 2,55,-1
 1720 178 l 2,56,57
 1751 178 1751 178 1774.5 211 c 128,-1,58
 1798 244 1798 244 1806 289 c 2,59,-1
 1980 1102 l 2,60,61
 1988 1139 1988 1139 1966 1161.5 c 128,-1,62
 1944 1184 1944 1184 1905 1184 c 2,63,-1
 1665 1184 l 1,64,-1
 1704 1378 l 1,65,-1
 2038 1378 l 2,66,67
 2134 1378 2134 1378 2179 1313 c 1,68,69
 2218 1270 2218 1270 2218 1202 c 0,70,71
 2218 1171 2218 1171 2216 1157 c 2,72,-1
 2011 217 l 2,0,1
1044 264 m 1,73,-1
 1061 336 l 1,74,75
 1014 404 1014 404 909 403 c 2,76,-1
 657 403 l 2,77,78
 626 403 626 403 599.5 392 c 128,-1,79
 573 381 573 381 569 367 c 2,80,-1
 541 236 l 2,81,82
 537 213 537 213 559 199 c 1,83,84
 569 181 569 181 600 180 c 2,85,-1
 938 180 l 2,86,87
 977 180 977 180 1009.5 206.5 c 128,-1,88
 1042 233 1042 233 1044 264 c 1,73,-1
EndSplineSet
LCarets2: 1 0
EndChar

StartChar: kha.base
Encoding: 125 -1 125
Width: 1581
Flags: W
LayerCount: 2
Fore
SplineSet
2017 217 m 2,0,1
 2007 166 2007 166 1988.5 129 c 128,-1,2
 1970 92 1970 92 1939 61 c 1,3,4
 1882 -5 1882 -5 1823 -4 c 1,5,-1
 1819 0 l 1,6,-1
 1522 0 l 2,7,8
 1446 0 1446 0 1372 72 c 1,9,-1
 1243 168 l 1,10,11
 1210 94 1210 94 1127 47 c 128,-1,12
 1044 0 1044 0 944 0 c 2,13,-1
 485 0 l 2,14,15
 395 0 395 0 345 45 c 128,-1,16
 295 90 295 90 309 156 c 2,17,-1
 367 432 l 2,18,19
 383 508 383 508 449.5 559 c 128,-1,20
 516 610 516 610 598 610 c 2,21,-1
 989 610 l 2,22,23
 1083 610 1083 610 1114 553 c 1,24,-1
 1233 1114 l 2,25,26
 1235 1124 1235 1124 1235 1143 c 0,27,28
 1235 1157 1235 1157 1223.5 1175.5 c 128,-1,29
 1212 1194 1212 1194 1182 1194 c 2,30,-1
 958 1194 l 2,31,32
 933 1194 933 1194 903 1169 c 1,33,34
 878 1138 878 1138 870 1102 c 2,35,-1
 827 891 l 1,36,-1
 604 891 l 1,37,-1
 664 1186 l 1,38,39
 687 1276 687 1276 760 1329 c 1,40,41
 832 1388 832 1388 932 1389 c 2,42,-1
 1284 1389 l 2,43,44
 1380 1389 1380 1389 1432 1313 c 1,45,46
 1469 1254 1469 1254 1468 1192 c 0,47,48
 1468 1163 1468 1163 1460 1130 c 2,49,-1
 1309 412 l 1,50,-1
 1470 272 l 1,51,52
 1546 188 1546 188 1591 188 c 2,53,-1
 1749 188 l 2,54,55
 1786 188 1786 188 1794 233 c 2,56,-1
 1948 961 l 2,57,58
 1952 979 1952 979 1952 1018 c 0,59,60
 1952 1084 1952 1084 1915 1122 c 1,61,62
 1858 1190 1858 1190 1763 1190 c 2,63,-1
 1663 1190 l 1,64,-1
 1702 1384 l 1,65,-1
 1929 1384 l 1,66,67
 2019 1374 2019 1374 2083.5 1309.5 c 128,-1,68
 2148 1245 2148 1245 2167 1157 c 0,69,70
 2177 1112 2177 1112 2178 1096.5 c 128,-1,71
 2179 1081 2179 1081 2179 1063 c 0,72,73
 2179 1018 2179 1018 2165 961 c 1,74,-1
 2017 217 l 2,0,1
1038 272 m 1,75,-1
 1049 326 l 1,76,77
 975 412 975 412 860 412 c 2,78,-1
 621 412 l 2,79,80
 605 412 605 412 595.5 406.5 c 128,-1,81
 586 401 586 401 584 401 c 0,82,83
 568 391 568 391 563 377 c 2,84,-1
 535 246 l 2,85,86
 531 223 531 223 553 209 c 1,87,88
 563 191 563 191 594 190 c 2,89,-1
 932 190 l 2,90,91
 969 190 969 190 1002.5 215.5 c 128,-1,92
 1036 241 1036 241 1038 272 c 1,75,-1
EndSplineSet
EndChar

StartChar: kha.imathra
Encoding: 126 -1 126
Width: 1914
Flags: W
LayerCount: 2
Fore
SplineSet
2017 217 m 2,0,1
 2007 166 2007 166 1988.5 129 c 128,-1,2
 1970 92 1970 92 1939 61 c 1,3,4
 1882 -5 1882 -5 1823 -4 c 1,5,-1
 1819 0 l 1,6,-1
 1522 0 l 2,7,8
 1446 0 1446 0 1372 72 c 1,9,-1
 1229 182 l 1,10,11
 1192 106 1192 106 1116 54 c 128,-1,12
 1040 2 1040 2 961 2 c 2,13,-1
 485 2 l 2,14,15
 395 2 395 2 345 47 c 128,-1,16
 295 92 295 92 309 158 c 2,17,-1
 367 434 l 2,18,19
 383 510 383 510 449.5 561 c 128,-1,20
 516 612 516 612 598 612 c 2,21,-1
 989 612 l 2,22,23
 1055 612 1055 612 1112 530 c 1,24,-1
 1229 1090 l 2,25,26
 1231 1100 1231 1100 1231 1122 c 0,27,28
 1231 1147 1231 1147 1221 1165 c 1,29,30
 1196 1196 1196 1196 1159 1196 c 2,31,-1
 963 1196 l 2,32,33
 938 1196 938 1196 907 1171 c 1,34,35
 882 1140 882 1140 874 1104 c 2,36,-1
 831 893 l 1,37,-1
 608 893 l 1,38,-1
 668 1188 l 1,39,40
 691 1278 691 1278 764 1331 c 1,41,42
 836 1390 836 1390 936 1391 c 2,43,-1
 1288 1391 l 2,44,45
 1384 1391 1384 1391 1436 1315 c 1,46,47
 1473 1256 1473 1256 1473 1194 c 0,48,49
 1473 1165 1473 1165 1464 1133 c 2,50,-1
 1313 414 l 1,51,-1
 1446 274 l 1,52,53
 1548 190 1548 190 1653 190 c 2,54,-1
 1724 190 l 2,55,56
 1755 190 1755 190 1776.5 211.5 c 128,-1,57
 1798 233 1798 233 1806 264 c 2,58,-1
 2023 1298 l 2,59,60
 2025 1312 2025 1312 2025 1335 c 256,61,62
 2025 1358 2025 1358 2018 1374.5 c 128,-1,63
 2011 1391 2011 1391 1978 1391 c 2,64,-1
 1907 1391 l 1,65,-1
 1868 1382 l 1,66,67
 1860 1378 1860 1378 1854.5 1371 c 128,-1,68
 1849 1364 1849 1364 1847 1356 c 2,69,-1
 1837 1311 l 1,70,71
 1833 1272 1833 1272 1847.5 1250.5 c 128,-1,72
 1862 1229 1862 1229 1878 1229 c 2,73,-1
 1960 1229 l 1,74,-1
 1917 1032 l 1,75,-1
 1737 1032 l 2,76,77
 1665 1032 1665 1032 1622 1092 c 0,78,79
 1591 1137 1591 1137 1591 1188 c 0,80,81
 1591 1198 1591 1198 1595 1227 c 2,82,-1
 1634 1421 l 2,83,84
 1650 1495 1650 1495 1724 1542 c 128,-1,85
 1798 1589 1798 1589 1880 1589 c 2,86,-1
 2103 1589 l 2,87,88
 2189 1589 2189 1589 2236 1522 c 1,89,90
 2267 1469 2267 1469 2267 1409 c 0,91,92
 2267 1393 2267 1393 2263 1360 c 1,93,-1
 2017 217 l 2,0,1
1051 281 m 2,94,-1
 1061 324 l 1,95,96
 967 420 967 420 887 420 c 2,97,-1
 649 420 l 2,98,99
 635 420 635 420 623.5 418 c 128,-1,100
 612 416 612 416 593.5 407.5 c 128,-1,101
 575 399 575 399 571 385 c 2,102,-1
 549 270 l 1,103,104
 541 245 541 245 551 221 c 1,105,106
 553 198 553 198 575 199 c 2,107,-1
 938 199 l 2,108,109
 975 199 975 199 1009 224.5 c 128,-1,110
 1043 250 1043 250 1051 281 c 2,94,-1
EndSplineSet
LCarets2: 1 0
EndChar

StartChar: kha.sub
Encoding: 127 -1 127
Width: 317
Flags: W
AnchorPoint: "Sub" -614 514 mark 0
AnchorPoint: "Sub" 414 -858 basemark 0
LayerCount: 2
Fore
SplineSet
524 -485 m 2,0,1
 499 -604 499 -604 398 -691 c 128,-1,2
 297 -778 297 -778 182 -778 c 2,3,-1
 45 -778 l 2,4,5
 14 -778 14 -778 -102 -735 c 1,6,7
 -254 -835 -254 -835 -330 -836 c 2,8,-1
 -635 -836 l 1,9,-1
 -625 -836 l 2,10,11
 -697 -836 -697 -836 -748 -791 c 1,12,13
 -781 -758 -781 -758 -780 -713 c 0,14,15
 -780 -695 -780 -695 -778 -684 c 2,16,-1
 -750 -561 l 1,17,18
 -740 -493 -740 -493 -674 -438 c 128,-1,19
 -608 -383 -608 -383 -528 -383 c 2,20,-1
 -305 -383 l 2,21,22
 -272 -383 -272 -383 -260 -397 c 1,23,-1
 -143 -492 l 1,24,-1
 -111 -324 l 2,25,26
 -109 -316 -109 -316 -109 -306.5 c 128,-1,27
 -109 -297 -109 -297 -109 -295 c 0,28,29
 -109 -262 -109 -262 -119 -244 c 1,30,31
 -146 -207 -146 -207 -178 -207 c 2,32,-1
 -207 -207 l 1,33,-1
 -231 -317 l 1,34,-1
 -426 -317 l 1,35,-1
 -369 -51 l 1,36,-1
 -100 -51 l 2,37,38
 9 -51 9 -51 61 -131 c 0,39,40
 98 -184 98 -184 98 -256 c 0,41,42
 98 -287 98 -287 90 -326 c 2,43,-1
 33 -606 l 1,44,45
 72 -635 72 -635 100 -635 c 2,46,-1
 211 -635 l 2,47,48
 250 -635 250 -635 280.5 -594 c 128,-1,49
 311 -553 311 -553 326 -485 c 2,50,-1
 508 383 l 2,51,52
 516 426 516 426 485 455 c 1,53,54
 460 484 460 484 403 483 c 2,55,-1
 293 483 l 1,56,-1
 330 659 l 1,57,-1
 459 659 l 2,58,59
 588 659 588 659 662 586 c 1,60,61
 715 529 715 529 715 453 c 0,62,63
 715 420 715 420 711 403 c 2,64,-1
 524 -485 l 2,0,1
-240 -651 m 1,65,66
 -316 -565 -316 -565 -403 -565 c 2,67,-1
 -526 -565 l 2,68,69
 -569 -565 -569 -565 -578 -594 c 1,70,-1
 -592 -662 l 1,71,72
 -588 -678 -588 -678 -584 -678 c 0,73,74
 -570 -686 -570 -686 -559 -686 c 2,75,-1
 -334 -686 l 2,76,77
 -316 -686 -316 -686 -240 -651 c 1,65,66
EndSplineSet
LCarets2: 1 0
EndChar

StartChar: ga.base
Encoding: 129 -1 129
Width: 1126
Flags: W
LayerCount: 2
Fore
SplineSet
1516 0 m 1,0,-1
 1292 0 l 1,1,-1
 1503 997 l 2,2,3
 1505 1007 1505 1007 1505 1032 c 0,4,5
 1505 1071 1505 1071 1495 1096 c 0,6,7
 1470 1147 1470 1147 1423 1172.5 c 128,-1,8
 1376 1198 1376 1198 1315 1198 c 2,9,-1
 1104 1198 l 2,10,11
 1014 1198 1014 1198 937 1138.5 c 128,-1,12
 860 1079 860 1079 844 995 c 2,13,-1
 633 -2 l 1,14,-1
 408 -2 l 1,15,-1
 621 1006 l 2,16,17
 646 1121 646 1121 770 1200 c 1,18,-1
 659 1200 l 1,19,-1
 702 1395 l 1,20,-1
 1485 1395 l 1,21,22
 1622 1362 1622 1362 1696 1247 c 0,23,24
 1741 1173 1741 1173 1741 1073 c 0,25,26
 1741 1036 1741 1036 1733 997 c 2,27,-1
 1516 0 l 1,0,-1
EndSplineSet
EndChar

StartChar: ga.imathra
Encoding: 130 -1 130
Width: 1492
Flags: W
LayerCount: 2
Fore
SplineSet
1544 0 m 1,0,-1
 1321 0 l 1,1,-1
 1532 997 l 2,2,3
 1536 1020 1536 1020 1536 1059 c 0,4,5
 1536 1110 1536 1110 1513 1141 c 1,6,7
 1480 1200 1480 1200 1407 1200 c 2,8,-1
 1044 1200 l 2,9,10
 972 1200 972 1200 915 1143 c 1,11,12
 858 1092 858 1092 842 1006 c 2,13,-1
 627 -2 l 1,14,-1
 401 -2 l 1,15,-1
 612 995 l 1,16,17
 630 1093 630 1093 695 1174 c 128,-1,18
 760 1255 760 1255 842 1298 c 1,19,20
 776 1323 776 1323 737 1374 c 0,21,22
 714 1407 714 1407 715 1454 c 0,23,24
 715 1477 715 1477 717 1487 c 2,25,-1
 748 1626 l 1,26,27
 758 1694 758 1694 834 1753 c 1,28,29
 910 1804 910 1804 991 1804 c 2,30,-1
 1366 1804 l 2,31,32
 1518 1804 1518 1804 1627.5 1718 c 128,-1,33
 1737 1632 1737 1632 1780 1485 c 0,34,35
 1790 1452 1790 1452 1795 1407 c 128,-1,36
 1800 1362 1800 1362 1800 1317 c 0,37,38
 1800 1243 1800 1243 1784 1167 c 2,39,-1
 1544 0 l 1,0,-1
1589 1296 m 1,40,41
 1589 1439 1589 1439 1499 1526.5 c 128,-1,42
 1409 1614 1409 1614 1255 1614 c 2,43,-1
 1059 1614 l 2,44,45
 963 1614 963 1614 952 1561 c 2,46,-1
 938 1493 l 2,47,48
 936 1483 936 1483 936 1473.5 c 128,-1,49
 936 1464 936 1464 936 1462 c 0,50,51
 936 1439 936 1439 941 1421 c 128,-1,52
 946 1403 946 1403 969 1399 c 1,53,-1
 1444 1399 l 2,54,55
 1532 1398 1532 1398 1589 1296 c 1,40,41
EndSplineSet
LCarets2: 1 0
EndChar

StartChar: ga.sub
Encoding: 131 -1 131
Width: 194
Flags: W
AnchorPoint: "Sub" -442 -123 mark 0
AnchorPoint: "Sub" 213 -877 basemark 0
LayerCount: 2
Fore
SplineSet
219 -840 m 1,0,-1
 23 -840 l 1,1,-1
 117 -393 l 2,2,3
 125 -350 125 -350 102 -313 c 1,4,5
 71 -282 71 -282 29 -283 c 2,6,-1
 -137 -283 l 2,7,8
 -184 -283 -184 -283 -222 -313.5 c 128,-1,9
 -260 -344 -260 -344 -268 -391 c 2,10,-1
 -362 -838 l 1,11,-1
 -559 -838 l 1,12,-1
 -465 -391 l 2,13,14
 -440 -274 -440 -274 -347 -193.5 c 128,-1,15
 -254 -113 -254 -113 -143 -113 c 2,16,-1
 96 -113 l 2,17,18
 213 -113 213 -113 279 -184 c 1,19,20
 326 -231 326 -231 326 -307 c 0,21,22
 326 -325 326 -325 322 -358 c 1,23,-1
 219 -840 l 1,0,-1
EndSplineSet
LCarets2: 1 0
EndChar

StartChar: gha.base
Encoding: 133 -1 133
Width: 1986
Flags: W
LayerCount: 2
Fore
SplineSet
2656 1204 m 1,0,-1
 2011 1204 l 1,1,2
 2085 1147 2085 1147 2085 1042 c 0,3,4
 2085 1013 2085 1013 2083 999 c 1,5,6
 2140 841 2140 841 2230 842 c 1,7,8
 2275 846 2275 846 2306 869.5 c 128,-1,9
 2337 893 2337 893 2339 922 c 1,10,-1
 2382 1118 l 1,11,-1
 2605 1118 l 1,12,-1
 2572 950 l 2,13,14
 2556 874 2556 874 2511 801.5 c 128,-1,15
 2466 729 2466 729 2404.5 688 c 128,-1,16
 2343 647 2343 647 2286 647 c 2,17,-1
 2175 647 l 2,18,19
 2085 647 2085 647 2028 729 c 1,20,-1
 1933 283 l 1,21,22
 1902 164 1902 164 1821.5 84 c 128,-1,23
 1741 4 1741 4 1651 4 c 2,24,-1
 1317 4 l 2,25,26
 1241 4 1241 4 1196 57 c 0,27,28
 1167 90 1167 90 1153 125 c 128,-1,29
 1139 160 1139 160 1137 193 c 1,30,31
 1092 105 1092 105 1024 53 c 0,32,33
 993 28 993 28 957.5 14 c 128,-1,34
 922 0 922 0 893 0 c 2,35,-1
 541 0 l 2,36,37
 465 0 465 0 418 72 c 1,38,39
 393 123 393 123 393 182 c 0,40,41
 393 219 393 219 397 238 c 2,42,-1
 522 836 l 1,43,-1
 831 836 l 2,44,45
 940 836 940 836 993 764 c 1,46,47
 1036 713 1036 713 1036 639 c 0,48,49
 1036 621 1036 621 1032 588 c 1,50,-1
 1022 535 l 1,51,-1
 797 535 l 1,52,-1
 805 578 l 1,53,54
 807 607 807 607 799 629 c 1,55,56
 776 645 776 645 754 645 c 2,57,-1
 709 645 l 1,58,-1
 635 299 l 2,59,60
 633 289 633 289 633 270 c 0,61,62
 633 254 633 254 638 245 c 128,-1,63
 643 236 643 236 643 233 c 0,64,65
 657 202 657 202 686 203 c 2,66,-1
 909 203 l 2,67,68
 960 203 960 203 1010.5 265.5 c 128,-1,69
 1061 328 1061 328 1077 416 c 2,70,-1
 1108 563 l 1,71,-1
 1331 563 l 1,72,-1
 1300 416 l 2,73,74
 1298 402 1298 402 1298 377 c 0,75,76
 1298 359 1298 359 1303.5 335 c 128,-1,77
 1309 311 1309 311 1317 281 c 1,78,79
 1350 207 1350 207 1393 207 c 2,80,-1
 1616 207 l 2,81,82
 1649 207 1649 207 1686 236 c 1,83,84
 1711 265 1711 265 1718 309 c 2,85,-1
 1862 979 l 1,86,87
 1866 1012 1866 1012 1866 1026 c 0,88,89
 1866 1087 1866 1087 1819 1141 c 0,90,91
 1760 1209 1760 1209 1649 1208 c 2,92,-1
 598 1208 l 1,93,-1
 641 1403 l 1,94,-1
 2714 1403 l 1,95,-1
 2656 1204 l 1,0,-1
1391 846 m 1,96,-1
 1167 846 l 1,97,-1
 1214 1069 l 1,98,-1
 1438 1069 l 1,99,-1
 1391 846 l 1,96,-1
1149 -287 m 1,100,-1
 926 -287 l 1,101,-1
 985 -6 l 1,102,-1
 1208 -6 l 1,103,-1
 1149 -287 l 1,100,-1
EndSplineSet
EndChar

StartChar: gha.imathra
Encoding: 134 -1 134
Width: 2367
Flags: W
LayerCount: 2
Fore
SplineSet
1464 1233 m 1,0,1
 1448 1133 1448 1133 1374 1073 c 1,2,3
 1313 1012 1313 1012 1227 1012 c 2,4,-1
 864 1012 l 1,5,-1
 903 1206 l 1,6,-1
 1180 1206 l 1,7,8
 1209 1210 1209 1210 1230 1233.5 c 128,-1,9
 1251 1257 1251 1257 1253 1286 c 1,10,-1
 1305 1526 l 2,11,12
 1309 1555 1309 1555 1309 1565 c 256,13,14
 1309 1575 1309 1575 1305 1591 c 1,15,16
 1291 1616 1291 1616 1268 1616 c 2,17,-1
 1167 1616 l 2,18,19
 1128 1616 1128 1616 1124 1579 c 1,20,-1
 1110 1522 l 2,21,22
 1108 1508 1108 1508 1116 1493.5 c 128,-1,23
 1124 1479 1124 1479 1141 1479 c 2,24,-1
 1241 1479 l 1,25,-1
 1198 1282 l 1,26,-1
 1016 1282 l 2,27,28
 950 1282 950 1282 903 1333 c 0,29,30
 889 1351 889 1351 880.5 1374 c 128,-1,31
 872 1397 872 1397 872 1419 c 0,32,33
 872 1437 872 1437 874 1448 c 2,34,-1
 907 1602 l 1,35,36
 923 1692 923 1692 999 1745 c 1,37,38
 1067 1804 1067 1804 1155 1804 c 2,39,-1
 1421 1804 l 2,40,41
 1489 1804 1489 1804 1528 1747 c 0,42,43
 1551 1714 1551 1714 1550 1661 c 0,44,45
 1550 1628 1550 1628 1546 1612 c 2,46,-1
 1464 1233 l 1,0,1
2632 942 m 2,47,48
 2618 885 2618 885 2595 842 c 128,-1,49
 2572 799 2572 799 2535 762 c 0,50,51
 2467 690 2467 690 2382 690 c 2,52,-1
 2187 690 l 2,53,54
 2099 690 2099 690 2040 772 c 1,55,-1
 1935 270 l 1,56,57
 1904 151 1904 151 1823.5 71.5 c 128,-1,58
 1743 -8 1743 -8 1653 -8 c 2,59,-1
 1323 -8 l 2,60,61
 1247 -8 1247 -8 1200 39 c 1,62,63
 1141 90 1141 90 1141 158 c 1,64,65
 1100 84 1100 84 1033.5 37 c 128,-1,66
 967 -10 967 -10 895 -10 c 2,67,-1
 549 -10 l 2,68,69
 467 -10 467 -10 424 51 c 0,70,71
 393 98 393 98 393 152 c 0,72,73
 393 168 393 168 397 197 c 2,74,-1
 528 823 l 1,75,-1
 838 823 l 2,76,77
 942 823 942 823 999 758 c 1,78,79
 1044 713 1044 713 1044 647 c 0,80,81
 1044 616 1044 616 1042 602 c 2,82,-1
 1026 520 l 1,83,-1
 801 520 l 1,84,-1
 815 592 l 2,85,86
 819 610 819 610 801 618 c 1,87,88
 787 628 787 628 754 629 c 2,89,-1
 715 629 l 1,90,-1
 641 283 l 2,91,92
 639 273 639 273 639 254 c 0,93,94
 639 231 639 231 651.5 207.5 c 128,-1,95
 664 184 664 184 686 184 c 2,96,-1
 909 184 l 2,97,98
 966 184 966 184 1016.5 246.5 c 128,-1,99
 1067 309 1067 309 1083 397 c 2,100,-1
 1114 545 l 1,101,-1
 1337 545 l 1,102,-1
 1307 397 l 1,103,104
 1305 374 1305 374 1305 365 c 0,105,106
 1305 320 1305 320 1331.5 253 c 128,-1,107
 1358 186 1358 186 1401 186 c 2,108,-1
 1624 186 l 2,109,110
 1655 186 1655 186 1687.5 216 c 128,-1,111
 1720 246 1720 246 1729 289 c 2,112,-1
 1896 1081 l 2,113,114
 1904 1124 1904 1124 1882 1161 c 1,115,116
 1851 1192 1851 1192 1808 1192 c 2,117,-1
 1651 1192 l 1,118,-1
 1694 1386 l 1,119,-1
 1919 1386 l 2,120,121
 1993 1386 1993 1386 2044 1343 c 1,122,123
 2091 1296 2091 1296 2109 1223 c 0,124,125
 2117 1190 2117 1190 2118 1147 c 256,126,127
 2118 1104 2118 1104 2109 1057 c 1,128,129
 2181 891 2181 891 2249 891 c 2,130,-1
 2349 891 l 2,131,132
 2372 891 2372 891 2396 922 c 0,133,134
 2404 932 2404 932 2411.5 950.5 c 128,-1,135
 2419 969 2419 969 2427 999 c 2,136,-1
 2509 1389 l 1,137,-1
 2732 1389 l 1,138,-1
 2632 942 l 2,47,48
1137 -344 m 1,139,-1
 913 -344 l 1,140,-1
 973 -68 l 1,141,-1
 1196 -68 l 1,142,-1
 1137 -344 l 1,139,-1
EndSplineSet
LCarets2: 1 0
EndChar

StartChar: gha.sub
Encoding: 135 -1 135
Width: 409
Flags: W
AnchorPoint: "Sub" -707 236 mark 0
AnchorPoint: "Sub" 520 -829 basemark 0
LayerCount: 2
Fore
SplineSet
803 -66 m 1,0,1
 772 -218 772 -218 612 -305 c 1,2,-1
 575 -485 l 2,3,4
 557 -573 557 -573 490.5 -640 c 128,-1,5
 424 -707 424 -707 336 -707 c 2,6,-1
 39 -707 l 2,7,8
 -35 -707 -35 -707 -80 -662 c 1,9,10
 -135 -615 -135 -615 -154 -541 c 1,11,12
 -222 -627 -222 -627 -304.5 -677 c 128,-1,13
 -387 -727 -387 -727 -457 -727 c 2,14,-1
 -748 -727 l 2,15,16
 -834 -727 -834 -727 -870 -674 c 1,17,18
 -907 -629 -907 -629 -907 -582 c 0,19,20
 -907 -574 -907 -574 -903 -545 c 2,21,-1
 -864 -350 l 1,22,23
 -841 -260 -841 -260 -775 -202.5 c 128,-1,24
 -709 -145 -709 -145 -627 -145 c 2,25,-1
 -346 -145 l 1,26,-1
 -383 -311 l 1,27,-1
 -594 -311 l 2,28,29
 -623 -311 -623 -311 -646.5 -333.5 c 128,-1,30
 -670 -356 -670 -356 -674 -381 c 2,31,-1
 -698 -506 l 2,32,33
 -700 -524 -700 -524 -690 -543 c 1,34,35
 -672 -557 -672 -557 -655 -557 c 2,36,-1
 -403 -557 l 2,37,38
 -360 -557 -360 -557 -293 -489 c 1,39,40
 -232 -421 -232 -421 -219 -365 c 2,41,-1
 -203 -283 l 1,42,-1
 -6 -283 l 1,43,-1
 -25 -379 l 2,44,45
 -33 -430 -33 -430 4 -481 c 1,46,47
 47 -532 47 -532 94 -532 c 2,48,-1
 328 -532 l 2,49,50
 373 -532 373 -532 387 -475 c 1,51,-1
 410 -365 l 1,52,-1
 186 -365 l 1,53,-1
 223 -197 l 1,54,-1
 475 -197 l 2,55,56
 520 -197 520 -197 563 -158 c 1,57,58
 577 -142 577 -142 593.5 -116 c 128,-1,59
 610 -90 610 -90 614 -61 c 2,60,-1
 645 96 l 1,61,62
 653 123 653 123 563 188 c 1,63,-1
 707 328 l 1,64,65
 865 211 865 211 842 106 c 2,66,-1
 803 -66 l 1,0,1
-129 -844 m 1,67,-1
 -326 -844 l 1,68,-1
 -301 -715 l 1,69,-1
 -176 -592 l 1,70,-1
 -104 -715 l 1,71,-1
 -129 -844 l 1,67,-1
EndSplineSet
LCarets2: 1 0
EndChar

StartChar: nga
Encoding: 136 3225 136
Width: 1785
Flags: W
LayerCount: 2
Fore
SplineSet
1896 223 m 2,0,1
 1878 133 1878 133 1807.5 67.5 c 128,-1,2
 1737 2 1737 2 1655 2 c 2,3,-1
 1264 2 l 2,4,5
 1198 2 1198 2 1151 46 c 128,-1,6
 1104 90 1104 90 1104 158 c 1,7,8
 1071 86 1071 86 1016 43 c 128,-1,9
 961 0 961 0 907 0 c 2,10,-1
 532 0 l 2,11,12
 444 0 444 0 393 57 c 0,13,14
 356 96 356 96 356 156 c 0,15,16
 356 179 356 179 358 193 c 2,17,-1
 424 489 l 1,18,-1
 905 836 l 1,19,20
 948 859 948 859 971 946 c 1,21,-1
 1004 1114 l 1,22,23
 1012 1145 1012 1145 983 1174 c 1,24,25
 954 1197 954 1197 909 1196 c 2,26,-1
 799 1196 l 1,27,-1
 782 1114 l 2,28,29
 774 1083 774 1083 788 1055 c 1,30,31
 796 1030 796 1030 819 1030 c 2,32,-1
 848 1030 l 1,33,-1
 805 836 l 1,34,-1
 666 836 l 2,35,36
 600 836 600 836 563 897 c 0,37,38
 538 936 538 936 539 989 c 0,39,40
 539 1003 539 1003 543 1042 c 1,41,-1
 616 1389 l 1,42,-1
 997 1389 l 2,43,44
 1091 1389 1091 1389 1154 1349 c 128,-1,45
 1217 1309 1217 1309 1217 1241 c 1,46,47
 1377 1388 1377 1388 1528 1389 c 2,48,-1
 1946 1389 l 2,49,50
 2014 1389 2014 1389 2039 1348 c 128,-1,51
 2064 1307 2064 1307 2064 1268 c 0,52,53
 2064 1260 2064 1260 2060 1227 c 1,54,-1
 2028 1059 l 1,55,-1
 1804 1059 l 1,56,-1
 1819 1130 l 1,57,58
 1827 1159 1827 1159 1812 1182 c 1,59,60
 1796 1198 1796 1198 1765 1198 c 2,61,-1
 1554 1198 l 2,62,63
 1454 1198 1454 1198 1351.5 1146 c 128,-1,64
 1249 1094 1249 1094 1182 1006 c 1,65,-1
 1157 883 l 1,66,67
 1126 746 1126 746 1032 686 c 1,68,-1
 631 381 l 1,69,-1
 608 270 l 1,70,71
 600 245 600 245 623.5 222 c 128,-1,72
 647 199 647 199 690 199 c 2,73,-1
 866 199 l 2,74,75
 925 199 925 199 970.5 229.5 c 128,-1,76
 1016 260 1016 260 1030 307 c 1,77,-1
 1053 418 l 1,78,-1
 1276 418 l 1,79,-1
 1253 307 l 2,80,81
 1245 264 1245 264 1278 230.5 c 128,-1,82
 1311 197 1311 197 1368 197 c 2,83,-1
 1620 197 l 2,84,85
 1649 197 1649 197 1664 212 c 128,-1,86
 1679 227 1679 227 1688 252 c 1,87,-1
 1747 532 l 1,88,89
 1751 565 1751 565 1751 573 c 0,90,91
 1751 612 1751 612 1726 612 c 2,92,-1
 1569 612 l 1,93,-1
 1608 807 l 1,94,-1
 1831 807 l 2,95,96
 1892 807 1892 807 1923 778 c 1,97,98
 1962 749 1962 749 1978 707 c 1,99,100
 1986 674 1986 674 1987 643 c 0,101,102
 1987 633 1987 633 1982 604 c 1,103,-1
 1896 223 l 2,0,1
1296 532 m 1,104,-1
 1073 532 l 1,105,-1
 1118 756 l 1,106,-1
 1341 756 l 1,107,-1
 1296 532 l 1,104,-1
EndSplineSet
LCarets2: 1 0
EndChar

StartChar: nga.sub
Encoding: 137 -1 137
Width: 380
Flags: W
AnchorPoint: "Sub" -795 -66 mark 0
AnchorPoint: "Sub" 582 -836 basemark 0
LayerCount: 2
Fore
SplineSet
33 -446 m 1,0,-1
 -162 -446 l 1,1,-1
 -133 -307 l 1,2,-1
 61 -307 l 1,3,-1
 33 -446 l 1,0,-1
618 -655 m 1,4,5
 602 -729 602 -729 545 -782 c 1,6,7
 477 -835 477 -835 416 -836 c 2,8,-1
 25 -836 l 2,9,10
 -26 -836 -26 -836 -63 -803 c 128,-1,11
 -100 -770 -100 -770 -115 -709 c 1,12,13
 -138 -760 -138 -760 -197 -799 c 0,14,15
 -215 -813 -215 -813 -248 -824.5 c 128,-1,16
 -281 -836 -281 -836 -305 -836 c 2,17,-1
 -723 -836 l 2,18,19
 -797 -836 -797 -836 -850 -788 c 1,20,21
 -887 -749 -887 -749 -887 -696 c 0,22,23
 -887 -680 -887 -680 -885 -672 c 2,24,-1
 -852 -518 l 1,25,26
 -842 -457 -842 -457 -779.5 -413 c 128,-1,27
 -717 -369 -717 -369 -655 -369 c 2,28,-1
 -516 -369 l 2,29,30
 -487 -369 -487 -369 -485 -340 c 1,31,-1
 -475 -287 l 1,32,33
 -473 -258 -473 -258 -496 -258 c 2,34,-1
 -776 -258 l 1,35,-1
 -739 -92 l 1,36,-1
 -377 -92 l 2,37,38
 -326 -92 -326 -92 -301 -115 c 1,39,40
 -272 -148 -272 -148 -274 -184 c 1,41,42
 -208 -90 -208 -90 -98 -90 c 2,43,-1
 236 -90 l 2,44,45
 322 -90 322 -90 365 -135 c 0,46,47
 398 -168 398 -168 397 -215 c 0,48,49
 397 -223 397 -223 393 -252 c 2,50,-1
 371 -362 l 1,51,-1
 176 -362 l 1,52,-1
 193 -281 l 2,53,54
 201 -236 201 -236 129 -236 c 2,55,-1
 -94 -236 l 2,56,57
 -147 -236 -147 -236 -203.5 -273.5 c 128,-1,58
 -260 -311 -260 -311 -299 -377 c 1,59,-1
 -313 -444 l 2,60,61
 -321 -477 -321 -477 -364.5 -502.5 c 128,-1,62
 -408 -528 -408 -528 -461 -528 c 2,63,-1
 -614 -528 l 2,64,65
 -665 -528 -665 -528 -670 -565 c 1,66,-1
 -684 -623 l 1,67,68
 -684 -641 -684 -641 -674 -649 c 1,69,70
 -666 -663 -666 -663 -643 -664 c 2,71,-1
 -324 -664 l 2,72,73
 -277 -664 -277 -664 -237 -638 c 128,-1,74
 -197 -612 -197 -612 -195 -582 c 1,75,-1
 -176 -500 l 1,76,-1
 18 -500 l 1,77,-1
 4 -565 l 2,78,79
 2 -575 2 -575 2 -592 c 0,80,81
 2 -617 2 -617 22.5 -645.5 c 128,-1,82
 43 -674 43 -674 88 -674 c 2,83,-1
 356 -674 l 2,84,85
 387 -674 387 -674 409.5 -654.5 c 128,-1,86
 432 -635 432 -635 434 -610 c 1,87,-1
 465 -471 l 1,88,-1
 651 -471 l 1,89,-1
 618 -655 l 1,4,5
EndSplineSet
LCarets2: 1 0
EndChar

StartChar: ca.base
Encoding: 139 -1 139
Width: 1595
Flags: W
LayerCount: 2
Fore
SplineSet
2140 698 m 1,0,-1
 1917 698 l 1,1,2
 1954 661 1954 661 1954 614 c 0,3,4
 1954 598 1954 598 1952 590 c 2,5,-1
 1876 227 l 2,6,7
 1858 133 1858 133 1782 69.5 c 128,-1,8
 1706 6 1706 6 1618 6 c 2,9,-1
 1217 6 l 2,10,11
 1164 6 1164 6 1124 37 c 1,12,13
 1087 74 1087 74 1087 117 c 1,14,15
 1071 74 1071 74 1016 40 c 128,-1,16
 961 6 961 6 895 6 c 2,17,-1
 549 6 l 2,18,19
 461 6 461 6 408 78 c 0,20,21
 371 125 371 125 371 197 c 0,22,23
 371 211 371 211 375 244 c 1,24,-1
 440 549 l 1,25,-1
 918 829 l 1,26,-1
 977 1110 l 2,27,28
 985 1155 985 1155 962.5 1178.5 c 128,-1,29
 940 1202 940 1202 899 1202 c 2,30,-1
 805 1202 l 1,31,-1
 786 1108 l 1,32,33
 786 1071 786 1071 798.5 1052.5 c 128,-1,34
 811 1034 811 1034 836 1034 c 2,35,-1
 881 1034 l 1,36,-1
 838 840 l 1,37,-1
 680 840 l 2,38,39
 612 840 612 840 569 897 c 1,40,41
 538 942 538 942 539 993 c 0,42,43
 539 1003 539 1003 543 1032 c 2,44,-1
 618 1395 l 1,45,-1
 1051 1395 l 2,46,47
 1135 1395 1135 1395 1182 1327 c 0,48,49
 1213 1284 1213 1284 1212 1219 c 0,50,51
 1212 1182 1212 1182 1208 1163 c 2,52,-1
 1114 717 l 1,53,-1
 633 420 l 1,54,-1
 610 309 l 2,55,56
 608 295 608 295 608 272 c 256,57,58
 608 249 608 249 620.5 224 c 128,-1,59
 633 199 633 199 670 199 c 2,60,-1
 901 199 l 2,61,62
 944 199 944 199 978 224.5 c 128,-1,63
 1012 250 1012 250 1020 283 c 2,64,-1
 1049 420 l 1,65,-1
 1272 420 l 1,66,-1
 1249 309 l 2,67,68
 1247 299 1247 299 1247 283 c 0,69,70
 1247 256 1247 256 1261.5 229.5 c 128,-1,71
 1276 203 1276 203 1307 203 c 2,72,-1
 1540 203 l 2,73,74
 1585 203 1585 203 1619 226.5 c 128,-1,75
 1653 250 1653 250 1661 287 c 2,76,-1
 1722 582 l 2,77,78
 1724 592 1724 592 1724 614 c 0,79,80
 1724 643 1724 643 1708 666 c 0,81,82
 1683 703 1683 703 1638 702 c 2,83,-1
 1362 702 l 1,84,-1
 1405 899 l 1,85,-1
 1749 899 l 1,86,-1
 1810 1204 l 1,87,-1
 1466 1204 l 1,88,-1
 1509 1399 l 1,89,-1
 1954 1399 l 1,90,-1
 2034 1204 l 1,91,-1
 1972 899 l 1,92,-1
 2183 899 l 1,93,-1
 2140 698 l 1,0,-1
EndSplineSet
EndChar

StartChar: ca.imathra
Encoding: 140 -1 140
Width: 1943
Flags: W
LayerCount: 2
Fore
SplineSet
2152 698 m 1,0,-1
 1929 698 l 1,1,2
 1966 665 1966 665 1966 621 c 0,3,4
 1966 603 1966 603 1964 592 c 2,5,-1
 1888 229 l 1,6,7
 1865 135 1865 135 1807 71.5 c 128,-1,8
 1749 8 1749 8 1683 8 c 2,9,-1
 1225 8 l 2,10,11
 1172 8 1172 8 1139 41 c 1,12,13
 1100 72 1100 72 1100 117 c 1,14,15
 1084 72 1084 72 1026.5 39 c 128,-1,16
 969 6 969 6 907 6 c 2,17,-1
 532 6 l 2,18,19
 452 6 452 6 411.5 56 c 128,-1,20
 371 106 371 106 371 154 c 0,21,22
 371 164 371 164 375 186 c 2,23,-1
 457 578 l 1,24,-1
 930 829 l 1,25,-1
 989 1110 l 2,26,27
 997 1155 997 1155 974.5 1178.5 c 128,-1,28
 952 1202 952 1202 909 1202 c 2,29,-1
 813 1202 l 1,30,-1
 795 1108 l 1,31,32
 791 1075 791 1075 806 1055.5 c 128,-1,33
 821 1036 821 1036 850 1036 c 2,34,-1
 922 1036 l 1,35,-1
 879 842 l 1,36,-1
 696 842 l 2,37,38
 628 842 628 842 585.5 894 c 128,-1,39
 543 946 543 946 553 1008 c 1,40,-1
 635 1397 l 1,41,-1
 1083 1397 l 2,42,43
 1165 1397 1165 1397 1208 1335 c 1,44,45
 1233 1288 1233 1288 1233 1231 c 0,46,47
 1233 1198 1233 1198 1229 1180 c 2,48,-1
 1133 721 l 1,49,-1
 655 453 l 1,50,-1
 623 287 l 1,51,52
 619 250 619 250 635 227 c 1,53,54
 660 202 660 202 688 203 c 2,55,-1
 893 203 l 2,56,57
 946 203 946 203 989 226.5 c 128,-1,58
 1032 250 1032 250 1040 287 c 2,59,-1
 1079 481 l 1,60,-1
 1303 481 l 1,61,-1
 1270 313 l 2,62,63
 1268 303 1268 303 1268 287 c 0,64,65
 1268 260 1268 260 1282 233.5 c 128,-1,66
 1296 207 1296 207 1327 207 c 2,67,-1
 1589 207 l 2,68,69
 1620 207 1620 207 1646.5 230.5 c 128,-1,70
 1673 254 1673 254 1681 291 c 2,71,-1
 1743 586 l 2,72,73
 1751 631 1751 631 1731.5 663.5 c 128,-1,74
 1712 696 1712 696 1667 707 c 1,75,-1
 1378 707 l 1,76,-1
 1421 903 l 1,77,-1
 1726 903 l 1,78,79
 1820 946 1820 946 1835 1014 c 2,80,-1
 1911 1376 l 2,81,82
 1913 1390 1913 1390 1897.5 1395.5 c 128,-1,83
 1882 1401 1882 1401 1843 1401 c 2,84,-1
 1763 1401 l 2,85,86
 1747 1401 1747 1401 1737 1339 c 1,87,-1
 1726 1292 l 2,88,89
 1724 1274 1724 1274 1743.5 1257.5 c 128,-1,90
 1763 1241 1763 1241 1780 1241 c 2,91,-1
 1853 1241 l 1,92,-1
 1815 1044 l 1,93,-1
 1618 1044 l 2,94,95
 1552 1044 1552 1044 1513 1096 c 0,96,97
 1484 1133 1484 1133 1485 1178 c 0,98,99
 1485 1201 1485 1201 1487 1210 c 2,100,-1
 1534 1434 l 1,101,102
 1544 1506 1544 1506 1603.5 1554 c 128,-1,103
 1663 1602 1663 1602 1731 1602 c 2,104,-1
 1993 1602 l 2,105,106
 2075 1602 2075 1602 2111 1540 c 1,107,108
 2140 1503 2140 1503 2140 1450 c 0,109,110
 2140 1436 2140 1436 2136 1397 c 1,111,-1
 2062 1044 l 2,112,113
 2044 958 2044 958 1978 907 c 1,114,-1
 2202 907 l 1,115,-1
 2152 698 l 1,0,-1
EndSplineSet
LCarets2: 1 0
EndChar

StartChar: ca.sub
Encoding: 141 -1 141
Width: 380
Flags: W
AnchorPoint: "Sub" -666 387 mark 0
AnchorPoint: "Sub" 489 -823 basemark 0
LayerCount: 2
Fore
SplineSet
696 -305 m 1,0,-1
 539 -305 l 1,1,2
 584 -338 584 -338 584 -399 c 0,3,4
 584 -413 584 -413 580 -446 c 1,5,-1
 541 -643 l 2,6,7
 525 -719 525 -719 466.5 -771 c 128,-1,8
 408 -823 408 -823 336 -823 c 2,9,-1
 55 -823 l 2,10,11
 -25 -823 -25 -823 -82 -780 c 1,12,13
 -133 -733 -133 -733 -133 -668 c 1,14,15
 -176 -742 -176 -742 -244 -784 c 1,16,17
 -318 -823 -318 -823 -389 -823 c 2,18,-1
 -713 -823 l 1,19,20
 -793 -831 -793 -831 -850 -788 c 128,-1,21
 -907 -745 -907 -745 -893 -688 c 2,22,-1
 -854 -506 l 1,23,24
 -844 -445 -844 -445 -791 -399 c 1,25,26
 -758 -376 -758 -376 -734.5 -367 c 128,-1,27
 -711 -358 -711 -358 -678 -358 c 2,28,-1
 -539 -358 l 2,29,30
 -521 -358 -521 -358 -491 -344 c 128,-1,31
 -461 -330 -461 -330 -461 -313 c 1,32,-1
 -453 -276 l 2,33,34
 -451 -266 -451 -266 -458 -258 c 128,-1,35
 -465 -250 -465 -250 -502 -250 c 2,36,-1
 -782 -250 l 1,37,-1
 -745 -84 l 1,38,-1
 -401 -84 l 2,39,40
 -325 -84 -325 -84 -279 -117 c 1,41,42
 -234 -160 -234 -160 -244 -205 c 2,43,-1
 -281 -387 l 1,44,45
 -297 -453 -297 -453 -358.5 -503 c 128,-1,46
 -420 -553 -420 -553 -502 -553 c 2,47,-1
 -625 -553 l 2,48,49
 -643 -553 -643 -553 -662.5 -564 c 128,-1,50
 -682 -575 -682 -575 -682 -592 c 1,51,-1
 -690 -621 l 1,52,53
 -690 -639 -690 -639 -680 -647 c 1,54,55
 -672 -661 -672 -661 -649 -662 c 2,56,-1
 -395 -662 l 2,57,58
 -334 -662 -334 -662 -279.5 -617.5 c 128,-1,59
 -225 -573 -225 -573 -211 -508 c 2,60,-1
 -193 -412 l 1,61,-1
 2 -412 l 1,62,-1
 -23 -526 l 2,63,64
 -31 -571 -31 -571 2 -616 c 1,65,66
 41 -661 41 -661 74 -662 c 2,67,-1
 254 -662 l 2,68,69
 283 -662 283 -662 311 -639 c 1,70,71
 340 -610 340 -610 342 -580 c 1,72,-1
 379 -412 l 2,73,74
 387 -367 387 -367 365 -336 c 1,75,76
 334 -303 334 -303 291 -303 c 2,77,-1
 39 -303 l 1,78,-1
 76 -137 l 1,79,-1
 244 -137 l 1,80,81
 406 -4 406 -4 428 100 c 2,82,-1
 508 475 l 1,83,-1
 709 475 l 1,84,-1
 629 100 l 2,85,86
 600 -25 600 -25 467 -137 c 1,87,-1
 719 -137 l 1,88,-1
 696 -305 l 1,0,-1
EndSplineSet
LCarets2: 1 0
EndChar

StartChar: cha.base
Encoding: 143 -1 143
Width: 1421
Flags: W
LayerCount: 2
Fore
SplineSet
1866 240 m 2,0,1
 1843 136 1843 136 1763 74 c 1,2,3
 1689 2 1689 2 1593 2 c 2,4,-1
 1313 2 l 2,5,6
 1247 2 1247 2 1197 43 c 128,-1,7
 1147 84 1147 84 1147 141 c 1,8,9
 1116 80 1116 80 1056.5 42 c 128,-1,10
 997 4 997 4 940 4 c 2,11,-1
 635 4 l 2,12,13
 541 4 541 4 481 70 c 0,14,15
 440 117 440 117 440 176 c 0,16,17
 440 190 440 190 444 223 c 1,18,-1
 635 1135 l 2,19,20
 651 1209 651 1209 698 1270 c 128,-1,21
 745 1331 745 1331 805 1360 c 1,22,23
 866 1397 866 1397 928 1397 c 2,24,-1
 1327 1397 l 1,25,-1
 1251 1034 l 2,26,27
 1233 944 1233 944 1167.5 878.5 c 128,-1,28
 1102 813 1102 813 1028 813 c 2,29,-1
 870 813 l 1,30,-1
 913 1010 l 1,31,-1
 971 1010 l 1,32,33
 994 1012 994 1012 1016 1030 c 1,34,35
 1032 1055 1032 1055 1040 1087 c 2,36,-1
 1063 1198 l 1,37,-1
 969 1198 l 2,38,39
 932 1198 932 1198 893 1174 c 1,40,41
 860 1143 860 1143 852 1106 c 2,42,-1
 680 295 l 2,43,44
 672 252 672 252 690.5 222.5 c 128,-1,45
 709 193 709 193 739 193 c 2,46,-1
 926 193 l 2,47,48
 955 193 955 193 976 200 c 128,-1,49
 997 207 997 207 1022 225 c 0,50,51
 1065 258 1065 258 1073 301 c 2,52,-1
 1102 440 l 1,53,-1
 1325 440 l 1,54,-1
 1296 301 l 2,55,56
 1288 258 1288 258 1311.5 224 c 128,-1,57
 1335 190 1335 190 1380 190 c 2,58,-1
 1546 190 l 2,59,60
 1589 190 1589 190 1618 223 c 128,-1,61
 1647 256 1647 256 1657 301 c 2,62,-1
 1823 1085 l 2,63,64
 1839 1165 1839 1165 1735 1190 c 1,65,-1
 1454 1190 l 1,66,-1
 1493 1384 l 1,67,-1
 1798 1384 l 1,68,69
 1927 1368 1927 1368 2001 1282 c 1,70,71
 2048 1210 2048 1210 2048 1139 c 0,72,73
 2048 1102 2048 1102 2044 1085 c 2,74,-1
 1866 240 l 2,0,1
1153 -342 m 1,75,-1
 930 -342 l 1,76,-1
 989 -66 l 1,77,-1
 1212 -66 l 1,78,-1
 1153 -342 l 1,75,-1
EndSplineSet
EndChar

StartChar: cha.imathra
Encoding: 144 -1 144
Width: 1757
Flags: W
LayerCount: 2
Fore
SplineSet
1866 240 m 2,0,1
 1843 136 1843 136 1772 74 c 1,2,3
 1704 2 1704 2 1618 2 c 2,4,-1
 1313 2 l 2,5,6
 1247 2 1247 2 1197 43 c 128,-1,7
 1147 84 1147 84 1147 141 c 1,8,9
 1114 80 1114 80 1059 42 c 128,-1,10
 1004 4 1004 4 942 4 c 2,11,-1
 637 4 l 2,12,13
 543 4 543 4 483 70 c 0,14,15
 442 117 442 117 442 176 c 0,16,17
 442 190 442 190 446 223 c 1,18,-1
 637 1135 l 2,19,20
 653 1209 653 1209 700.5 1270 c 128,-1,21
 748 1331 748 1331 807 1360 c 1,22,23
 868 1397 868 1397 930 1397 c 2,24,-1
 1329 1397 l 1,25,-1
 1253 1034 l 2,26,27
 1235 944 1235 944 1169.5 878.5 c 128,-1,28
 1104 813 1104 813 1030 813 c 2,29,-1
 872 813 l 1,30,-1
 915 1010 l 1,31,-1
 973 1010 l 1,32,33
 998 1014 998 1014 1014 1024 c 1,34,35
 1032 1042 1032 1042 1034 1059 c 2,36,-1
 1063 1198 l 1,37,-1
 969 1198 l 2,38,39
 932 1198 932 1198 893 1174 c 1,40,41
 860 1143 860 1143 852 1106 c 2,42,-1
 680 295 l 2,43,44
 672 248 672 248 694 225 c 1,45,46
 717 194 717 194 756 195 c 2,47,-1
 924 195 l 2,48,49
 953 195 953 195 974 202 c 128,-1,50
 995 209 995 209 1020 227 c 0,51,52
 1063 260 1063 260 1071 303 c 2,53,-1
 1100 442 l 1,54,-1
 1323 442 l 1,55,-1
 1294 303 l 2,56,57
 1286 260 1286 260 1309.5 226.5 c 128,-1,58
 1333 193 1333 193 1378 193 c 2,59,-1
 1544 193 l 2,60,61
 1587 193 1587 193 1616 225.5 c 128,-1,62
 1645 258 1645 258 1655 303 c 2,63,-1
 1872 1331 l 2,64,65
 1874 1339 1874 1339 1874 1348.5 c 128,-1,66
 1874 1358 1874 1358 1874 1360 c 0,67,68
 1874 1378 1874 1378 1866 1393 c 0,69,70
 1850 1418 1850 1418 1825 1417 c 2,71,-1
 1743 1417 l 2,72,73
 1710 1417 1710 1417 1686.5 1394.5 c 128,-1,74
 1663 1372 1663 1372 1661 1354 c 2,75,-1
 1645 1268 l 1,76,77
 1637 1243 1637 1243 1653 1219 c 1,78,79
 1671 1201 1671 1201 1696 1200 c 2,80,-1
 1761 1200 l 1,81,-1
 1722 1006 l 1,82,-1
 1585 1006 l 2,83,84
 1491 1006 1491 1006 1440 1065 c 0,85,86
 1401 1108 1401 1108 1401 1169 c 0,87,88
 1401 1185 1401 1185 1405 1214 c 2,89,-1
 1444 1409 l 2,90,91
 1452 1452 1452 1452 1473.5 1488 c 128,-1,92
 1495 1524 1495 1524 1532 1554 c 0,93,94
 1606 1613 1606 1613 1681 1614 c 2,95,-1
 1950 1614 l 2,96,97
 2001 1614 2001 1614 2048 1581 c 1,98,99
 2066 1563 2066 1563 2080.5 1541.5 c 128,-1,100
 2095 1520 2095 1520 2100 1486 c 128,-1,101
 2105 1452 2105 1452 2105 1434 c 0,102,103
 2105 1401 2105 1401 2097 1362 c 2,104,-1
 1866 240 l 2,0,1
1149 -334 m 1,105,-1
 926 -334 l 1,106,-1
 985 -57 l 1,107,-1
 1208 -57 l 1,108,-1
 1149 -334 l 1,105,-1
EndSplineSet
LCarets2: 1 0
EndChar

StartChar: cha.sub
Encoding: 145 -1 145
Width: 305
Flags: W
AnchorPoint: "Sub" -635 319 mark 0
AnchorPoint: "Sub" 481 -756 basemark 0
LayerCount: 2
Fore
SplineSet
524 -481 m 1,0,1
 499 -604 499 -604 435 -688 c 128,-1,2
 371 -772 371 -772 309 -772 c 2,3,-1
 63 -772 l 2,4,5
 -13 -772 -13 -772 -56.5 -734 c 128,-1,6
 -100 -696 -100 -696 -100 -635 c 1,7,8
 -129 -694 -129 -694 -186.5 -734 c 128,-1,9
 -244 -774 -244 -774 -303 -774 c 2,10,-1
 -580 -774 l 1,11,-1
 -590 -770 l 1,12,13
 -662 -770 -662 -770 -700 -709 c 1,14,15
 -729 -670 -729 -670 -729 -616 c 0,16,17
 -729 -600 -729 -600 -725 -567 c 1,18,-1
 -680 -344 l 1,19,20
 -657 -254 -657 -254 -591.5 -194.5 c 128,-1,21
 -526 -135 -526 -135 -444 -135 c 2,22,-1
 -211 -135 l 1,23,-1
 -252 -330 l 1,24,-1
 -432 -330 l 2,25,26
 -455 -330 -455 -330 -471 -352 c 1,27,28
 -494 -370 -494 -370 -498 -401 c 2,29,-1
 -522 -524 l 1,30,31
 -530 -553 -530 -553 -517 -574.5 c 128,-1,32
 -504 -596 -504 -596 -487 -596 c 2,33,-1
 -287 -596 l 2,34,35
 -244 -596 -244 -596 -208 -556 c 128,-1,36
 -172 -516 -172 -516 -158 -457 c 2,37,-1
 -143 -389 l 1,38,-1
 39 -389 l 1,39,-1
 23 -469 l 2,40,41
 19 -496 19 -496 18 -504 c 0,42,43
 18 -529 18 -529 34.5 -561.5 c 128,-1,44
 51 -594 51 -594 94 -594 c 2,45,-1
 233 -594 l 2,46,47
 272 -594 272 -594 309 -563 c 128,-1,48
 346 -532 346 -532 356 -485 c 2,49,-1
 446 -51 l 2,50,51
 454 -12 454 -12 455 20 c 0,52,53
 455 81 455 81 430 133 c 0,54,55
 393 213 393 213 303 229 c 1,56,-1
 406 397 l 1,57,58
 500 374 500 374 547 313 c 1,59,60
 606 252 606 252 623 152 c 0,61,62
 631 101 631 101 631 49 c 0,63,64
 631 31 631 31 630 8.5 c 128,-1,65
 629 -14 629 -14 621 -57 c 2,66,-1
 524 -481 l 1,0,1
-63 -918 m 1,67,-1
 -260 -918 l 1,68,-1
 -242 -823 l 1,69,-1
 -117 -700 l 1,70,-1
 -45 -823 l 1,71,-1
 -63 -918 l 1,67,-1
EndSplineSet
LCarets2: 1 0
EndChar

StartChar: ja
Encoding: 146 3228 146
Width: 1808
Flags: W
LayerCount: 2
Fore
SplineSet
1919 223 m 1,0,1
 1901 155 1901 155 1868 108 c 128,-1,2
 1835 61 1835 61 1779.5 31.5 c 128,-1,3
 1724 2 1724 2 1677 2 c 2,4,-1
 1247 2 l 2,5,6
 1194 2 1194 2 1161 39 c 1,7,8
 1122 72 1122 72 1122 127 c 1,9,10
 1112 100 1112 100 1096.5 78.5 c 128,-1,11
 1081 57 1081 57 1057 39 c 0,12,13
 1012 2 1012 2 958 2 c 2,14,-1
 530 2 l 2,15,16
 442 2 442 2 391 59 c 0,17,18
 354 98 354 98 354 158 c 0,19,20
 354 181 354 181 356 195 c 2,21,-1
 432 547 l 1,22,-1
 920 780 l 1,23,24
 996 839 996 839 1010 893 c 1,25,-1
 1049 1087 l 2,26,27
 1057 1132 1057 1132 1032 1165 c 1,28,29
 995 1196 995 1196 950 1196 c 2,30,-1
 821 1196 l 1,31,-1
 797 1073 l 1,32,33
 795 1044 795 1044 877 1044 c 2,34,-1
 930 1044 l 1,35,-1
 885 834 l 1,36,-1
 719 834 l 2,37,38
 643 834 643 834 596 891 c 1,39,40
 563 938 563 938 563 989 c 0,41,42
 563 997 563 997 567 1026 c 2,43,-1
 643 1389 l 1,44,-1
 1081 1389 l 2,45,46
 1153 1389 1153 1389 1205 1362 c 128,-1,47
 1257 1335 1257 1335 1280 1290 c 1,48,49
 1298 1261 1298 1261 1298 1225 c 0,50,51
 1298 1215 1298 1215 1294 1186 c 1,52,53
 1353 1086 1353 1086 1430 1085 c 2,54,-1
 1710 1085 l 2,55,56
 1735 1085 1735 1085 1758.5 1103.5 c 128,-1,57
 1782 1122 1782 1122 1784 1139 c 2,58,-1
 1792 1184 l 2,59,60
 1800 1223 1800 1223 1761 1223 c 2,61,-1
 1718 1223 l 1,62,-1
 1761 1417 l 1,63,-1
 1862 1417 l 2,64,65
 1919 1417 1919 1417 1958 1393 c 1,66,67
 2005 1368 2005 1368 2013 1321 c 1,68,69
 2027 1288 2027 1288 2028 1260 c 0,70,71
 2028 1246 2028 1246 2023 1217 c 1,72,-1
 1995 1087 l 2,73,74
 1979 1007 1979 1007 1910 950 c 128,-1,75
 1841 893 1841 893 1761 893 c 2,76,-1
 1415 893 l 2,77,78
 1321 893 1321 893 1247 975 c 1,79,-1
 1214 823 l 2,80,81
 1191 721 1191 721 1098 655 c 1,82,-1
 631 432 l 1,83,-1
 602 295 l 2,84,85
 594 248 594 248 616 225 c 1,86,87
 639 194 639 194 678 195 c 2,88,-1
 930 195 l 2,89,90
 969 195 969 195 1001.5 225.5 c 128,-1,91
 1034 256 1034 256 1049 303 c 1,92,-1
 1065 389 l 1,93,-1
 1288 389 l 1,94,-1
 1274 322 l 2,95,96
 1266 275 1266 275 1290 236 c 1,97,98
 1329 197 1329 197 1372 197 c 2,99,-1
 1577 197 l 2,100,101
 1624 197 1624 197 1665 238 c 128,-1,102
 1706 279 1706 279 1714 324 c 2,103,-1
 1751 504 l 2,104,105
 1759 543 1759 543 1737.5 564.5 c 128,-1,106
 1716 586 1716 586 1677 586 c 2,107,-1
 1548 586 l 1,108,-1
 1587 780 l 1,109,-1
 1855 780 l 2,110,111
 1927 780 1927 780 1966 713 c 1,112,113
 1991 666 1991 666 1991 608 c 0,114,115
 1991 590 1991 590 1987 551 c 1,116,-1
 1919 223 l 1,0,1
EndSplineSet
LCarets2: 1 0
EndChar

StartChar: ja.base
Encoding: 147 -1 147
Width: 1472
Flags: W
LayerCount: 2
Fore
SplineSet
1929 252 m 2,0,1
 1919 201 1919 201 1895.5 158 c 128,-1,2
 1872 115 1872 115 1829 76 c 0,3,4
 1747 2 1747 2 1657 2 c 2,5,-1
 1251 2 l 1,6,7
 1198 6 1198 6 1174.5 32.5 c 128,-1,8
 1151 59 1151 59 1142 78.5 c 128,-1,9
 1133 98 1133 98 1133 125 c 1,10,11
 1115 74 1115 74 1059.5 36 c 128,-1,12
 1004 -2 1004 -2 938 -2 c 2,13,-1
 532 -2 l 2,14,15
 448 -2 448 -2 401 55 c 1,16,17
 364 94 364 94 365 154 c 0,18,19
 365 177 365 177 367 190 c 2,20,-1
 442 543 l 1,21,-1
 895 776 l 1,22,23
 948 819 948 819 967 838 c 0,24,25
 1018 891 1018 891 1028 942 c 2,26,-1
 1057 1081 l 2,27,28
 1059 1091 1059 1091 1059 1108 c 0,29,30
 1059 1137 1059 1137 1044 1159 c 1,31,32
 1019 1190 1019 1190 981 1190 c 2,33,-1
 829 1190 l 1,34,-1
 815 1122 l 2,35,36
 807 1091 807 1091 822.5 1065.5 c 128,-1,37
 838 1040 838 1040 854 1040 c 2,38,-1
 907 1040 l 1,39,-1
 862 829 l 1,40,-1
 725 829 l 2,41,42
 649 829 649 829 602 887 c 1,43,44
 569 934 569 934 569 985 c 0,45,46
 569 993 569 993 573 1022 c 2,47,-1
 649 1384 l 1,48,-1
 1081 1384 l 2,49,50
 1149 1384 1149 1384 1204.5 1354.5 c 128,-1,51
 1260 1325 1260 1325 1284 1268 c 0,52,53
 1298 1231 1298 1231 1298 1198 c 0,54,55
 1298 1188 1298 1188 1294 1155 c 1,56,57
 1347 1083 1347 1083 1401 1083 c 2,58,-1
 1669 1083 l 2,59,60
 1694 1083 1694 1083 1715.5 1104.5 c 128,-1,61
 1737 1126 1737 1126 1739 1155 c 1,62,-1
 1747 1194 l 1,63,-1
 1438 1194 l 1,64,-1
 1481 1389 l 1,65,-1
 1796 1389 l 2,66,67
 1886 1389 1886 1389 1937 1335 c 0,68,69
 1974 1296 1974 1296 1974 1239 c 0,70,71
 1974 1225 1974 1225 1970 1196 c 2,72,-1
 1948 1085 l 2,73,74
 1932 1003 1932 1003 1860 948 c 128,-1,75
 1788 893 1788 893 1712 893 c 2,76,-1
 1417 893 l 2,77,78
 1331 893 1331 893 1255 975 c 1,79,-1
 1231 852 l 2,80,81
 1215 776 1215 776 1083 686 c 1,82,-1
 641 434 l 1,83,-1
 612 297 l 2,84,85
 604 254 604 254 627 225 c 1,86,87
 643 194 643 194 682 195 c 2,88,-1
 934 195 l 2,89,90
 977 195 977 195 1010 227 c 1,91,92
 1043 254 1043 254 1057 301 c 1,93,-1
 1073 387 l 1,94,-1
 1296 387 l 1,95,-1
 1282 319 l 2,96,97
 1280 305 1280 305 1280 281 c 0,98,99
 1280 252 1280 252 1290 233 c 0,100,101
 1315 194 1315 194 1346 195 c 2,102,-1
 1585 195 l 2,103,104
 1632 195 1632 195 1670 227.5 c 128,-1,105
 1708 260 1708 260 1718 305 c 2,106,-1
 1763 520 l 1,107,108
 1765 547 1765 547 1742.5 565.5 c 128,-1,109
 1720 584 1720 584 1677 584 c 2,110,-1
 1554 584 l 1,111,-1
 1593 778 l 1,112,-1
 1845 778 l 2,113,114
 1931 778 1931 778 1974 719 c 0,115,116
 2003 682 2003 682 2003 629 c 0,117,118
 2003 615 2003 615 1999 575 c 1,119,-1
 1929 252 l 2,0,1
EndSplineSet
EndChar

StartChar: ja.imathra
Encoding: 148 -1 148
Width: 1830
Flags: W
LayerCount: 2
Fore
SplineSet
1939 223 m 1,0,1
 1916 129 1916 129 1837.5 65.5 c 128,-1,2
 1759 2 1759 2 1669 2 c 2,3,-1
 1235 2 l 2,4,5
 1188 2 1188 2 1155 39 c 1,6,7
 1116 72 1116 72 1116 127 c 1,8,9
 1106 100 1106 100 1090.5 78.5 c 128,-1,10
 1075 57 1075 57 1051 39 c 0,11,12
 1004 2 1004 2 952 2 c 2,13,-1
 547 2 l 2,14,15
 453 2 453 2 395 68 c 0,16,17
 356 111 356 111 356 176 c 0,18,19
 356 190 356 190 360 223 c 1,20,-1
 422 520 l 1,21,-1
 940 809 l 1,22,23
 991 856 991 856 1006 918 c 2,24,-1
 1044 1104 l 2,25,26
 1046 1112 1046 1112 1046.5 1121 c 128,-1,27
 1047 1130 1047 1130 1047 1133 c 0,28,29
 1047 1156 1047 1156 1034.5 1175 c 128,-1,30
 1022 1194 1022 1194 983 1194 c 2,31,-1
 815 1194 l 1,32,-1
 797 1100 l 1,33,34
 797 1071 797 1071 808 1056.5 c 128,-1,35
 819 1042 819 1042 842 1042 c 2,36,-1
 895 1042 l 1,37,-1
 850 831 l 1,38,-1
 713 831 l 2,39,40
 639 831 639 831 592 889 c 0,41,42
 555 934 555 934 555 987 c 0,43,44
 555 995 555 995 559 1024 c 2,45,-1
 635 1386 l 1,46,-1
 1067 1386 l 2,47,48
 1176 1386 1176 1386 1242.5 1335 c 128,-1,49
 1309 1284 1309 1284 1294 1210 c 1,50,51
 1398 1153 1398 1153 1503 1153 c 2,52,-1
 1589 1153 l 1,53,-1
 1647 1415 l 1,54,55
 1663 1501 1663 1501 1729.5 1555.5 c 128,-1,56
 1796 1610 1796 1610 1876 1610 c 2,57,-1
 2015 1610 l 2,58,59
 2103 1610 2103 1610 2140 1544 c 1,60,61
 2169 1505 2169 1505 2169 1446 c 0,62,63
 2169 1430 2169 1430 2165 1391 c 1,64,-1
 2118 1167 l 1,65,66
 2095 1073 2095 1073 2016 1008.5 c 128,-1,67
 1937 944 1937 944 1849 944 c 2,68,-1
 1497 944 l 2,69,70
 1352 944 1352 944 1247 1001 c 1,71,-1
 1210 834 l 1,72,73
 1194 746 1194 746 1133 713 c 2,74,-1
 627 432 l 1,75,-1
 596 279 l 2,76,77
 588 248 588 248 606.5 221.5 c 128,-1,78
 625 195 625 195 657 195 c 2,79,-1
 920 195 l 2,80,81
 959 195 959 195 995.5 223.5 c 128,-1,82
 1032 252 1032 252 1040 297 c 2,83,-1
 1059 391 l 1,84,-1
 1282 391 l 1,85,-1
 1268 324 l 2,86,87
 1266 310 1266 310 1266 285 c 0,88,89
 1266 256 1266 256 1276 238 c 0,90,91
 1301 199 1301 199 1331 199 c 2,92,-1
 1612 199 l 2,93,94
 1635 199 1635 199 1653 206 c 128,-1,95
 1671 213 1671 213 1690 231 c 0,96,97
 1723 264 1723 264 1733 307 c 2,98,-1
 1772 494 l 2,99,100
 1780 533 1780 533 1755 561 c 1,101,102
 1724 586 1724 586 1681 586 c 2,103,-1
 1542 586 l 1,104,-1
 1581 780 l 1,105,-1
 1833 780 l 2,106,107
 1894 780 1894 780 1941.5 750.5 c 128,-1,108
 1989 721 1989 721 1999 678 c 1,109,110
 2013 653 2013 653 2013 616 c 0,111,112
 2013 591 2013 591 2011 578 c 2,113,-1
 1939 223 l 1,0,1
1925 1233 m 1,114,-1
 1956 1372 l 1,115,116
 1964 1425 1964 1425 1921 1425 c 2,117,-1
 1884 1425 l 2,118,119
 1859 1425 1859 1425 1843 1409 c 1,120,121
 1825 1399 1825 1399 1821 1374 c 2,122,-1
 1774 1149 l 1,123,-1
 1860 1149 l 2,124,125
 1883 1149 1883 1149 1905 1174.5 c 128,-1,126
 1927 1200 1927 1200 1925 1233 c 1,114,-1
EndSplineSet
LCarets2: 1 0
EndChar

StartChar: ja.sub
Encoding: 149 -1 149
Width: 368
Flags: W
AnchorPoint: "Sub" -758 -16 mark 0
AnchorPoint: "Sub" 586 -829 basemark 0
LayerCount: 2
Fore
SplineSet
678 -233 m 1,0,1
 662 -313 662 -313 602 -360 c 1,2,3
 545 -413 545 -413 471 -414 c 2,4,-1
 53 -414 l 2,5,6
 -94 -414 -94 -414 -223 -260 c 1,7,-1
 -113 -137 l 1,8,9
 32 -248 32 -248 70 -248 c 2,10,-1
 403 -248 l 2,11,12
 436 -248 436 -248 459 -229 c 1,13,14
 477 -219 477 -219 487 -195 c 1,15,-1
 504 -113 l 2,16,17
 512 -74 512 -74 465 -31 c 1,18,-1
 598 84 l 1,19,20
 700 -2 700 -2 700 -88 c 0,21,22
 700 -104 700 -104 698 -113 c 2,23,-1
 678 -233 l 1,0,1
610 -627 m 1,24,25
 594 -713 594 -713 532.5 -775.5 c 128,-1,26
 471 -838 471 -838 399 -838 c 2,27,-1
 66 -838 l 2,28,29
 0 -838 0 -838 -49 -795 c 128,-1,30
 -98 -752 -98 -752 -98 -698 c 1,31,32
 -194 -837 -194 -837 -317 -838 c 2,33,-1
 -709 -838 l 2,34,35
 -791 -838 -791 -838 -842 -793 c 0,36,37
 -879 -760 -879 -760 -879 -715 c 0,38,39
 -879 -697 -879 -697 -877 -686 c 2,40,-1
 -846 -539 l 2,41,42
 -830 -467 -830 -467 -778 -420 c 1,43,44
 -717 -373 -717 -373 -659 -373 c 2,45,-1
 -520 -373 l 2,46,47
 -502 -373 -502 -373 -480.5 -358.5 c 128,-1,48
 -459 -344 -459 -344 -459 -328 c 1,49,-1
 -451 -291 l 2,50,51
 -443 -262 -443 -262 -481 -262 c 2,52,-1
 -762 -262 l 1,53,-1
 -723 -76 l 1,54,-1
 -389 -76 l 2,55,56
 -315 -76 -315 -76 -270 -121 c 1,57,58
 -243 -164 -243 -164 -244 -203 c 0,59,60
 -244 -221 -244 -221 -246 -229 c 2,61,-1
 -283 -410 l 1,62,63
 -297 -461 -297 -461 -348 -499 c 128,-1,64
 -399 -537 -399 -537 -461 -537 c 2,65,-1
 -600 -537 l 2,66,67
 -657 -537 -657 -537 -662 -573 c 1,68,-1
 -676 -631 l 1,69,70
 -676 -647 -676 -647 -663.5 -659.5 c 128,-1,71
 -651 -672 -651 -672 -629 -672 c 2,72,-1
 -324 -672 l 2,73,74
 -277 -672 -277 -672 -232.5 -636 c 128,-1,75
 -188 -600 -188 -600 -174 -543 c 2,76,-1
 -160 -477 l 1,77,-1
 37 -477 l 1,78,-1
 23 -543 l 2,79,80
 21 -553 21 -553 20 -571 c 0,81,82
 20 -600 20 -600 47 -634 c 128,-1,83
 74 -668 74 -668 121 -668 c 2,84,-1
 346 -668 l 2,85,86
 364 -668 364 -668 383.5 -653.5 c 128,-1,87
 403 -639 403 -639 406 -614 c 1,88,-1
 436 -475 l 1,89,-1
 633 -475 l 1,90,-1
 610 -627 l 1,24,25
EndSplineSet
LCarets2: 1 0
EndChar

StartChar: jha.sub
Encoding: 154 -1 154
Width: 403
Flags: W
AnchorPoint: "Sub" -821 -76 mark 0
AnchorPoint: "Sub" 631 -784 basemark 0
LayerCount: 2
Fore
SplineSet
702 -541 m 1,0,1
 679 -641 679 -641 600 -709 c 1,2,3
 526 -781 526 -781 430 -780 c 2,4,-1
 236 -780 l 2,5,6
 170 -780 170 -780 145 -709 c 1,7,8
 92 -781 92 -781 -8 -780 c 2,9,-1
 -176 -780 l 2,10,11
 -237 -780 -237 -780 -274 -727 c 1,12,13
 -327 -780 -327 -780 -414 -780 c 2,14,-1
 -719 -780 l 2,15,16
 -821 -780 -821 -780 -874 -709 c 0,17,18
 -911 -662 -911 -662 -911 -590 c 0,19,20
 -911 -576 -911 -576 -907 -543 c 1,21,-1
 -854 -283 l 2,22,23
 -836 -193 -836 -193 -747.5 -127 c 128,-1,24
 -659 -61 -659 -61 -557 -61 c 2,25,-1
 -305 -61 l 2,26,27
 -205 -61 -205 -61 -145 -129 c 1,28,29
 -104 -180 -104 -180 -104 -246 c 0,30,31
 -104 -260 -104 -260 -109 -293 c 1,32,-1
 -160 -532 l 1,33,34
 -164 -565 -164 -565 -142.5 -588.5 c 128,-1,35
 -121 -612 -121 -612 -90 -612 c 2,36,-1
 -8 -612 l 2,37,38
 17 -612 17 -612 40 -590.5 c 128,-1,39
 63 -569 63 -569 72 -539 c 2,40,-1
 117 -315 l 1,41,42
 127 -276 127 -276 96.5 -236.5 c 128,-1,43
 66 -197 66 -197 12 -180 c 1,44,-1
 166 -57 l 1,45,46
 254 -88 254 -88 288 -149.5 c 128,-1,47
 322 -211 322 -211 322 -262 c 0,48,49
 322 -276 322 -276 317 -305 c 2,50,-1
 266 -557 l 1,51,52
 258 -580 258 -580 273.5 -596 c 128,-1,53
 289 -612 289 -612 305 -612 c 2,54,-1
 408 -612 l 2,55,56
 445 -612 445 -612 471 -590 c 1,57,58
 504 -551 504 -551 506 -532 c 2,59,-1
 549 -336 l 1,60,61
 553 -285 553 -285 520 -240 c 1,62,63
 475 -193 475 -193 414 -174 c 1,64,-1
 561 -63 l 1,65,66
 661 -100 661 -100 713 -166 c 1,67,68
 752 -223 752 -223 752 -274 c 0,69,70
 752 -288 752 -288 748 -311 c 2,71,-1
 702 -541 l 1,0,1
207 -844 m 1,72,-1
 10 -844 l 1,73,-1
 14 -815 l 1,74,-1
 127 -762 l 1,75,-1
 209 -815 l 1,76,-1
 207 -844 l 1,72,-1
-354 -520 m 2,77,-1
 -317 -340 l 2,78,79
 -309 -295 -309 -295 -332.5 -262 c 128,-1,80
 -356 -229 -356 -229 -403 -229 c 2,81,-1
 -561 -229 l 2,82,83
 -600 -229 -600 -229 -633 -256 c 128,-1,84
 -666 -283 -666 -283 -674 -322 c 2,85,-1
 -713 -518 l 2,86,87
 -721 -561 -721 -561 -695.5 -589.5 c 128,-1,88
 -670 -618 -670 -618 -625 -618 c 2,89,-1
 -473 -618 l 2,90,91
 -432 -618 -432 -618 -396 -588.5 c 128,-1,92
 -360 -559 -360 -559 -354 -520 c 2,77,-1
EndSplineSet
LCarets2: 1 0
EndChar

StartChar: jha.part
Encoding: 155 -1 155
Width: 839
Flags: W
LayerCount: 2
Fore
SplineSet
954 268 m 1,0,1
 929 159 929 159 848.5 79.5 c 128,-1,2
 768 0 768 0 674 0 c 2,3,-1
 340 0 l 2,4,5
 184 0 184 0 82 211 c 1,6,-1
 150 530 l 1,7,8
 189 376 189 376 274 287 c 1,9,10
 364 197 364 197 461 197 c 2,11,-1
 584 197 l 2,12,13
 643 197 643 197 682 236 c 0,14,15
 707 259 707 259 719 281 c 128,-1,16
 731 303 731 303 739 334 c 2,17,-1
 897 1079 l 2,18,19
 899 1087 899 1087 899 1096.5 c 128,-1,20
 899 1106 899 1106 899 1108 c 0,21,22
 899 1139 899 1139 885 1161 c 1,23,24
 856 1198 856 1198 811 1198 c 2,25,-1
 559 1198 l 1,26,-1
 602 1393 l 1,27,-1
 922 1393 l 2,28,29
 1033 1393 1033 1393 1092 1303 c 1,30,31
 1129 1242 1129 1242 1128 1159 c 0,32,33
 1128 1122 1128 1122 1120 1079 c 2,34,-1
 954 268 l 1,0,1
809 -393 m 1,35,-1
 584 -393 l 1,36,-1
 643 -113 l 1,37,-1
 868 -113 l 1,38,-1
 809 -393 l 1,35,-1
EndSplineSet
EndChar

StartChar: nya
Encoding: 157 3230 157
Width: 2260
Flags: W
LayerCount: 2
Fore
SplineSet
2542 997 m 1,0,1
 2526 915 2526 915 2464 849.5 c 128,-1,2
 2402 784 2402 784 2329 784 c 2,3,-1
 2189 784 l 1,4,-1
 2230 981 l 1,5,-1
 2259 981 l 2,6,7
 2312 981 2312 981 2329 1063 c 2,8,-1
 2345 1145 l 2,9,10
 2355 1202 2355 1202 2273 1202 c 2,11,-1
 2173 1202 l 2,12,13
 2126 1202 2126 1202 2082 1162 c 128,-1,14
 2038 1122 2038 1122 2023 1063 c 2,15,-1
 1958 758 l 2,16,17
 1940 670 1940 670 1889.5 590 c 128,-1,18
 1839 510 1839 510 1751 438 c 1,19,-1
 1720 285 l 2,20,21
 1712 254 1712 254 1733.5 227.5 c 128,-1,22
 1755 201 1755 201 1784 201 c 2,23,-1
 1870 201 l 1,24,-1
 1831 6 l 1,25,-1
 1663 6 l 2,26,27
 1573 6 1573 6 1522 72 c 0,28,29
 1485 117 1485 117 1485 178 c 0,30,31
 1485 192 1485 192 1489 225 c 1,32,-1
 1518 365 l 1,33,-1
 1298 365 l 2,34,35
 1216 365 1216 365 1171 418 c 1,36,37
 1138 465 1138 465 1139 510 c 0,38,39
 1139 520 1139 520 1143 543 c 2,40,-1
 1174 694 l 2,41,42
 1184 751 1184 751 1243 795 c 1,43,44
 1309 834 1309 834 1376 834 c 2,45,-1
 1616 834 l 2,46,47
 1655 834 1655 834 1687.5 801 c 128,-1,48
 1720 768 1720 768 1729 711 c 1,49,-1
 1810 1102 l 2,50,51
 1818 1147 1818 1147 1787.5 1170.5 c 128,-1,52
 1757 1194 1757 1194 1704 1194 c 2,53,-1
 1581 1194 l 2,54,55
 1524 1194 1524 1194 1475.5 1158 c 128,-1,56
 1427 1122 1427 1122 1419 1083 c 2,57,-1
 1391 944 l 1,58,-1
 1167 944 l 1,59,-1
 1192 1073 l 2,60,61
 1202 1120 1202 1120 1169.5 1157 c 128,-1,62
 1137 1194 1137 1194 1077 1194 c 2,63,-1
 895 1194 l 2,64,65
 872 1194 872 1194 845.5 1172.5 c 128,-1,66
 819 1151 819 1151 811 1112 c 2,67,-1
 782 973 l 2,68,69
 778 944 778 944 792.5 917.5 c 128,-1,70
 807 891 807 891 836 891 c 2,71,-1
 907 891 l 1,72,-1
 860 666 l 1,73,-1
 702 666 l 2,74,75
 622 666 622 666 575 737 c 0,76,77
 544 784 544 784 545 846 c 0,78,79
 545 883 545 883 549 901 c 2,80,-1
 602 1163 l 1,81,82
 625 1257 625 1257 698 1319 c 1,83,84
 766 1385 766 1385 854 1384 c 2,85,-1
 1180 1384 l 2,86,87
 1254 1384 1254 1384 1300 1346 c 0,88,89
 1318 1332 1318 1332 1327.5 1306 c 128,-1,90
 1337 1280 1337 1280 1337 1247 c 1,91,92
 1382 1313 1382 1313 1440 1346 c 1,93,94
 1497 1385 1497 1385 1563 1384 c 2,95,-1
 1825 1384 l 2,96,97
 1878 1384 1878 1384 1916 1348.5 c 128,-1,98
 1954 1313 1954 1313 1964 1262 c 1,99,100
 1997 1319 1997 1319 2052 1351.5 c 128,-1,101
 2107 1384 2107 1384 2169 1384 c 2,102,-1
 2431 1384 l 2,103,104
 2505 1384 2505 1384 2548 1325 c 0,105,106
 2577 1286 2577 1286 2576 1229 c 0,107,108
 2576 1198 2576 1198 2572 1182 c 2,109,-1
 2542 997 l 1,0,1
1550 578 m 1,110,111
 1554 603 1554 603 1530.5 618 c 128,-1,112
 1507 633 1507 633 1464 633 c 2,113,-1
 1378 633 l 2,114,115
 1341 633 1341 633 1339 623 c 2,116,-1
 1335 594 l 2,117,118
 1331 576 1331 576 1350 565 c 1,119,120
 1364 551 1364 551 1386 551 c 2,121,-1
 1473 551 l 2,122,123
 1489 551 1489 551 1550 578 c 1,110,111
EndSplineSet
LCarets2: 1 0
EndChar

StartChar: nya.sub
Encoding: 158 -1 158
Width: 458
Flags: W
AnchorPoint: "Sub" -852 -45 mark 0
AnchorPoint: "Sub" 657 -766 basemark 0
LayerCount: 2
Fore
SplineSet
741 -446 m 1,0,1
 725 -514 725 -514 672 -573 c 1,2,3
 615 -624 615 -624 553 -625 c 2,4,-1
 430 -625 l 1,5,-1
 463 -471 l 1,6,-1
 520 -471 l 2,7,8
 538 -471 538 -471 553 -459 c 1,9,-1
 569 -422 l 1,10,-1
 602 -260 l 1,11,12
 606 -227 606 -227 606 -217 c 0,13,14
 606 -180 606 -180 578 -180 c 2,15,-1
 430 -180 l 2,16,17
 399 -180 399 -180 372.5 -203.5 c 128,-1,18
 346 -227 346 -227 324 -274 c 1,19,-1
 266 -535 l 2,20,21
 250 -617 250 -617 166 -672 c 128,-1,22
 82 -727 82 -727 -20 -727 c 1,23,24
 -24 -743 -24 -743 -10 -758.5 c 128,-1,25
 4 -774 4 -774 18 -774 c 2,26,-1
 94 -774 l 1,27,-1
 70 -899 l 1,28,-1
 -55 -899 l 2,29,30
 -112 -899 -112 -899 -152 -860 c 1,31,32
 -189 -829 -189 -829 -180 -776 c 1,33,-1
 -170 -729 l 1,34,-1
 -260 -729 l 2,35,36
 -311 -729 -311 -729 -350 -698 c 1,37,38
 -379 -669 -379 -669 -375 -631 c 1,39,-1
 -350 -514 l 1,40,41
 -336 -467 -336 -467 -299 -436 c 1,42,43
 -254 -407 -254 -407 -203 -408 c 2,44,-1
 -78 -408 l 2,45,46
 -23 -408 -23 -408 6 -436 c 1,47,48
 33 -473 33 -473 23 -516 c 2,49,-1
 8 -582 l 1,50,51
 84 -582 84 -582 92 -530 c 1,52,-1
 154 -240 l 1,53,54
 156 -217 156 -217 133 -199 c 1,55,56
 110 -185 110 -185 66 -184 c 2,57,-1
 -137 -184 l 2,58,59
 -182 -184 -182 -184 -221 -209 c 1,60,61
 -260 -240 -260 -240 -268 -279 c 2,62,-1
 -276 -315 l 1,63,-1
 -451 -315 l 1,64,-1
 -440 -264 l 2,65,66
 -432 -227 -432 -227 -455 -203 c 1,67,68
 -478 -185 -478 -185 -522 -184 c 2,69,-1
 -633 -184 l 2,70,71
 -649 -184 -649 -184 -672 -201 c 1,72,73
 -695 -230 -695 -230 -696 -254 c 1,74,-1
 -729 -416 l 2,75,76
 -731 -432 -731 -432 -704.5 -447.5 c 128,-1,77
 -678 -463 -678 -463 -641 -463 c 1,78,-1
 -678 -631 l 1,79,80
 -750 -631 -750 -631 -808 -600 c 128,-1,81
 -866 -569 -866 -569 -889 -522 c 1,82,83
 -907 -491 -907 -491 -907 -455 c 0,84,85
 -907 -441 -907 -441 -903 -418 c 2,86,-1
 -860 -207 l 2,87,88
 -844 -133 -844 -133 -785.5 -82 c 128,-1,89
 -727 -31 -727 -31 -666 -31 c 2,90,-1
 -449 -31 l 2,91,92
 -392 -31 -392 -31 -354.5 -67.5 c 128,-1,93
 -317 -104 -317 -104 -326 -156 c 1,94,95
 -308 -131 -308 -131 -299 -121 c 0,96,97
 -274 -88 -274 -88 -250 -70 c 0,98,99
 -203 -37 -203 -37 -170 -37 c 2,100,-1
 174 -37 l 2,101,102
 285 -37 285 -37 307 -111 c 1,103,104
 381 -37 381 -37 449 -37 c 2,105,-1
 674 -37 l 2,106,107
 740 -37 740 -37 770 -84 c 1,108,109
 793 -115 793 -115 793 -154 c 0,110,111
 793 -168 793 -168 788 -197 c 2,112,-1
 741 -446 l 1,0,1
-145 -571 m 1,113,-1
 -143 -547 l 1,114,115
 -135 -516 -135 -516 -174 -516 c 0,116,117
 -211 -516 -211 -516 -215 -539 c 2,118,-1
 -225 -590 l 2,119,120
 -229 -615 -229 -615 -182 -614 c 0,121,122
 -157 -614 -157 -614 -145 -571 c 1,113,-1
EndSplineSet
LCarets2: 1 0
EndChar

StartChar: tta
Encoding: 159 3231 159
Width: 1796
Flags: W
LayerCount: 2
Fore
SplineSet
1911 223 m 2,0,1
 1893 129 1893 129 1824 65.5 c 128,-1,2
 1755 2 1755 2 1669 2 c 2,3,-1
 1329 2 l 2,4,5
 1255 2 1255 2 1212 49 c 1,6,7
 1161 96 1161 96 1161 168 c 1,8,9
 1132 96 1132 96 1063.5 48 c 128,-1,10
 995 0 995 0 928 0 c 2,11,-1
 639 0 l 2,12,13
 537 0 537 0 475 72 c 0,14,15
 436 119 436 119 436 190 c 0,16,17
 436 204 436 204 440 238 c 1,18,-1
 555 778 l 2,19,20
 571 860 571 860 731 946 c 1,21,22
 612 1032 612 1032 623 1104 c 1,23,-1
 676 1356 l 2,24,25
 694 1452 694 1452 778 1520.5 c 128,-1,26
 862 1589 862 1589 956 1589 c 2,27,-1
 1167 1589 l 1,28,-1
 1128 1393 l 1,29,-1
 973 1393 l 2,30,31
 948 1393 948 1393 922.5 1374.5 c 128,-1,32
 897 1356 897 1356 895 1331 c 1,33,-1
 856 1143 l 2,34,35
 852 1114 852 1114 866 1075 c 1,36,37
 882 1046 882 1046 915 1032 c 1,38,-1
 1225 1032 l 1,39,-1
 1157 715 l 1,40,41
 1132 619 1132 619 1061 547 c 1,42,43
 975 475 975 475 893 475 c 2,44,-1
 770 475 l 1,45,-1
 813 670 l 1,46,-1
 881 670 l 2,47,48
 899 670 899 670 914.5 685 c 128,-1,49
 930 700 930 700 934 725 c 2,50,-1
 956 836 l 1,51,-1
 842 836 l 1,52,53
 783 805 783 805 772 754 c 2,54,-1
 676 297 l 2,55,56
 668 254 668 254 686.5 224.5 c 128,-1,57
 705 195 705 195 735 195 c 2,58,-1
 915 195 l 2,59,60
 976 195 976 195 1024 233 c 0,61,62
 1049 251 1049 251 1067 275 c 128,-1,63
 1085 299 1085 299 1096 330 c 1,64,-1
 1118 440 l 1,65,-1
 1343 440 l 1,66,-1
 1321 330 l 1,67,68
 1321 271 1321 271 1350 231 c 1,69,70
 1383 192 1383 192 1425 193 c 2,71,-1
 1634 193 l 2,72,73
 1665 193 1665 193 1694 225 c 1,74,75
 1710 248 1710 248 1717 262 c 128,-1,76
 1724 276 1724 276 1729 301 c 2,77,-1
 1800 639 l 2,78,79
 1808 676 1808 676 1790 698 c 1,80,81
 1780 721 1780 721 1737 721 c 2,82,-1
 1569 721 l 1,83,-1
 1608 915 l 1,84,-1
 1718 915 l 2,85,86
 1763 915 1763 915 1802 948 c 1,87,88
 1845 977 1845 977 1853 1024 c 2,89,-1
 1911 1292 l 1,90,91
 1913 1317 1913 1317 1898 1341 c 1,92,93
 1875 1357 1875 1357 1843 1358 c 2,94,-1
 1704 1358 l 1,95,-1
 1743 1552 l 1,96,-1
 1995 1552 l 2,97,98
 2069 1552 2069 1552 2101 1491 c 1,99,100
 2119 1452 2119 1452 2120 1399 c 0,101,102
 2120 1356 2120 1356 2116 1333 c 2,103,-1
 2042 987 l 2,104,105
 2032 934 2032 934 1989 891 c 128,-1,106
 1946 848 1946 848 1880 831 c 1,107,108
 1948 831 1948 831 1978 778 c 0,109,110
 2001 741 2001 741 2001 698 c 0,111,112
 2001 688 2001 688 1997 655 c 1,113,-1
 1911 223 l 2,0,1
EndSplineSet
LCarets2: 1 0
EndChar

StartChar: tta.base
Encoding: 160 -1 160
Width: 1499
Flags: W
LayerCount: 2
Fore
SplineSet
1939 229 m 2,0,1
 1929 182 1929 182 1907.5 144 c 128,-1,2
 1886 106 1886 106 1853 76 c 0,3,4
 1781 10 1781 10 1700 10 c 1,5,-1
 1696 6 l 1,6,-1
 1333 6 l 2,7,8
 1261 6 1261 6 1219 53 c 1,9,10
 1172 100 1172 100 1171 172 c 1,11,12
 1142 100 1142 100 1077 53 c 1,13,14
 1003 6 1003 6 938 6 c 2,15,-1
 643 6 l 2,16,17
 541 6 541 6 475 66 c 1,18,19
 432 113 432 113 432 172 c 0,20,21
 432 186 432 186 436 215 c 2,22,-1
 555 784 l 2,23,24
 571 866 571 866 731 952 c 1,25,26
 678 985 678 985 649.5 1039.5 c 128,-1,27
 621 1094 621 1094 629 1133 c 2,28,-1
 682 1384 l 2,29,30
 700 1478 700 1478 777 1548 c 128,-1,31
 854 1618 854 1618 940 1618 c 2,32,-1
 1174 1618 l 1,33,-1
 1135 1423 l 1,34,-1
 983 1423 l 2,35,36
 938 1423 938 1423 905 1396.5 c 128,-1,37
 872 1370 872 1370 864 1333 c 2,38,-1
 825 1145 l 1,39,40
 821 1114 821 1114 844 1083 c 1,41,42
 875 1052 875 1052 913 1042 c 1,43,-1
 1223 1042 l 1,44,-1
 1157 725 l 2,45,46
 1139 629 1139 629 1055 557 c 128,-1,47
 971 485 971 485 874 485 c 2,48,-1
 772 485 l 1,49,-1
 811 680 l 1,50,-1
 885 680 l 2,51,52
 903 680 903 680 918 702 c 1,53,-1
 942 764 l 1,54,-1
 958 846 l 1,55,-1
 844 846 l 1,56,57
 783 815 783 815 774 764 c 1,58,-1
 674 303 l 2,59,60
 666 270 666 270 687.5 237.5 c 128,-1,61
 709 205 709 205 737 205 c 2,62,-1
 924 205 l 2,63,64
 975 205 975 205 1029 245 c 128,-1,65
 1083 285 1083 285 1100 344 c 1,66,-1
 1137 512 l 1,67,-1
 1362 512 l 1,68,-1
 1325 344 l 1,69,70
 1325 285 1325 285 1355.5 245 c 128,-1,71
 1386 205 1386 205 1432 205 c 2,72,-1
 1618 205 l 2,73,74
 1661 205 1661 205 1693.5 240.5 c 128,-1,75
 1726 276 1726 276 1735 315 c 2,76,-1
 1806 653 l 2,77,78
 1814 692 1814 692 1785.5 713.5 c 128,-1,79
 1757 735 1757 735 1712 735 c 2,80,-1
 1573 735 l 1,81,-1
 1616 930 l 1,82,-1
 1726 930 l 2,83,84
 1771 930 1771 930 1811 968 c 128,-1,85
 1851 1006 1851 1006 1866 1067 c 2,86,-1
 1876 1112 l 2,87,88
 1884 1155 1884 1155 1862.5 1181.5 c 128,-1,89
 1841 1208 1841 1208 1802 1208 c 2,90,-1
 1620 1208 l 1,91,-1
 1659 1399 l 1,92,-1
 1931 1399 l 1,93,94
 2031 1391 2031 1391 2077 1311 c 1,95,96
 2110 1260 2110 1260 2109 1194 c 0,97,98
 2109 1163 2109 1163 2101 1124 c 2,99,-1
 2073 1001 l 1,100,101
 2065 954 2065 954 2021.5 909 c 128,-1,102
 1978 864 1978 864 1919 848 c 1,103,104
 1950 848 1950 848 1973.5 833.5 c 128,-1,105
 1997 819 1997 819 2015.5 790.5 c 128,-1,106
 2034 762 2034 762 2034 715 c 0,107,108
 2034 705 2034 705 2030 672 c 1,109,-1
 1939 229 l 2,0,1
EndSplineSet
EndChar

StartChar: tta.imathra
Encoding: 161 -1 161
Width: 1830
Flags: W
LayerCount: 2
Fore
SplineSet
1939 229 m 2,0,1
 1929 182 1929 182 1907.5 144 c 128,-1,2
 1886 106 1886 106 1853 76 c 0,3,4
 1781 10 1781 10 1700 10 c 1,5,-1
 1696 6 l 1,6,-1
 1333 6 l 2,7,8
 1265 6 1265 6 1227 53 c 1,9,10
 1180 100 1180 100 1180 172 c 1,11,12
 1147 100 1147 100 1080.5 52 c 128,-1,13
 1014 4 1014 4 938 4 c 2,14,-1
 649 4 l 2,15,16
 547 4 547 4 487 78 c 0,17,18
 448 125 448 125 449 193 c 0,19,20
 449 232 449 232 453 250 c 2,21,-1
 563 780 l 2,22,23
 579 862 579 862 739 948 c 1,24,25
 686 981 686 981 659.5 1037.5 c 128,-1,26
 633 1094 633 1094 641 1139 c 2,27,-1
 686 1354 l 2,28,29
 704 1450 704 1450 778 1518 c 1,30,31
 860 1586 860 1586 936 1585 c 2,32,-1
 1176 1585 l 1,33,-1
 1137 1389 l 1,34,-1
 954 1389 l 2,35,36
 929 1389 929 1389 901 1366 c 1,37,38
 872 1337 872 1337 870 1307 c 1,39,-1
 840 1167 l 2,40,41
 832 1122 832 1122 855.5 1081 c 128,-1,42
 879 1040 879 1040 922 1030 c 1,43,-1
 1231 1030 l 1,44,-1
 1163 713 l 1,45,46
 1138 613 1138 613 1063 545 c 1,47,48
 969 473 969 473 874 473 c 2,49,-1
 778 473 l 1,50,-1
 821 668 l 1,51,-1
 860 668 l 1,52,53
 891 672 891 672 915 690 c 1,54,55
 940 715 940 715 948 748 c 2,56,-1
 965 829 l 1,57,-1
 879 829 l 2,58,59
 846 829 846 829 816 805.5 c 128,-1,60
 786 782 786 782 784 754 c 1,61,-1
 688 305 l 2,62,63
 686 295 686 295 686 279 c 0,64,65
 686 254 686 254 700 231 c 1,66,67
 725 198 725 198 758 199 c 2,68,-1
 954 199 l 2,69,70
 997 199 997 199 1044.5 239 c 128,-1,71
 1092 279 1092 279 1108 338 c 1,72,-1
 1145 506 l 1,73,-1
 1370 506 l 1,74,-1
 1333 338 l 1,75,76
 1333 279 1333 279 1364 239 c 128,-1,77
 1395 199 1395 199 1440 199 c 2,78,-1
 1591 199 l 2,79,80
 1648 199 1648 199 1691.5 232.5 c 128,-1,81
 1735 266 1735 266 1743 309 c 2,82,-1
 1815 647 l 2,83,84
 1823 686 1823 686 1806.5 707.5 c 128,-1,85
 1790 729 1790 729 1751 729 c 2,86,-1
 1583 729 l 1,87,-1
 1626 924 l 1,88,-1
 1737 924 l 2,89,90
 1782 924 1782 924 1819 954 c 1,91,92
 1856 977 1856 977 1866 1022 c 2,93,-1
 1937 1360 l 1,94,95
 1945 1389 1945 1389 1937 1407 c 0,96,97
 1929 1423 1929 1423 1911 1423 c 2,98,-1
 1800 1423 l 2,99,100
 1763 1423 1763 1423 1755 1395 c 1,101,-1
 1751 1366 l 2,102,103
 1749 1348 1749 1348 1759 1331 c 1,104,105
 1775 1315 1775 1315 1792 1315 c 2,106,-1
 1878 1315 l 1,107,-1
 1839 1120 l 1,108,-1
 1653 1120 l 2,109,110
 1581 1120 1581 1120 1538 1171 c 0,111,112
 1507 1210 1507 1210 1507 1253 c 0,113,114
 1507 1271 1507 1271 1509 1282 c 2,115,-1
 1542 1440 l 1,116,117
 1552 1512 1552 1512 1624 1566 c 128,-1,118
 1696 1620 1696 1620 1772 1620 c 2,119,-1
 2005 1620 l 2,120,121
 2050 1620 2050 1620 2080.5 1605.5 c 128,-1,122
 2111 1591 2111 1591 2144 1557.5 c 128,-1,123
 2177 1524 2177 1524 2177 1466 c 0,124,125
 2177 1452 2177 1452 2173 1423 c 2,126,-1
 2103 1090 l 2,127,128
 2087 1002 2087 1002 2034.5 929 c 128,-1,129
 1982 856 1982 856 1917 840 c 1,130,131
 1950 840 1950 840 1975.5 827.5 c 128,-1,132
 2001 815 2001 815 2023 786 c 1,133,134
 2046 749 2046 749 2046 707 c 0,135,136
 2046 697 2046 697 2042 664 c 1,137,-1
 1939 229 l 2,0,1
EndSplineSet
LCarets2: 1 0
EndChar

StartChar: tta.sub
Encoding: 162 -1 162
Width: 329
Flags: W
AnchorPoint: "Sub" -606 283 mark 0
AnchorPoint: "Sub" 487 -829 basemark 0
LayerCount: 2
Fore
SplineSet
518 -692 m 2,0,1
 508 -745 508 -745 451 -793 c 1,2,3
 394 -830 394 -830 334 -829 c 2,4,-1
 43 -829 l 2,5,6
 -18 -829 -18 -829 -59 -791.5 c 128,-1,7
 -100 -754 -100 -754 -92 -702 c 1,8,9
 -123 -755 -123 -755 -180 -795 c 1,10,11
 -235 -828 -235 -828 -287 -827 c 2,12,-1
 -567 -827 l 1,13,14
 -671 -835 -671 -835 -731 -770 c 1,15,16
 -776 -727 -776 -727 -776 -666 c 0,17,18
 -776 -637 -776 -637 -774 -623 c 2,19,-1
 -727 -399 l 2,20,21
 -711 -313 -711 -313 -637 -251.5 c 128,-1,22
 -563 -190 -563 -190 -475 -190 c 2,23,-1
 -152 -190 l 1,24,-1
 -225 -528 l 1,25,-1
 -420 -528 l 1,26,-1
 -389 -389 l 1,27,-1
 -446 -389 l 2,28,29
 -479 -389 -479 -389 -508 -403 c 1,30,31
 -537 -426 -537 -426 -539 -442 c 2,32,-1
 -563 -565 l 2,33,34
 -571 -608 -571 -608 -549 -637 c 1,35,36
 -520 -666 -520 -666 -475 -666 c 2,37,-1
 -299 -666 l 2,38,39
 -254 -666 -254 -666 -214 -635 c 128,-1,40
 -174 -604 -174 -604 -164 -557 c 2,41,-1
 -147 -475 l 1,42,-1
 49 -475 l 1,43,-1
 33 -557 l 2,44,45
 31 -565 31 -565 31 -574.5 c 128,-1,46
 31 -584 31 -584 31 -586 c 0,47,48
 31 -611 31 -611 49.5 -637.5 c 128,-1,49
 68 -664 68 -664 106 -664 c 2,50,-1
 246 -664 l 2,51,52
 279 -664 279 -664 305.5 -649.5 c 128,-1,53
 332 -635 332 -635 336 -610 c 2,54,-1
 381 -399 l 2,55,56
 385 -374 385 -374 358.5 -362 c 128,-1,57
 332 -350 332 -350 317.5 -348 c 128,-1,58
 303 -346 303 -346 264 -346 c 2,59,-1
 141 -346 l 1,60,-1
 178 -180 l 1,61,-1
 289 -180 l 2,62,63
 334 -180 334 -180 379 -149.5 c 128,-1,64
 424 -119 424 -119 432 -68 c 1,65,-1
 483 166 l 1,66,67
 487 205 487 205 473 223 c 1,68,69
 459 254 459 254 434 272 c 1,70,-1
 410 305 l 1,71,-1
 420 313 l 1,72,-1
 528 436 l 1,73,74
 610 383 610 383 655 311 c 0,75,76
 684 264 684 264 684 207 c 0,77,78
 684 197 684 197 680 168 c 2,79,-1
 633 -57 l 2,80,81
 617 -133 617 -133 571.5 -188.5 c 128,-1,82
 526 -244 526 -244 469 -260 c 1,83,84
 520 -274 520 -274 553 -322 c 1,85,86
 578 -369 578 -369 569 -422 c 2,87,-1
 518 -692 l 2,0,1
EndSplineSet
LCarets2: 1 0
EndChar

StartChar: ttha.base
Encoding: 164 -1 164
Width: 1257
Flags: W
LayerCount: 2
Fore
SplineSet
1671 324 m 2,0,1
 1640 191 1640 191 1526 96 c 1,2,3
 1401 2 1401 2 1268 2 c 2,4,-1
 727 2 l 2,5,6
 582 2 582 2 500 96 c 0,7,8
 439 166 439 166 438 260 c 0,9,10
 438 287 438 287 446 319 c 2,11,-1
 561 864 l 2,12,13
 604 1061 604 1061 801 1198 c 1,14,-1
 662 1198 l 1,15,-1
 705 1393 l 1,16,-1
 1620 1393 l 1,17,-1
 1616 1368 l 1,18,19
 1675 1321 1675 1321 1715 1265.5 c 128,-1,20
 1755 1210 1755 1210 1774 1143 c 1,21,22
 1803 1067 1803 1067 1802 977 c 0,23,24
 1802 959 1802 959 1801 936 c 128,-1,25
 1800 913 1800 913 1792 874 c 2,26,-1
 1671 324 l 2,0,1
1454 342 m 1,27,-1
 1565 874 l 2,28,29
 1573 913 1573 913 1573 952 c 0,30,31
 1573 1005 1573 1005 1554 1053 c 0,32,33
 1521 1143 1521 1143 1446 1202 c 1,34,-1
 1055 1202 l 1,35,36
 953 1149 953 1149 887 1063 c 1,37,38
 819 983 819 983 791 868 c 1,39,-1
 680 336 l 1,40,41
 672 279 672 279 700 238 c 1,42,43
 733 199 733 199 786 199 c 2,44,-1
 1290 199 l 2,45,46
 1349 199 1349 199 1396.5 239 c 128,-1,47
 1444 279 1444 279 1454 342 c 1,27,-1
1239 561 m 1,48,-1
 1014 561 l 1,49,-1
 1061 784 l 1,50,-1
 1286 784 l 1,51,-1
 1239 561 l 1,48,-1
EndSplineSet
EndChar

StartChar: ttha.imathra
Encoding: 165 -1 165
Width: 1538
Flags: W
LayerCount: 2
Fore
SplineSet
1679 334 m 2,0,1
 1669 289 1669 289 1653.5 248 c 128,-1,2
 1638 207 1638 207 1616 170 c 0,3,4
 1569 88 1569 88 1507 49 c 1,5,6
 1450 4 1450 4 1389 4 c 2,7,-1
 719 4 l 2,8,9
 629 4 629 4 563.5 51 c 128,-1,10
 498 98 498 98 471 172 c 0,11,12
 455 215 455 215 455 262 c 0,13,14
 455 295 455 295 463 334 c 2,15,-1
 600 979 l 2,16,17
 633 1141 633 1141 823 1272 c 1,18,19
 751 1317 751 1317 725.5 1364 c 128,-1,20
 700 1411 700 1411 700 1450 c 0,21,22
 700 1464 700 1464 705 1493 c 2,23,-1
 729 1616 l 1,24,25
 752 1710 752 1710 840 1775.5 c 128,-1,26
 928 1841 928 1841 1036 1841 c 2,27,-1
 1231 1841 l 2,28,29
 1362 1841 1362 1841 1434 1745 c 1,30,31
 1651 1526 1651 1526 1751 1331 c 1,32,33
 1827 1179 1827 1179 1827 1057 c 0,34,35
 1827 1014 1827 1014 1823 995 c 2,36,-1
 1679 334 l 2,0,1
1442 1395 m 1,37,-1
 1311 1563 l 1,38,39
 1258 1645 1258 1645 1184 1645 c 2,40,-1
 1044 1645 l 2,41,42
 1013 1645 1013 1645 983.5 1623.5 c 128,-1,43
 954 1602 954 1602 952 1579 c 1,44,-1
 934 1493 l 1,45,46
 924 1421 924 1421 997 1393 c 1,47,-1
 1442 1395 l 1,37,-1
1464 330 m 1,48,-1
 1602 975 l 1,49,50
 1606 1008 1606 1008 1606 1024 c 0,51,52
 1606 1110 1606 1110 1546 1196 c 1,53,-1
 1006 1196 l 1,54,55
 838 1053 838 1053 821 973 c 2,56,-1
 690 356 l 2,57,58
 688 342 688 342 688 313 c 0,59,60
 688 274 688 274 705 242 c 1,61,62
 738 191 738 191 791 190 c 2,63,-1
 1307 190 l 2,64,65
 1364 190 1364 190 1403 229 c 0,66,67
 1428 252 1428 252 1440 274.5 c 128,-1,68
 1452 297 1452 297 1464 330 c 1,48,-1
1237 551 m 1,69,-1
 1012 551 l 1,70,-1
 1059 774 l 1,71,-1
 1284 774 l 1,72,-1
 1237 551 l 1,69,-1
EndSplineSet
LCarets2: 1 0
EndChar

StartChar: ttha.sub
Encoding: 166 -1 166
Width: 200
Flags: W
AnchorPoint: "Sub" -422 -82 mark 0
AnchorPoint: "Sub" 258 -844 basemark 0
LayerCount: 2
Fore
SplineSet
289 -588 m 2,0,1
 266 -697 266 -697 178 -768.5 c 128,-1,2
 90 -840 90 -840 -12 -840 c 2,3,-1
 -293 -840 l 2,4,5
 -412 -840 -412 -840 -473 -768 c 0,6,7
 -524 -711 -524 -711 -524 -639 c 0,8,9
 -524 -629 -524 -629 -520 -600 c 2,10,-1
 -463 -319 l 2,11,12
 -438 -206 -438 -206 -338 -139 c 1,13,14
 -236 -63 -236 -63 -117 -63 c 2,15,-1
 94 -63 l 2,16,17
 221 -63 221 -63 295 -143 c 1,18,19
 346 -202 346 -202 346 -279 c 0,20,21
 346 -318 346 -318 342 -336 c 2,22,-1
 289 -588 l 2,0,1
102 -541 m 1,23,-1
 139 -365 l 2,24,25
 149 -312 149 -312 114.5 -268.5 c 128,-1,26
 80 -225 80 -225 4 -225 c 2,27,-1
 -123 -225 l 2,28,29
 -174 -225 -174 -225 -216 -266 c 128,-1,30
 -258 -307 -258 -307 -272 -365 c 1,31,-1
 -309 -541 l 2,32,33
 -319 -592 -319 -592 -288.5 -630 c 128,-1,34
 -258 -668 -258 -668 -199 -668 c 2,35,-1
 -61 -668 l 2,36,37
 -30 -668 -30 -668 -10 -660.5 c 128,-1,38
 10 -653 10 -653 43 -631 c 1,39,40
 88 -594 88 -594 102 -541 c 1,23,-1
2 -532 m 1,41,-1
 -221 -532 l 1,42,-1
 -184 -365 l 1,43,-1
 39 -365 l 1,44,-1
 2 -532 l 1,41,-1
EndSplineSet
LCarets2: 1 0
EndChar

StartChar: dda.base
Encoding: 168 -1 168
Width: 1533
Flags: W
LayerCount: 2
Fore
SplineSet
1923 240 m 2,0,1
 1898 138 1898 138 1817 72 c 1,2,3
 1735 0 1735 0 1638 0 c 2,4,-1
 1315 0 l 2,5,6
 1243 0 1243 0 1199 44 c 128,-1,7
 1155 88 1155 88 1155 156 c 1,8,9
 1118 84 1118 84 1061 45 c 1,10,11
 1006 0 1006 0 944 0 c 2,12,-1
 639 0 l 2,13,14
 545 0 545 0 485 66 c 0,15,16
 444 113 444 113 444 172 c 0,17,18
 444 186 444 186 449 219 c 1,19,-1
 594 907 l 2,20,21
 610 987 610 987 676 1067 c 1,22,23
 756 1149 756 1149 846 1196 c 1,24,-1
 651 1196 l 1,25,-1
 694 1391 l 1,26,-1
 1898 1391 l 1,27,-1
 1890 1354 l 1,28,29
 1964 1323 1964 1323 2011 1266 c 1,30,31
 2064 1213 2064 1213 2078.5 1151.5 c 128,-1,32
 2093 1090 2093 1090 2093 1036 c 0,33,34
 2093 997 2093 997 2089 979 c 2,35,-1
 2071 885 l 1,36,37
 2046 783 2046 783 1950 717 c 1,38,39
 2003 672 2003 672 2003 590 c 0,40,41
 2003 576 2003 576 1999 537 c 1,42,-1
 1923 240 l 2,0,1
1798 719 m 1,43,44
 1790 813 1790 813 1708 813 c 2,45,-1
 1655 813 l 2,46,47
 1612 813 1612 813 1604 784 c 1,48,-1
 1587 702 l 1,49,50
 1585 673 1585 673 1681 674 c 0,51,52
 1718 674 1718 674 1798 719 c 1,43,44
1726 311 m 1,53,-1
 1774 537 l 1,54,-1
 1729 508 l 1,55,-1
 1696 485 l 1,56,-1
 1679 481 l 1,57,-1
 1528 481 l 2,58,59
 1454 481 1454 481 1416 521 c 128,-1,60
 1378 561 1378 561 1378 606 c 0,61,62
 1378 624 1378 624 1380 635 c 2,63,-1
 1417 811 l 2,64,65
 1433 883 1433 883 1488.5 931 c 128,-1,66
 1544 979 1544 979 1606 979 c 2,67,-1
 1745 979 l 2,68,69
 1819 979 1819 979 1851 911 c 1,70,-1
 1866 979 l 2,71,72
 1870 1002 1870 1002 1870 1016 c 0,73,74
 1870 1061 1870 1061 1833 1112 c 0,75,76
 1788 1171 1788 1171 1688 1200 c 1,77,-1
 1128 1200 l 1,78,79
 995 1141 995 1141 914.5 1061 c 128,-1,80
 834 981 834 981 817 895 c 2,81,-1
 692 305 l 2,82,83
 684 266 684 266 707.5 230.5 c 128,-1,84
 731 195 731 195 776 195 c 2,85,-1
 934 195 l 2,86,87
 987 195 987 195 1026 233 c 1,88,89
 1073 272 1073 272 1081 319 c 2,90,-1
 1096 387 l 1,91,-1
 1319 387 l 1,92,-1
 1303 301 l 2,93,94
 1295 258 1295 258 1318 224 c 128,-1,95
 1341 190 1341 190 1386 190 c 2,96,-1
 1581 190 l 2,97,98
 1626 190 1626 190 1666 223 c 128,-1,99
 1706 256 1706 256 1726 311 c 1,53,-1
EndSplineSet
EndChar

StartChar: dda.imathra
Encoding: 169 -1 169
Width: 1843
Flags: W
LayerCount: 2
Fore
SplineSet
1944 211 m 1,0,1
 1921 121 1921 121 1854.5 61.5 c 128,-1,2
 1788 2 1788 2 1716 2 c 2,3,-1
 1268 2 l 2,4,5
 1217 2 1217 2 1184 39 c 1,6,7
 1151 70 1151 70 1151 129 c 1,8,9
 1128 74 1128 74 1076 38 c 128,-1,10
 1024 2 1024 2 967 2 c 2,11,-1
 649 2 l 2,12,13
 547 2 547 2 489 76 c 1,14,15
 446 121 446 121 446 195 c 0,16,17
 446 211 446 211 451 250 c 1,18,-1
 590 909 l 2,19,20
 606 991 606 991 678 1075 c 128,-1,21
 750 1159 750 1159 850 1217 c 1,22,23
 768 1262 768 1262 735 1329 c 1,24,25
 706 1376 706 1376 707 1434 c 0,26,27
 707 1448 707 1448 711 1477 c 1,28,-1
 739 1606 l 1,29,30
 757 1702 757 1702 838 1767 c 1,31,32
 912 1837 912 1837 1008 1837 c 2,33,-1
 1524 1837 l 2,34,35
 1592 1837 1592 1837 1670.5 1781.5 c 128,-1,36
 1749 1726 1749 1726 1817 1630 c 1,37,38
 1860 1564 1860 1564 1903 1488.5 c 128,-1,39
 1946 1413 1946 1413 1956 1391 c 0,40,41
 2099 1100 2099 1100 2099 963 c 0,42,43
 2099 947 2099 947 2095 918 c 2,44,-1
 2085 852 l 1,45,46
 2071 791 2071 791 1985 725 c 1,47,48
 2028 680 2028 680 2028 614 c 0,49,50
 2028 589 2028 589 2025 575 c 2,51,-1
 1944 211 l 1,0,1
1720 1403 m 1,52,53
 1646 1526 1646 1526 1570.5 1590.5 c 128,-1,54
 1495 1655 1495 1655 1442 1655 c 2,55,-1
 1079 1655 l 2,56,57
 1028 1655 1028 1655 994.5 1635.5 c 128,-1,58
 961 1616 961 1616 956 1591 c 2,59,-1
 940 1518 l 1,60,61
 930 1450 930 1450 983 1407 c 1,62,-1
 1720 1403 l 1,52,53
1847 737 m 1,63,64
 1802 819 1802 819 1774 819 c 2,65,-1
 1673 819 l 2,66,67
 1634 819 1634 819 1626 780 c 2,68,-1
 1610 709 l 1,69,70
 1602 656 1602 656 1638 655 c 2,71,-1
 1714 655 l 2,72,73
 1790 655 1790 655 1847 737 c 1,63,64
1747 287 m 1,74,-1
 1804 553 l 1,75,76
 1708 481 1708 481 1690 481 c 2,77,-1
 1550 481 l 2,78,79
 1482 481 1482 481 1444.5 528 c 128,-1,80
 1407 575 1407 575 1407 618 c 0,81,82
 1407 626 1407 626 1411 649 c 2,83,-1
 1444 815 l 1,84,85
 1467 889 1467 889 1515 936 c 128,-1,86
 1563 983 1563 983 1628 983 c 2,87,-1
 1796 983 l 2,88,89
 1804 983 1804 983 1823 969 c 1,90,-1
 1874 889 l 1,91,-1
 1884 942 l 1,92,93
 1884 1014 1884 1014 1865.5 1073.5 c 128,-1,94
 1847 1133 1847 1133 1800 1204 c 1,95,-1
 1130 1204 l 1,96,97
 993 1122 993 1122 911 1047 c 1,98,99
 829 965 829 965 819 905 c 1,100,-1
 696 336 l 2,101,102
 694 326 694 326 694 307 c 0,103,104
 694 278 694 278 712.5 244.5 c 128,-1,105
 731 211 731 211 764 211 c 2,106,-1
 946 207 l 2,107,108
 993 207 993 207 1026 231 c 1,109,110
 1065 254 1065 254 1073 291 c 2,111,-1
 1106 457 l 1,112,-1
 1329 457 l 1,113,-1
 1298 309 l 2,114,115
 1290 262 1290 262 1313 240 c 1,116,117
 1336 209 1336 209 1368 209 c 2,118,-1
 1663 209 l 2,119,120
 1692 209 1692 209 1708 233 c 1,121,122
 1718 243 1718 243 1725.5 256 c 128,-1,123
 1733 269 1733 269 1747 287 c 1,74,-1
EndSplineSet
LCarets2: 1 0
EndChar

StartChar: dda.sub
Encoding: 170 -1 170
Width: 362
Flags: W
AnchorPoint: "Sub" -745 -152 mark 0
AnchorPoint: "Sub" 565 -797 basemark 0
LayerCount: 2
Fore
SplineSet
604 -627 m 1,0,1
 594 -699 594 -699 531.5 -754 c 128,-1,2
 469 -809 469 -809 401 -809 c 2,3,-1
 68 -809 l 2,4,5
 -69 -809 -69 -809 -154 -598 c 1,6,7
 -197 -651 -197 -651 -234.5 -687 c 128,-1,8
 -272 -723 -272 -723 -324 -752 c 1,9,10
 -412 -809 -412 -809 -502 -809 c 2,11,-1
 -682 -809 l 2,12,13
 -768 -809 -768 -809 -805 -743 c 0,14,15
 -819 -720 -819 -720 -827.5 -694 c 128,-1,16
 -836 -668 -836 -668 -836 -637 c 0,17,18
 -836 -623 -836 -623 -831 -590 c 1,19,-1
 -793 -408 l 2,20,21
 -789 -379 -789 -379 -765 -345 c 128,-1,22
 -741 -311 -741 -311 -702 -281 c 1,23,24
 -622 -211 -622 -211 -526 -166 c 1,25,26
 -417 -121 -417 -121 -344 -121 c 2,27,-1
 215 -121 l 2,28,29
 346 -121 346 -121 434 -193 c 1,30,31
 500 -252 500 -252 500 -328 c 0,32,33
 500 -342 500 -342 496 -371 c 1,34,35
 566 -371 566 -371 608 -414 c 1,36,37
 633 -445 633 -445 633 -487 c 0,38,39
 633 -510 633 -510 631 -520 c 2,40,-1
 604 -627 l 1,0,1
416 -602 m 1,41,-1
 426 -545 l 2,42,43
 434 -508 434 -508 395 -508 c 2,44,-1
 76 -508 l 1,45,-1
 104 -369 l 1,46,-1
 301 -369 l 1,47,48
 309 -332 309 -332 264 -309 c 1,49,50
 252 -299 252 -299 226.5 -294 c 128,-1,51
 201 -289 201 -289 168 -289 c 2,52,-1
 -348 -289 l 2,53,54
 -385 -289 -385 -289 -444.5 -314.5 c 128,-1,55
 -504 -340 -504 -340 -551 -378 c 128,-1,56
 -598 -416 -598 -416 -600 -434 c 2,57,-1
 -625 -563 l 1,58,59
 -633 -588 -633 -588 -614.5 -609.5 c 128,-1,60
 -596 -631 -596 -631 -573 -631 c 2,61,-1
 -473 -631 l 2,62,63
 -412 -631 -412 -631 -331 -583 c 128,-1,64
 -250 -535 -250 -535 -190 -453 c 1,65,-1
 -25 -453 l 1,66,67
 0 -541 0 -541 49 -595 c 128,-1,68
 98 -649 98 -649 156 -649 c 2,69,-1
 332 -649 l 2,70,71
 363 -649 363 -649 386.5 -634.5 c 128,-1,72
 410 -620 410 -620 416 -602 c 1,41,-1
EndSplineSet
LCarets2: 1 0
EndChar

StartChar: ddha.base
Encoding: 172 -1 172
Width: 1533
Flags: W
LayerCount: 2
Fore
SplineSet
1923 240 m 2,0,1
 1898 138 1898 138 1817 72 c 1,2,3
 1735 0 1735 0 1638 0 c 2,4,-1
 1315 0 l 2,5,6
 1243 0 1243 0 1199 44 c 128,-1,7
 1155 88 1155 88 1155 156 c 1,8,9
 1118 84 1118 84 1061 45 c 1,10,11
 1006 0 1006 0 944 0 c 2,12,-1
 639 0 l 2,13,14
 545 0 545 0 485 66 c 0,15,16
 444 113 444 113 444 172 c 0,17,18
 444 186 444 186 449 219 c 1,19,-1
 594 907 l 2,20,21
 610 987 610 987 676 1067 c 1,22,23
 756 1149 756 1149 846 1196 c 1,24,-1
 651 1196 l 1,25,-1
 694 1391 l 1,26,-1
 1898 1391 l 1,27,-1
 1890 1354 l 1,28,29
 1964 1323 1964 1323 2011 1266 c 1,30,31
 2064 1213 2064 1213 2078.5 1151.5 c 128,-1,32
 2093 1090 2093 1090 2093 1036 c 0,33,34
 2093 997 2093 997 2089 979 c 2,35,-1
 2071 885 l 1,36,37
 2046 783 2046 783 1950 717 c 1,38,39
 2003 672 2003 672 2003 590 c 0,40,41
 2003 576 2003 576 1999 537 c 1,42,-1
 1923 240 l 2,0,1
1798 719 m 1,43,44
 1790 813 1790 813 1708 813 c 2,45,-1
 1655 813 l 2,46,47
 1612 813 1612 813 1604 784 c 1,48,-1
 1587 702 l 1,49,50
 1585 673 1585 673 1681 674 c 0,51,52
 1718 674 1718 674 1798 719 c 1,43,44
1726 311 m 1,53,-1
 1774 537 l 1,54,-1
 1729 508 l 1,55,-1
 1696 485 l 1,56,-1
 1679 481 l 1,57,-1
 1528 481 l 2,58,59
 1454 481 1454 481 1416 521 c 128,-1,60
 1378 561 1378 561 1378 606 c 0,61,62
 1378 624 1378 624 1380 635 c 2,63,-1
 1417 811 l 2,64,65
 1433 883 1433 883 1488.5 931 c 128,-1,66
 1544 979 1544 979 1606 979 c 2,67,-1
 1745 979 l 2,68,69
 1819 979 1819 979 1851 911 c 1,70,-1
 1866 979 l 2,71,72
 1870 1002 1870 1002 1870 1016 c 0,73,74
 1870 1061 1870 1061 1833 1112 c 0,75,76
 1788 1171 1788 1171 1688 1200 c 1,77,-1
 1128 1200 l 1,78,79
 995 1141 995 1141 914.5 1061 c 128,-1,80
 834 981 834 981 817 895 c 2,81,-1
 692 305 l 2,82,83
 684 266 684 266 707.5 230.5 c 128,-1,84
 731 195 731 195 776 195 c 2,85,-1
 934 195 l 2,86,87
 987 195 987 195 1026 233 c 1,88,89
 1073 272 1073 272 1081 319 c 2,90,-1
 1096 387 l 1,91,-1
 1319 387 l 1,92,-1
 1303 301 l 2,93,94
 1295 258 1295 258 1318 224 c 128,-1,95
 1341 190 1341 190 1386 190 c 2,96,-1
 1581 190 l 2,97,98
 1626 190 1626 190 1666 223 c 128,-1,99
 1706 256 1706 256 1726 311 c 1,53,-1
1171 -297 m 1,100,-1
 952 -297 l 1,101,-1
 1012 -16 l 1,102,-1
 1231 -16 l 1,103,-1
 1171 -297 l 1,100,-1
EndSplineSet
EndChar

StartChar: ddha.imathra
Encoding: 173 -1 173
Width: 1843
Flags: W
LayerCount: 2
Fore
SplineSet
1944 211 m 1,0,1
 1921 121 1921 121 1854.5 61.5 c 128,-1,2
 1788 2 1788 2 1716 2 c 2,3,-1
 1268 2 l 2,4,5
 1217 2 1217 2 1184 39 c 1,6,7
 1151 70 1151 70 1151 129 c 1,8,9
 1128 74 1128 74 1076 38 c 128,-1,10
 1024 2 1024 2 967 2 c 2,11,-1
 649 2 l 2,12,13
 547 2 547 2 489 76 c 1,14,15
 446 121 446 121 446 195 c 0,16,17
 446 211 446 211 451 250 c 1,18,-1
 590 909 l 2,19,20
 606 991 606 991 678 1075 c 128,-1,21
 750 1159 750 1159 850 1217 c 1,22,23
 768 1262 768 1262 735 1329 c 1,24,25
 706 1376 706 1376 707 1434 c 0,26,27
 707 1448 707 1448 711 1477 c 1,28,-1
 739 1606 l 1,29,30
 757 1702 757 1702 838 1767 c 1,31,32
 912 1837 912 1837 1008 1837 c 2,33,-1
 1524 1837 l 2,34,35
 1592 1837 1592 1837 1670.5 1781.5 c 128,-1,36
 1749 1726 1749 1726 1817 1630 c 1,37,38
 1860 1564 1860 1564 1903 1488.5 c 128,-1,39
 1946 1413 1946 1413 1956 1391 c 0,40,41
 2099 1100 2099 1100 2099 963 c 0,42,43
 2099 947 2099 947 2095 918 c 2,44,-1
 2085 852 l 1,45,46
 2071 791 2071 791 1985 725 c 1,47,48
 2028 680 2028 680 2028 614 c 0,49,50
 2028 589 2028 589 2025 575 c 2,51,-1
 1944 211 l 1,0,1
1720 1403 m 1,52,53
 1646 1526 1646 1526 1570.5 1590.5 c 128,-1,54
 1495 1655 1495 1655 1442 1655 c 2,55,-1
 1079 1655 l 2,56,57
 1028 1655 1028 1655 994.5 1635.5 c 128,-1,58
 961 1616 961 1616 956 1591 c 2,59,-1
 940 1518 l 1,60,61
 930 1450 930 1450 983 1407 c 1,62,-1
 1720 1403 l 1,52,53
1847 737 m 1,63,64
 1802 819 1802 819 1774 819 c 2,65,-1
 1673 819 l 2,66,67
 1634 819 1634 819 1626 780 c 2,68,-1
 1610 709 l 1,69,70
 1602 656 1602 656 1638 655 c 2,71,-1
 1714 655 l 2,72,73
 1790 655 1790 655 1847 737 c 1,63,64
1747 287 m 1,74,-1
 1804 553 l 1,75,76
 1708 481 1708 481 1690 481 c 2,77,-1
 1550 481 l 2,78,79
 1482 481 1482 481 1444.5 528 c 128,-1,80
 1407 575 1407 575 1407 618 c 0,81,82
 1407 626 1407 626 1411 649 c 2,83,-1
 1444 815 l 1,84,85
 1467 889 1467 889 1515 936 c 128,-1,86
 1563 983 1563 983 1628 983 c 2,87,-1
 1796 983 l 2,88,89
 1804 983 1804 983 1823 969 c 1,90,-1
 1874 889 l 1,91,-1
 1884 942 l 1,92,93
 1884 1014 1884 1014 1865.5 1073.5 c 128,-1,94
 1847 1133 1847 1133 1800 1204 c 1,95,-1
 1130 1204 l 1,96,97
 993 1122 993 1122 911 1047 c 1,98,99
 829 965 829 965 819 905 c 1,100,-1
 696 336 l 2,101,102
 694 326 694 326 694 307 c 0,103,104
 694 278 694 278 712.5 244.5 c 128,-1,105
 731 211 731 211 764 211 c 2,106,-1
 946 207 l 2,107,108
 993 207 993 207 1026 231 c 1,109,110
 1065 254 1065 254 1073 291 c 2,111,-1
 1106 457 l 1,112,-1
 1329 457 l 1,113,-1
 1298 309 l 2,114,115
 1290 262 1290 262 1313 240 c 1,116,117
 1336 209 1336 209 1368 209 c 2,118,-1
 1663 209 l 2,119,120
 1692 209 1692 209 1708 233 c 1,121,122
 1718 243 1718 243 1725.5 256 c 128,-1,123
 1733 269 1733 269 1747 287 c 1,74,-1
1169 -281 m 1,124,-1
 950 -281 l 1,125,-1
 1010 0 l 1,126,-1
 1229 0 l 1,127,-1
 1169 -281 l 1,124,-1
EndSplineSet
LCarets2: 1 0
EndChar

StartChar: ddha.sub
Encoding: 174 -1 174
Width: 362
Flags: W
AnchorPoint: "Sub" -778 -135 mark 0
AnchorPoint: "Sub" 561 -786 basemark 0
LayerCount: 2
Fore
SplineSet
604 -627 m 1,0,1
 594 -688 594 -688 535.5 -733 c 128,-1,2
 477 -778 477 -778 406 -778 c 2,3,-1
 72 -778 l 2,4,5
 -59 -778 -59 -778 -156 -596 c 1,6,7
 -246 -700 -246 -700 -336 -748 c 1,8,9
 -424 -805 -424 -805 -504 -805 c 2,10,-1
 -684 -805 l 2,11,12
 -770 -805 -770 -805 -807 -739 c 0,13,14
 -821 -716 -821 -716 -829.5 -690 c 128,-1,15
 -838 -664 -838 -664 -838 -633 c 0,16,17
 -838 -619 -838 -619 -834 -586 c 1,18,-1
 -795 -403 l 2,19,20
 -791 -374 -791 -374 -767 -340.5 c 128,-1,21
 -743 -307 -743 -307 -705 -276 c 1,22,23
 -625 -206 -625 -206 -528 -162 c 1,24,25
 -419 -117 -419 -117 -346 -117 c 2,26,-1
 213 -117 l 2,27,28
 344 -117 344 -117 432 -188 c 1,29,30
 498 -247 498 -247 498 -324 c 0,31,32
 498 -338 498 -338 494 -367 c 1,33,34
 564 -367 564 -367 606 -410 c 1,35,36
 631 -441 631 -441 631 -483 c 0,37,38
 631 -506 631 -506 629 -516 c 2,39,-1
 604 -627 l 1,0,1
-106 -840 m 1,40,-1
 -301 -840 l 1,41,-1
 -285 -758 l 1,42,-1
 -176 -684 l 1,43,-1
 -92 -758 l 1,44,-1
 -106 -840 l 1,40,-1
412 -600 m 1,45,-1
 422 -543 l 2,46,47
 430 -506 430 -506 391 -506 c 2,48,-1
 72 -506 l 1,49,-1
 100 -367 l 1,50,-1
 297 -367 l 1,51,52
 305 -330 305 -330 260 -307 c 1,53,54
 248 -297 248 -297 222.5 -292 c 128,-1,55
 197 -287 197 -287 164 -287 c 2,56,-1
 -352 -287 l 2,57,58
 -389 -287 -389 -287 -448.5 -312.5 c 128,-1,59
 -508 -338 -508 -338 -555 -376 c 128,-1,60
 -602 -414 -602 -414 -604 -432 c 2,61,-1
 -629 -561 l 1,62,63
 -637 -586 -637 -586 -618.5 -607.5 c 128,-1,64
 -600 -629 -600 -629 -578 -629 c 2,65,-1
 -477 -629 l 2,66,67
 -416 -629 -416 -629 -335 -580.5 c 128,-1,68
 -254 -532 -254 -532 -195 -451 c 1,69,-1
 -29 -451 l 1,70,71
 -4 -539 -4 -539 45 -593 c 128,-1,72
 94 -647 94 -647 152 -647 c 2,73,-1
 328 -647 l 2,74,75
 359 -647 359 -647 382.5 -632.5 c 128,-1,76
 406 -618 406 -618 412 -600 c 1,45,-1
EndSplineSet
LCarets2: 1 0
EndChar

StartChar: nna
Encoding: 175 3235 175
Width: 1959
Flags: W
LayerCount: 2
Fore
SplineSet
2073 268 m 2,0,1
 2048 159 2048 159 1960 79.5 c 128,-1,2
 1872 0 1872 0 1767 0 c 2,3,-1
 1350 0 l 1,4,-1
 1423 352 l 2,5,6
 1446 452 1446 452 1515.5 519 c 128,-1,7
 1585 586 1585 586 1657 586 c 2,8,-1
 1808 586 l 1,9,-1
 1765 391 l 1,10,-1
 1726 391 l 2,11,12
 1701 391 1701 391 1677 375 c 1,13,14
 1648 346 1648 346 1645 324 c 2,15,-1
 1616 195 l 1,16,-1
 1745 195 l 2,17,18
 1790 195 1790 195 1824 235.5 c 128,-1,19
 1858 276 1858 276 1866 322 c 2,20,-1
 2032 1106 l 2,21,22
 2040 1149 2040 1149 2014.5 1174.5 c 128,-1,23
 1989 1200 1989 1200 1942 1200 c 2,24,-1
 1679 1200 l 2,25,26
 1634 1200 1634 1200 1583 1176 c 1,27,28
 1554 1153 1554 1153 1546 1144 c 128,-1,29
 1538 1135 1538 1135 1534 1110 c 2,30,-1
 1509 981 l 1,31,-1
 1286 981 l 1,32,-1
 1311 1110 l 2,33,34
 1319 1153 1319 1153 1292.5 1178.5 c 128,-1,35
 1266 1204 1266 1204 1208 1204 c 2,36,-1
 956 1204 l 2,37,38
 919 1204 919 1204 881 1180 c 1,39,40
 844 1143 844 1143 840 1112 c 1,41,-1
 788 872 l 2,42,43
 786 858 786 858 786 836 c 0,44,45
 786 805 786 805 807.5 769 c 128,-1,46
 829 733 829 733 872 733 c 2,47,-1
 1012 733 l 1,48,-1
 973 539 l 1,49,-1
 821 539 l 2,50,51
 778 539 778 539 745 514 c 1,52,53
 708 481 708 481 700 444 c 2,54,-1
 672 307 l 1,55,56
 668 260 668 260 689.5 233.5 c 128,-1,57
 711 207 711 207 750 207 c 2,58,-1
 1040 207 l 1,59,-1
 1001 12 l 1,60,-1
 627 12 l 2,61,62
 527 12 527 12 476.5 69.5 c 128,-1,63
 426 127 426 127 426 184 c 0,64,65
 426 194 426 194 430 223 c 2,66,-1
 481 475 l 2,67,68
 491 520 491 520 549.5 572.5 c 128,-1,69
 608 625 608 625 688 653 c 1,70,71
 616 682 616 682 584 741 c 1,72,73
 576 770 576 770 570.5 791.5 c 128,-1,74
 565 813 565 813 565 842 c 0,75,76
 565 865 565 865 567 874 c 2,77,-1
 629 1169 l 2,78,79
 647 1265 647 1265 735 1334 c 128,-1,80
 823 1403 823 1403 928 1403 c 2,81,-1
 1280 1403 l 2,82,83
 1360 1403 1360 1403 1410 1367 c 128,-1,84
 1460 1331 1460 1331 1460 1280 c 1,85,86
 1548 1403 1548 1403 1708 1403 c 2,87,-1
 2042 1403 l 2,88,89
 2161 1403 2161 1403 2222 1321 c 0,90,91
 2265 1264 2265 1264 2265 1188 c 0,92,93
 2265 1157 2265 1157 2257 1118 c 2,94,-1
 2073 268 l 2,0,1
EndSplineSet
LCarets2: 1 0
EndChar

StartChar: nna.base
Encoding: 176 -1 176
Width: 1466
Flags: W
LayerCount: 2
Fore
SplineSet
1782 1204 m 1,0,-1
 664 1204 l 1,1,-1
 707 1399 l 1,2,-1
 1825 1399 l 1,3,-1
 1782 1204 l 1,0,-1
1858 242 m 2,4,5
 1835 140 1835 140 1767 74 c 1,6,7
 1699 2 1699 2 1614 2 c 2,8,-1
 1194 2 l 1,9,-1
 1255 299 l 2,10,11
 1278 408 1278 408 1366 483.5 c 128,-1,12
 1454 559 1454 559 1542 559 c 2,13,-1
 1642 559 l 1,14,-1
 1604 365 l 1,15,-1
 1575 365 l 2,16,17
 1544 365 1544 365 1514.5 341 c 128,-1,18
 1485 317 1485 317 1477 285 c 2,19,-1
 1458 199 l 1,20,-1
 1569 199 l 2,21,22
 1606 199 1606 199 1636.5 231.5 c 128,-1,23
 1667 264 1667 264 1677 309 c 2,24,-1
 1778 784 l 2,25,26
 1786 831 1786 831 1753 864 c 128,-1,27
 1720 897 1720 897 1663 897 c 2,28,-1
 1466 897 l 2,29,30
 1435 897 1435 897 1401.5 863 c 128,-1,31
 1368 829 1368 829 1360 784 c 2,32,-1
 1350 731 l 1,33,-1
 1126 731 l 1,34,-1
 1143 813 l 2,35,36
 1145 821 1145 821 1145 830.5 c 128,-1,37
 1145 840 1145 840 1145 842 c 0,38,39
 1145 858 1145 858 1132.5 876.5 c 128,-1,40
 1120 895 1120 895 1081 895 c 2,41,-1
 885 895 l 2,42,43
 854 895 854 895 823 872 c 0,44,45
 813 864 813 864 802 850 c 128,-1,46
 791 836 791 836 786 811 c 2,47,-1
 764 700 l 1,48,49
 762 675 762 675 783.5 656 c 128,-1,50
 805 637 805 637 844 637 c 2,51,-1
 918 637 l 1,52,-1
 872 422 l 1,53,-1
 799 422 l 2,54,55
 760 422 760 422 727 396.5 c 128,-1,56
 694 371 694 371 686 328 c 2,57,-1
 672 256 l 2,58,59
 664 223 664 223 690.5 199.5 c 128,-1,60
 717 176 717 176 764 176 c 2,61,-1
 958 176 l 1,62,-1
 922 8 l 1,63,-1
 588 8 l 2,64,65
 512 8 512 8 469 55 c 128,-1,66
 426 102 426 102 426 143 c 0,67,68
 426 151 426 151 430 174 c 2,69,-1
 467 356 l 1,70,71
 481 415 481 415 524 455 c 1,72,73
 563 500 563 500 625 522 c 1,74,75
 574 538 574 538 549 575 c 1,76,77
 531 598 531 598 530 631 c 0,78,79
 530 647 530 647 532 655 c 2,80,-1
 584 893 l 1,81,82
 600 979 600 979 680 1033 c 128,-1,83
 760 1087 760 1087 856 1087 c 2,84,-1
 1180 1087 l 2,85,86
 1282 1087 1282 1087 1300 1006 c 1,87,88
 1325 1043 1325 1043 1373 1065 c 128,-1,89
 1421 1087 1421 1087 1483 1087 c 2,90,-1
 1743 1087 l 2,91,92
 1874 1087 1874 1087 1933 999 c 1,93,94
 1980 933 1980 933 1980 854 c 0,95,96
 1980 821 1980 821 1972 782 c 2,97,-1
 1858 242 l 2,4,5
EndSplineSet
EndChar

